<svg width="24" height="24" viewBox="0 0 24 24" fill="none" xmlns="http://www.w3.org/2000/svg">
<path d="M20.7417 14.1494L21.4702 14.3279L22.0618 11.9135L20.2335 13.5978L20.7417 14.1494ZM12.3794 3.00785L12.7679 3.64941L14.8948 2.36152L12.4105 2.2585L12.3794 3.00785ZM20.2335 13.5978C19.1195 14.6242 17.6337 15.25 16 15.25V16.75C18.0249 16.75 19.8698 15.9725 21.2499 14.701L20.2335 13.5978ZM16 15.25C12.5482 15.25 9.75 12.4518 9.75 9H8.25C8.25 13.2802 11.7198 16.75 16 16.75V15.25ZM9.75 9C9.75 6.73223 10.9573 4.74573 12.7679 3.64941L11.9909 2.3663C9.75024 3.72309 8.25 6.18599 8.25 9H9.75ZM12 3.75C12.1167 3.75 12.2329 3.75242 12.3483 3.75721L12.4105 2.2585C12.2743 2.25285 12.1375 2.25 12 2.25V3.75ZM3.75 12C3.75 7.44365 7.44365 3.75 12 3.75V2.25C6.61522 2.25 2.25 6.61522 2.25 12H3.75ZM12 20.25C7.44365 20.25 3.75 16.5563 3.75 12H2.25C2.25 17.3848 6.61522 21.75 12 21.75V20.25ZM20.0133 13.9709C19.1299 17.5759 15.8763 20.25 12 20.25V21.75C16.5833 21.75 20.4262 18.5883 21.4702 14.3279L20.0133 13.9709Z" fill="black"/>
</svg>
