<svg xmlns="http://www.w3.org/2000/svg" width="24" height="24" viewBox="0 0 24 24" fill="none">
  <path fill-rule="evenodd" clip-rule="evenodd" d="M3.25 12C3.25 7.16751 7.16751 3.25 12 3.25C16.8325 3.25 20.75 7.16751 20.75 12C20.75 16.8325 16.8325 20.75 12 20.75C7.16751 20.75 3.25 16.8325 3.25 12ZM11.0761 6.96886C11.218 6.81649 11.4168 6.72995 11.625 6.72995H12.375C12.5832 6.72995 12.782 6.81649 12.9239 6.96886C13.0658 7.12123 13.1379 7.32572 13.1231 7.53339L12.7481 12.7834C12.7201 13.1759 12.3935 13.4799 12 13.4799C11.6065 13.4799 11.2799 13.1759 11.2519 12.7834L10.8769 7.53339C10.8621 7.32572 10.9342 7.12123 11.0761 6.96886ZM12 15.2299C12.5523 15.2299 13 15.6777 13 16.2299V16.27C13 16.8223 12.5523 17.27 12 17.27C11.4477 17.27 11 16.8223 11 16.27V16.2299C11 15.6777 11.4477 15.2299 12 15.2299Z" fill="black"/>
</svg>