<svg width="16" height="16" viewBox="0 0 16 16" fill="none" xmlns="http://www.w3.org/2000/svg">
<g id="Interface/Xs/AlarmFilled">
<g id="ToneAlpha1">
<path fill-rule="evenodd" clip-rule="evenodd" d="M14 8C14 11.3137 11.3137 14 8 14C4.68629 14 2 11.3137 2 8C2 4.68629 4.68629 2 8 2C6.91619 2 6.05711 2.91441 6.12466 3.99611L6.4065 8.50901C6.45906 9.3505 7.15686 10.0061 8 10.0061C8.84314 10.0061 9.54094 9.3505 9.5935 8.50901L9.87534 3.99611C9.94289 2.91441 9.08381 2 8 2C11.3137 2 14 4.68629 14 8ZM9.71213 11.6474L9.71716 11.6826C9.86644 12.7275 9.05558 13.6625 8 13.6625C6.94442 13.6625 6.13356 12.7275 6.28284 11.6826L6.28787 11.6474C6.40959 10.7953 7.13931 10.1625 8 10.1625C8.86069 10.1625 9.59041 10.7953 9.71213 11.6474Z" fill="black"/>
<path d="M8 2C4.68629 2 2 4.68629 2 8C2 11.3137 4.68629 14 8 14C11.3137 14 14 11.3137 14 8C14 4.68629 11.3137 2 8 2ZM8 2C6.91619 2 6.05711 2.91441 6.12466 3.99611L6.4065 8.50901C6.45906 9.3505 7.15686 10.0061 8 10.0061C8.84314 10.0061 9.54094 9.3505 9.5935 8.50901L9.87534 3.99611C9.94289 2.91441 9.08381 2 8 2ZM9.71716 11.6826L9.71213 11.6474C9.59041 10.7953 8.86069 10.1625 8 10.1625C7.13931 10.1625 6.40959 10.7953 6.28787 11.6474L6.28284 11.6826C6.13356 12.7275 6.94442 13.6625 8 13.6625C9.05558 13.6625 9.86644 12.7275 9.71716 11.6826Z" stroke="black" stroke-width="1.5"/>
</g>
</g>
</svg>
