<svg width="24" height="24" viewBox="0 0 24 24" fill="none" xmlns="http://www.w3.org/2000/svg">
<g id="Interface/S/AlarmFilled">
<path id="ToneAlpha1" fill-rule="evenodd" clip-rule="evenodd" d="M20 12C20 16.4183 16.4183 20 12 20C7.58172 20 4 16.4183 4 12C4 7.58172 7.58172 4 12 4C16.4183 4 20 7.58172 20 12ZM13.8949 6.99724L13.5788 13.0021C13.5346 13.8418 12.8409 14.5 12 14.5C11.1591 14.5 10.4654 13.8418 10.4212 13.0021L10.1051 6.99724C10.048 5.91159 10.9129 5 12 5C13.0871 5 13.952 5.91159 13.8949 6.99724ZM13.7121 16.4849L13.7172 16.5201C13.8664 17.5651 13.0556 18.5 12 18.5C10.9444 18.5 10.1336 17.5651 10.2828 16.5201L10.2879 16.4849C10.4096 15.6329 11.1393 15 12 15C12.8607 15 13.5904 15.6329 13.7121 16.4849Z" fill="black" stroke="black" stroke-width="1.5"/>
</g>
</svg>
