<svg width="24" height="24" viewBox="0 0 24 24" fill="none" xmlns="http://www.w3.org/2000/svg">
<path d="M16.0001 12C16.0001 14.2091 14.2093 16 12.0001 16C12 13.3333 12.0001 10.6667 12.0001 8C14.2093 8 16.0001 9.79086 16.0001 12Z" fill="black"/>
<path d="M20 12C20 16.4183 16.4183 20 12 20C7.58172 20 4 16.4183 4 12C4 7.58172 7.58172 4 12 4C16.4183 4 20 7.58172 20 12Z" stroke="black" stroke-width="1.5" stroke-linecap="round"/>
<path d="M16.0001 12C16.0001 14.2091 14.2093 16 12.0001 16C12 13.3333 12.0001 10.6667 12.0001 8C14.2093 8 16.0001 9.79086 16.0001 12Z" stroke="black" stroke-width="1.5" stroke-linecap="round"/>
</svg>
