<svg width="16" height="16" viewBox="0 0 16 16" fill="none" xmlns="http://www.w3.org/2000/svg">
<path d="M10.5 8C10.5 9.5 9.5 10.5 8 10.5C7.99988 8.5 8.00005 7.5 8.00009 5.5C9.5 5.5 10.5 6.5 10.5 8Z" fill="black"/>
<path d="M14 8C14 11.3137 11.3137 14 8 14C4.68629 14 2 11.3137 2 8C2 4.68629 4.68629 2 8 2C11.3137 2 14 4.68629 14 8Z" stroke="black" stroke-width="1.5" stroke-linecap="round"/>
<path d="M10.5 8C10.5 9.5 9.5 10.5 8 10.5C7.99988 8.5 8.00005 7.5 8.00009 5.5C9.5 5.5 10.5 6.5 10.5 8Z" stroke="black" stroke-width="1.5" stroke-linecap="round"/>
</svg>
