<svg width="16" height="16" viewBox="0 0 16 16" fill="none" xmlns="http://www.w3.org/2000/svg">
<path d="M4.39958 9.18517L5.26943 7.46666C5.36959 7.2703 5.52307 7.10535 5.7127 6.99023C5.90234 6.87511 6.12066 6.81437 6.34324 6.8148H12.7981M12.7981 6.8148C12.9814 6.81449 13.1623 6.85566 13.327 6.93515C13.4917 7.01464 13.6357 7.13035 13.7481 7.27339C13.8604 7.41643 13.9381 7.583 13.9752 7.76032C14.0123 7.93763 14.0077 8.12098 13.9619 8.29629L13.0321 12.365C12.9655 12.6198 12.815 12.8454 12.6043 13.0063C12.3935 13.1673 12.1346 13.2544 11.8683 13.2539H3.19979C2.88159 13.2539 2.57641 13.129 2.35141 12.9068C2.12641 12.6845 2 12.3831 2 12.0687V3.93909C2 3.28724 2.53991 2.75391 3.19979 2.75391H5.55738C5.75499 2.75492 5.94929 2.80413 6.12302 2.89717C6.29674 2.99021 6.44451 3.1242 6.5532 3.28724L7.04511 3.99835C7.1538 4.16139 7.30157 4.29538 7.4753 4.38842C7.64902 4.48146 7.84333 4.53067 8.04094 4.53168H11.5983C11.9165 4.53168 12.2217 4.65655 12.4467 4.87882C12.6717 5.10108 12.7981 5.40254 12.7981 5.71687V6.8148Z" stroke="black" stroke-width="1.5" stroke-linecap="round" stroke-linejoin="round"/>
</svg>
