<svg width="24" height="24" viewBox="0 0 24 24" fill="none" xmlns="http://www.w3.org/2000/svg">
    <path d="M21 11V9C21 7.89543 20.1046 7 19 7H12.8031C12.2877 7 11.7922 6.80104 11.4199 6.44462L9.44674 4.55538C9.07447 4.19896 8.57898 4 8.06359 4H5C3.89543 4 3 4.89543 3 6V18C3 19.1046 3.89543 20 5 20H19.3333C20.1942 20 20.9585 19.4491 21.2307 18.6325L22.8974 13.6325C23.3291 12.3374 22.3651 11 21 11ZM21 11H16.2H10.2968C9.44149 11 8.68082 11.544 8.40427 12.3534L7.5 15" stroke="black" stroke-width="1.5" stroke-linecap="round" stroke-linejoin="round"/>
</svg>
