<svg width="16" height="16" viewBox="0 0 16 16" fill="none" xmlns="http://www.w3.org/2000/svg">
    <path d="M14 8V6C14 5.44772 13.5523 5 13 5H8.41421C8.149 5 7.89464 4.89464 7.70711 4.70711L6.29289 3.29289C6.10536 3.10536 5.851 3 5.58579 3H3C2.44772 3 2 3.44771 2 4V13C2 13.5523 2.44772 14 3 14H12.6667C13.0971 14 13.4792 13.7246 13.6154 13.3162L14.9487 9.31623C15.1645 8.6687 14.6826 8 14 8ZM14 8H12H6.72076C6.29033 8 5.90819 8.27543 5.77208 8.68377L5 11" stroke="black" stroke-width="1.5" stroke-linecap="round" stroke-linejoin="round"/>
</svg>
