<svg width="24" height="24" viewBox="0 0 24 24" fill="none" xmlns="http://www.w3.org/2000/svg">
<path d="M6.59937 13.7778L7.90414 11.2C8.05438 10.9055 8.2846 10.658 8.56906 10.4854C8.85351 10.3127 9.18098 10.2216 9.51486 10.2222H19.1972M19.1972 10.2222C19.4721 10.2217 19.7435 10.2835 19.9905 10.4027C20.2375 10.522 20.4536 10.6955 20.6221 10.9101C20.7907 11.1247 20.9072 11.3745 20.9628 11.6405C21.0184 11.9065 21.0116 12.1815 20.9429 12.4444L19.5481 18.6667C19.4482 19.0488 19.2225 19.3872 18.9064 19.6286C18.5903 19.87 18.2019 20.0007 17.8024 20H4.79968C4.32238 20 3.86462 19.8127 3.52712 19.4793C3.18961 19.1459 3 18.6937 3 18.2222V5.77778C3 4.8 3.80986 4 4.79968 4H8.33606C8.63248 4.00151 8.92394 4.07533 9.18453 4.2149C9.44512 4.35446 9.66677 4.55545 9.8298 4.8L10.5677 5.86667C10.7307 6.11122 10.9524 6.31221 11.2129 6.45177C11.4735 6.59133 11.765 6.66515 12.0614 6.66667H17.3975C17.8748 6.66667 18.3325 6.85397 18.67 7.18736C19.0075 7.52076 19.1972 7.97295 19.1972 8.44444V10.2222Z" stroke="black" stroke-width="1.5" stroke-linecap="round" stroke-linejoin="round"/>
</svg>
