<svg width="24" height="24" viewBox="0 0 24 24" fill="none" xmlns="http://www.w3.org/2000/svg">
<path fill-rule="evenodd" clip-rule="evenodd" d="M20.25 7.5126V7C20.25 6.30964 19.6904 5.75 19 5.75L5 5.75C4.30965 5.75 3.75 6.30964 3.75 7L3.75 7.5126L11.4923 10.9536C11.8155 11.0973 12.1845 11.0973 12.5077 10.9536L20.25 7.5126ZM20.25 9.15407L13.1169 12.3243C12.4058 12.6404 11.5942 12.6404 10.8831 12.3243L3.75 9.15407L3.75 11L3.75 17C3.75 17.6904 4.30964 18.25 5 18.25L19 18.25C19.6904 18.25 20.25 17.6904 20.25 17V11V9.15407ZM21.75 7V8V11V17C21.75 18.5188 20.5188 19.75 19 19.75L5 19.75C3.48122 19.75 2.25 18.5188 2.25 17L2.25 11L2.25 8L2.25 7C2.25 5.48122 3.48122 4.25 5 4.25L19 4.25C20.5188 4.25 21.75 5.48122 21.75 7Z" fill="black"/>
</svg>
