<svg width="24" height="24" viewBox="0 0 24 24" fill="none" xmlns="http://www.w3.org/2000/svg">
<path d="M4.8 20H19.2C19.6774 20 20.1352 19.8127 20.4728 19.4793C20.8104 19.1459 21 18.6937 21 18.2222V8.44444C21 7.97295 20.8104 7.52076 20.4728 7.18737C20.1352 6.85397 19.6774 6.66667 19.2 6.66667H12.063C11.7665 6.66515 11.475 6.59133 11.2144 6.45177C10.9538 6.31221 10.7321 6.11122 10.569 5.86667L9.831 4.8C9.66794 4.55545 9.44625 4.35446 9.18561 4.2149C8.92498 4.07533 8.63347 4.00151 8.337 4H4.8C4.32261 4 3.86477 4.1873 3.52721 4.5207C3.18964 4.8541 3 5.30628 3 5.77778V18.2222C3 19.2 3.81 20 4.8 20Z" stroke="black" stroke-width="1.5" stroke-linecap="round" stroke-linejoin="round"/>
</svg>
