<svg width="16" height="16" viewBox="0 0 16 16" fill="none" xmlns="http://www.w3.org/2000/svg">
<path d="M3.2 13.2578H12.8C13.1183 13.2578 13.4235 13.1329 13.6485 12.9107C13.8736 12.6884 14 12.387 14 12.0726V5.71296C14 5.39863 13.8736 5.09718 13.6485 4.87491C13.4235 4.65265 13.1183 4.52778 12.8 4.52778H8.042C7.84435 4.52677 7.65002 4.47756 7.47626 4.38451C7.3025 4.29147 7.15471 4.15748 7.046 3.99444L6.554 3.28333C6.44529 3.1203 6.2975 2.98631 6.12374 2.89326C5.94999 2.80022 5.75565 2.75101 5.558 2.75H3.2C2.88174 2.75 2.57652 2.87487 2.35147 3.09713C2.12643 3.3194 2 3.62085 2 3.93519V12.0726C2 12.7245 2.54 13.2578 3.2 13.2578Z" stroke="black" stroke-width="1.5" stroke-linecap="round" stroke-linejoin="round"/>
</svg>
