<svg xmlns="http://www.w3.org/2000/svg" width="24" height="24" viewBox="0 0 24 24" fill="none">
  <path fill-rule="evenodd" clip-rule="evenodd" d="M3.25 12C3.25 7.16751 7.16751 3.25 12 3.25C16.8325 3.25 20.75 7.16751 20.75 12C20.75 16.8325 16.8325 20.75 12 20.75C7.16751 20.75 3.25 16.8325 3.25 12ZM16.0708 8.99974C16.3637 8.70684 16.3637 8.23197 16.0708 7.93908C15.7779 7.64618 15.303 7.64618 15.0101 7.93908L12.0049 10.9443L8.9998 7.93918C8.70691 7.64629 8.23203 7.64629 7.93914 7.93918C7.64625 8.23208 7.64625 8.70695 7.93914 8.99984L10.9442 12.0049L7.93903 15.0101C7.64614 15.303 7.64614 15.7779 7.93903 16.0708C8.23192 16.3637 8.7068 16.3637 8.99969 16.0708L12.0049 13.0656L15.0102 16.0709C15.3031 16.3638 15.778 16.3638 16.0709 16.0709C16.3638 15.778 16.3638 15.3031 16.0709 15.0103L13.0656 12.0049L16.0708 8.99974Z" fill="black"/>
</svg>