<svg width="16" height="16" viewBox="0 0 16 16" fill="none" xmlns="http://www.w3.org/2000/svg">
<g id="Interface/Xs/CrossFilled">
<path id="ToneAlpha1" fill-rule="evenodd" clip-rule="evenodd" d="M14 8C14 11.3137 11.3137 14 8 14C4.68629 14 2 11.3137 2 8C2 4.68629 4.68629 2 8 2C11.3137 2 14 4.68629 14 8ZM3.99999 4.00001C4.58578 3.41422 5.53553 3.41422 6.12131 4.00001L8.00001 5.8787L9.87868 4.00002C10.4645 3.41423 11.4142 3.41423 12 4.00002C12.5858 4.5858 12.5858 5.53555 12 6.12134L10.1213 8.00002L12 9.8787C12.5858 10.4645 12.5858 11.4142 12 12C11.4142 12.5858 10.4645 12.5858 9.87869 12L8.00001 10.1213L6.12133 12C5.53554 12.5858 4.58579 12.5858 4.00001 12C3.41422 11.4142 3.41422 10.4645 4.00001 9.8787L5.87869 8.00002L3.99999 6.12133C3.41421 5.53554 3.41421 4.5858 3.99999 4.00001Z" fill="black" stroke="black" stroke-width="1.5"/>
</g>
</svg>
