<svg width="16" height="16" viewBox="0 0 16 16" fill="none" xmlns="http://www.w3.org/2000/svg">
<path fill-rule="evenodd" clip-rule="evenodd" d="M14.75 8C14.75 11.7279 11.7279 14.75 8 14.75C4.27208 14.75 1.25 11.7279 1.25 8C1.25 4.27208 4.27208 1.25 8 1.25C11.7279 1.25 14.75 4.27208 14.75 8ZM4.96967 4.96967C4.67678 5.26256 4.67678 5.73744 4.96967 6.03033L6.93934 8L4.96967 9.96967C4.67678 10.2626 4.67678 10.7374 4.96967 11.0303C5.26256 11.3232 5.73744 11.3232 6.03033 11.0303L8 9.06066L9.96967 11.0303C10.2626 11.3232 10.7374 11.3232 11.0303 11.0303C11.3232 10.7374 11.3232 10.2626 11.0303 9.96967L9.06066 8L11.0303 6.03033C11.3232 5.73743 11.3232 5.26256 11.0303 4.96967C10.7374 4.67677 10.2626 4.67677 9.96967 4.96967L8 6.93934L6.03033 4.96967C5.73744 4.67678 5.26256 4.67678 4.96967 4.96967Z" fill="black"/>
</svg>
