<svg width="24" height="24" viewBox="0 0 24 24" fill="none" xmlns="http://www.w3.org/2000/svg">
<g id="Interface/S/CrossFilled">
<path id="ToneAlpha1" fill-rule="evenodd" clip-rule="evenodd" d="M20 12C20 16.4183 16.4183 20 12 20C7.58172 20 4 16.4183 4 12C4 7.58172 7.58172 4 12 4C16.4183 4 20 7.58172 20 12ZM7.43934 7.43934C8.02513 6.85355 8.97487 6.85355 9.56066 7.43934L12 9.87868L14.4393 7.43934C15.0251 6.85355 15.9749 6.85355 16.5607 7.43934C17.1464 8.02513 17.1464 8.97487 16.5607 9.56066L14.1213 12L16.5607 14.4393C17.1464 15.0251 17.1464 15.9749 16.5607 16.5607C15.9749 17.1464 15.0251 17.1464 14.4393 16.5607L12 14.1213L9.56066 16.5607C8.97487 17.1464 8.02513 17.1464 7.43934 16.5607C6.85355 15.9749 6.85355 15.0251 7.43934 14.4393L9.87868 12L7.43934 9.56066C6.85355 8.97487 6.85355 8.02513 7.43934 7.43934Z" fill="black" stroke="black" stroke-width="1.5"/>
</g>
</svg>
