<svg width="24" height="24" viewBox="0 0 24 24" fill="none" xmlns="http://www.w3.org/2000/svg">
<g id="Interface/S/Home">
<path id="Tone_Alpha_1" fill-rule="evenodd" clip-rule="evenodd" d="M11.1694 2.73464C11.643 2.31365 12.3567 2.31365 12.8303 2.73463L21.4983 10.4394C21.8079 10.7146 21.8357 11.1887 21.5606 11.4983C21.2854 11.8079 20.8113 11.8357 20.5017 11.5606L11.9998 4.00339L3.49818 11.5605C3.18859 11.8357 2.71454 11.8078 2.43935 11.4982C2.16416 11.1886 2.19204 10.7145 2.50163 10.4394L11.1694 2.73464ZM9.25 13C9.25 12.0335 10.0335 11.25 11 11.25L13 11.25C13.9665 11.25 14.75 12.0335 14.75 13L14.75 18.75H17C17.1381 18.75 17.25 18.6381 17.25 18.5V12C17.25 11.5858 17.5858 11.25 18 11.25C18.4142 11.25 18.75 11.5858 18.75 12V18.5C18.75 19.4665 17.9665 20.25 17 20.25L7.00002 20.25C6.03352 20.25 5.25002 19.4665 5.25002 18.5V12C5.25002 11.5858 5.5858 11.25 6.00002 11.25C6.41423 11.25 6.75002 11.5858 6.75002 12V18.5C6.75002 18.6381 6.86195 18.75 7.00002 18.75L9.25 18.75L9.25 13ZM10.75 18.75L13.25 18.75L13.25 13C13.25 12.8619 13.1381 12.75 13 12.75L11 12.75C10.8619 12.75 10.75 12.8619 10.75 13L10.75 18.75Z" fill="black"/>
</g>
</svg>
