<svg width="16" height="16" viewBox="0 0 16 16" fill="none" xmlns="http://www.w3.org/2000/svg">
<path d="M14 8C14 11.3137 11.3137 14 8 14C4.68629 14 2 11.3137 2 8C2 4.68629 4.68629 2 8 2C11.3137 2 14 4.68629 14 8Z" stroke="black" stroke-width="1.5"/>
<path fill-rule="evenodd" clip-rule="evenodd" d="M7.75 3.75C7.5418 3.75 7.34297 3.83654 7.2011 3.98891C7.05922 4.14128 6.98707 4.34577 7.0019 4.55344L7.2519 8.05344C7.27994 8.44591 7.60652 8.75 8 8.75C8.39348 8.75 8.72006 8.44591 8.74809 8.05344L8.99809 4.55344C9.01292 4.34577 8.94077 4.14128 8.79889 3.98891C8.65702 3.83654 8.45819 3.75 8.25 3.75H7.75ZM8.99998 10.9733C8.99998 10.421 8.55227 9.97328 7.99998 9.97328C7.4477 9.97328 6.99998 10.421 6.99998 10.9733V11C6.99998 11.5523 7.4477 12 7.99998 12C8.55227 12 8.99998 11.5523 8.99998 11V10.9733Z" fill="black"/>
</svg>
