<svg width="24" height="24" viewBox="0 0 24 24" fill="none" xmlns="http://www.w3.org/2000/svg">
<g id="Interface/S/Warning">
<path id="ToneAlpha1" d="M11.75 8V7.25C11.543 7.25 11.3451 7.33558 11.2034 7.48648C11.0616 7.63737 10.9885 7.84015 11.0015 8.04678L11.75 8ZM12 12L11.2515 12.0468C11.2762 12.4421 11.604 12.75 12 12.75C12.396 12.75 12.7238 12.4421 12.7485 12.0468L12 12ZM12.25 8L12.9985 8.04678C13.0115 7.84015 12.9384 7.63737 12.7966 7.48648C12.6549 7.33558 12.457 7.25 12.25 7.25V8ZM11.25 15.5C11.25 15.9142 11.5858 16.25 12 16.25C12.4142 16.25 12.75 15.9142 12.75 15.5H11.25ZM12.75 15.4733C12.75 15.0591 12.4142 14.7233 12 14.7233C11.5858 14.7233 11.25 15.0591 11.25 15.4733H12.75ZM19.25 12C19.25 16.0041 16.0041 19.25 12 19.25V20.75C16.8325 20.75 20.75 16.8325 20.75 12H19.25ZM12 19.25C7.99594 19.25 4.75 16.0041 4.75 12H3.25C3.25 16.8325 7.16751 20.75 12 20.75V19.25ZM4.75 12C4.75 7.99594 7.99594 4.75 12 4.75V3.25C7.16751 3.25 3.25 7.16751 3.25 12H4.75ZM12 4.75C16.0041 4.75 19.25 7.99594 19.25 12H20.75C20.75 7.16751 16.8325 3.25 12 3.25V4.75ZM11.0015 8.04678L11.2515 12.0468L12.7485 11.9532L12.4985 7.95322L11.0015 8.04678ZM11.5015 7.95322L11.2515 11.9532L12.7485 12.0468L12.9985 8.04678L11.5015 7.95322ZM11.75 8.75H12.25V7.25H11.75V8.75ZM12.75 15.5V15.4733H11.25V15.5H12.75Z" fill="black"/>
</g>
</svg>
