<svg width="24" height="24" viewBox="0 0 24 24" fill="none" xmlns="http://www.w3.org/2000/svg">
<g id="Interface/S/Trash">
<path id="ToneAlpha1" d="M14.657 9.23108L14.3215 17.5386M9.67855 17.5386L9.34303 9.23108M19 6H20M19 6L18 19C17.9577 19.5217 17.6835 20.0919 17.28 20.4473C16.8766 20.8028 16.5497 21.0001 16 21H8C7.45028 21.0001 7.12342 20.8028 6.71998 20.4473C6.31654 20.0919 6.04227 19.5217 6 19L5 6M19 6H16M5 6H4M5 6H8M16 6V5C16 3.9108 15.1442 3.03415 14 3C12.9271 2.96736 11.0729 2.99184 10 3.02448C8.85576 3.05863 8 3.91172 8 5V6M16 6H8" stroke="black" stroke-width="1.5" stroke-linecap="round" stroke-linejoin="round"/>
</g>
</svg>
