<svg width="24" height="24" viewBox="0 0 24 24" fill="none" xmlns="http://www.w3.org/2000/svg">
<path d="M21 12C21 12 18.2242 18 12 18C5.77584 18 3 12 3 12" stroke="black" stroke-width="1.5" stroke-linecap="round" stroke-linejoin="round"/>
<path d="M14.2724 19.6819C14.3729 20.0837 14.7801 20.3281 15.1819 20.2276C15.5838 20.1271 15.8281 19.7199 15.7276 19.3181L14.2724 19.6819ZM15.7276 19.3181L15.2276 17.3181L13.7724 17.6819L14.2724 19.6819L15.7276 19.3181Z" fill="black"/>
<path d="M9.72761 19.6819C9.62714 20.0838 9.21994 20.3281 8.81809 20.2276C8.41625 20.1271 8.17193 19.7199 8.27239 19.3181L9.72761 19.6819ZM8.27239 19.3181L8.77241 17.3181L10.2276 17.6819L9.72761 19.6819L8.27239 19.3181Z" fill="black"/>
<path d="M19.9697 17.0303C20.2626 17.3232 20.7374 17.3232 21.0303 17.0303C21.3232 16.7374 21.3232 16.2626 21.0303 15.9697L19.9697 17.0303ZM21.0303 15.9697L19.5303 14.4697L18.4697 15.5303L19.9697 17.0303L21.0303 15.9697Z" fill="black"/>
<path d="M4.02805 17.0326C3.73391 17.3242 3.25904 17.3222 2.9674 17.0281C2.67577 16.7339 2.6778 16.259 2.97195 15.9674L4.02805 17.0326ZM2.97195 15.9674L4.48486 14.4674L5.54096 15.5326L4.02805 17.0326L2.97195 15.9674Z" fill="black"/>
</svg>
