<svg width="16" height="16" viewBox="0 0 16 16" fill="none" xmlns="http://www.w3.org/2000/svg">
<path d="M6.5 3C6.5 3.55228 6.05228 4 5.5 4C4.94772 4 4.5 3.55228 4.5 3C4.5 2.44772 4.94772 2 5.5 2C6.05228 2 6.5 2.44772 6.5 3Z" fill="black"/>
<path d="M6.5 8C6.5 8.55228 6.05228 9 5.5 9C4.94772 9 4.5 8.55228 4.5 8C4.5 7.44772 4.94772 7 5.5 7C6.05228 7 6.5 7.44772 6.5 8Z" fill="black"/>
<path d="M6.5 13C6.5 13.5523 6.05228 14 5.5 14C4.94772 14 4.5 13.5523 4.5 13C4.5 12.4477 4.94772 12 5.5 12C6.05228 12 6.5 12.4477 6.5 13Z" fill="black"/>
<path d="M11.5 3C11.5 3.55228 11.0523 4 10.5 4C9.94772 4 9.5 3.55228 9.5 3C9.5 2.44772 9.94772 2 10.5 2C11.0523 2 11.5 2.44772 11.5 3Z" fill="black"/>
<path d="M11.5 8C11.5 8.55228 11.0523 9 10.5 9C9.94772 9 9.5 8.55228 9.5 8C9.5 7.44772 9.94772 7 10.5 7C11.0523 7 11.5 7.44772 11.5 8Z" fill="black"/>
<path d="M11.5 13C11.5 13.5523 11.0523 14 10.5 14C9.94772 14 9.5 13.5523 9.5 13C9.5 12.4477 9.94772 12 10.5 12C11.0523 12 11.5 12.4477 11.5 13Z" fill="black"/>
<path d="M6.5 3C6.5 3.55228 6.05228 4 5.5 4C4.94772 4 4.5 3.55228 4.5 3C4.5 2.44772 4.94772 2 5.5 2C6.05228 2 6.5 2.44772 6.5 3Z" stroke="black" stroke-width="1.5"/>
<path d="M6.5 8C6.5 8.55228 6.05228 9 5.5 9C4.94772 9 4.5 8.55228 4.5 8C4.5 7.44772 4.94772 7 5.5 7C6.05228 7 6.5 7.44772 6.5 8Z" stroke="black" stroke-width="1.5"/>
<path d="M6.5 13C6.5 13.5523 6.05228 14 5.5 14C4.94772 14 4.5 13.5523 4.5 13C4.5 12.4477 4.94772 12 5.5 12C6.05228 12 6.5 12.4477 6.5 13Z" stroke="black" stroke-width="1.5"/>
<path d="M11.5 3C11.5 3.55228 11.0523 4 10.5 4C9.94772 4 9.5 3.55228 9.5 3C9.5 2.44772 9.94772 2 10.5 2C11.0523 2 11.5 2.44772 11.5 3Z" stroke="black" stroke-width="1.5"/>
<path d="M11.5 8C11.5 8.55228 11.0523 9 10.5 9C9.94772 9 9.5 8.55228 9.5 8C9.5 7.44772 9.94772 7 10.5 7C11.0523 7 11.5 7.44772 11.5 8Z" stroke="black" stroke-width="1.5"/>
<path d="M11.5 13C11.5 13.5523 11.0523 14 10.5 14C9.94772 14 9.5 13.5523 9.5 13C9.5 12.4477 9.94772 12 10.5 12C11.0523 12 11.5 12.4477 11.5 13Z" stroke="black" stroke-width="1.5"/>
</svg>
