<svg width="16" height="16" viewBox="0 0 16 16" fill="none" xmlns="http://www.w3.org/2000/svg">
<path d="M3 6C3.82843 6 4.5 5.32843 4.5 4.5C4.5 3.67157 3.82843 3 3 3M3 6C2.17157 6 1.5 5.32843 1.5 4.5C1.5 3.67157 2.17157 3 3 3M3 6V14M3 3V2M8 13C8.82843 13 9.5 12.3284 9.5 11.5C9.5 10.6716 8.82843 10 8 10M8 13C7.17157 13 6.5 12.3284 6.5 11.5C6.5 10.6716 7.17157 10 8 10M8 13V14M8 10V2M13 9.5C13.8284 9.5 14.5 8.82843 14.5 8C14.5 7.17157 13.8284 6.5 13 6.5M13 9.5C12.1716 9.5 11.5 8.82843 11.5 8C11.5 7.17157 12.1716 6.5 13 6.5M13 9.5V14M13 6.5V2" stroke="black" stroke-width="1.5" stroke-linecap="round"/>
</svg>
