<svg width="24" height="24" viewBox="0 0 24 24" fill="none" xmlns="http://www.w3.org/2000/svg">
<path d="M6 6V5M6 6C7.10457 6 8 6.89543 8 8C8 9.10457 7.10457 10 6 10M6 6C4.89543 6 4 6.89543 4 8C4 9.10457 4.89543 10 6 10M6 19V10M12 14V5M12 14C13.1046 14 14 14.8954 14 16C14 17.1046 13.1046 18 12 18M12 14C10.8954 14 10 14.8954 10 16C10 17.1046 10.8954 18 12 18M12 19V18M18 14V19M18 14C19.1046 14 20 13.1046 20 12C20 10.8954 19.1046 10 18 10M18 14C16.8954 14 16 13.1046 16 12C16 10.8954 16.8954 10 18 10M18 5V10" stroke="black" stroke-width="1.5" stroke-linecap="round"/>
</svg>
