<?xml version="1.0" encoding="utf-8"?>
<svg xmlns="http://www.w3.org/2000/svg" xmlns:xlink="http://www.w3.org/1999/xlink">
    <symbol fill="inherit" viewBox="0 0 16 16" id="snack-uikit-alarm-filled-s" xmlns="http://www.w3.org/2000/svg">
        <path fill-rule="evenodd"
              d="M7.48 1.269c-1.389.143-2.48.556-3.533 1.339-.373.277-1.058.956-1.324 1.312-1.585 2.124-1.815 4.895-.599 7.213.336.641.653 1.065 1.215 1.628.563.562.987.879 1.628 1.215a6.745 6.745 0 0 0 6.266 0c.641-.336 1.065-.653 1.628-1.215.698-.698 1.136-1.35 1.488-2.214a6.754 6.754 0 0 0-.273-5.68c-.333-.635-.651-1.063-1.202-1.616-1.068-1.072-2.307-1.699-3.814-1.931-.268-.041-1.247-.074-1.48-.051M8.508 3.8a.726.726 0 0 1 .479.685c.001.4-.242 3.612-.283 3.753-.084.284-.395.509-.704.509-.309 0-.62-.225-.704-.509-.042-.142-.284-3.355-.283-3.759a.724.724 0 0 1 .47-.677c.15-.055.87-.056 1.025-.002m-.161 6.266a.998.998 0 0 1 .588.597c.045.122.054.196.047.391-.007.208-.021.265-.096.419-.102.207-.27.369-.486.469-.125.058-.184.069-.4.069-.216 0-.275-.011-.4-.069a1.005 1.005 0 0 1-.486-.47c-.083-.168-.087-.193-.087-.472 0-.268.006-.305.073-.432.142-.27.358-.45.634-.527.172-.048.435-.037.613.025"/>
    </symbol>
    <symbol fill="inherit" viewBox="0 0 16 16" id="snack-uikit-alarm-filled-xs" xmlns="http://www.w3.org/2000/svg">
        <path fill-rule="evenodd"
              d="M7.48 1.269c-1.389.143-2.48.556-3.533 1.339-.373.277-1.058.956-1.324 1.312-1.585 2.124-1.815 4.895-.599 7.213.336.641.653 1.065 1.215 1.628.563.562.987.879 1.628 1.215a6.745 6.745 0 0 0 6.266 0c.641-.336 1.065-.653 1.628-1.215.698-.698 1.136-1.35 1.488-2.214a6.754 6.754 0 0 0-.273-5.68c-.333-.635-.651-1.063-1.202-1.616-1.068-1.072-2.307-1.699-3.814-1.931-.268-.041-1.247-.074-1.48-.051M8.508 3.8a.726.726 0 0 1 .479.685c.001.4-.242 3.612-.283 3.753-.084.284-.395.509-.704.509-.309 0-.62-.225-.704-.509-.042-.142-.284-3.355-.283-3.759a.724.724 0 0 1 .47-.677c.15-.055.87-.056 1.025-.002m-.161 6.266a.998.998 0 0 1 .588.597c.045.122.054.196.047.391-.007.208-.021.265-.096.419-.102.207-.27.369-.486.469-.125.058-.184.069-.4.069-.216 0-.275-.011-.4-.069a1.005 1.005 0 0 1-.486-.47c-.083-.168-.087-.193-.087-.472 0-.268.006-.305.073-.432.142-.27.358-.45.634-.527.172-.048.435-.037.613.025"/>
    </symbol>
    <symbol fill="inherit" viewBox="0 0 16 16" id="snack-uikit-arrow-down-s" xmlns="http://www.w3.org/2000/svg">
        <path fill-rule="evenodd"
              d="M7.691 2.318a.825.825 0 0 0-.374.386l-.063.136v4.173l-.001 4.173-1.406-1.405C4.78 8.716 4.411 8.363 4.32 8.322c-.161-.072-.475-.075-.629-.004A.78.78 0 0 0 3.254 9c0 .329-.079.239 2.221 2.539C7.774 13.838 7.662 13.741 8 13.741c.338 0 .226.097 2.524-2.202 1.492-1.493 2.101-2.12 2.144-2.206a.857.857 0 0 0 .073-.297.525.525 0 0 0-.054-.322.824.824 0 0 0-.378-.396c-.154-.071-.468-.068-.629.004-.091.041-.46.394-1.527 1.459l-1.406 1.405-.001-4.173V2.84l-.063-.136a.825.825 0 0 0-.374-.386.962.962 0 0 0-.618 0"/>
    </symbol>
    <symbol fill="inherit" viewBox="0 0 16 16" id="snack-uikit-arrow-down-xs" xmlns="http://www.w3.org/2000/svg">
        <path fill-rule="evenodd"
              d="M7.691 2.318a.825.825 0 0 0-.374.386l-.063.136v4.173l-.001 4.173-1.406-1.405C4.78 8.716 4.411 8.363 4.32 8.322c-.161-.072-.475-.075-.629-.004A.78.78 0 0 0 3.254 9c0 .329-.079.239 2.221 2.539C7.774 13.838 7.662 13.741 8 13.741c.338 0 .226.097 2.524-2.202 1.492-1.493 2.101-2.12 2.144-2.206a.857.857 0 0 0 .073-.297.525.525 0 0 0-.054-.322.824.824 0 0 0-.378-.396c-.154-.071-.468-.068-.629.004-.091.041-.46.394-1.527 1.459l-1.406 1.405-.001-4.173V2.84l-.063-.136a.825.825 0 0 0-.374-.386.962.962 0 0 0-.618 0"/>
    </symbol>
    <symbol fill="inherit" viewBox="0 0 16 16" id="snack-uikit-arrow-left-s" xmlns="http://www.w3.org/2000/svg">
        <path fill-rule="evenodd"
              d="M6.765 3.29a1.146 1.146 0 0 0-.2.107c-.054.037-1.019.99-2.144 2.116C2.166 7.769 2.259 7.663 2.259 8c0 .338-.097.226 2.202 2.525 1.793 1.793 2.106 2.095 2.232 2.153.285.132.611.07.84-.159A.691.691 0 0 0 7.741 12c0-.329.031-.292-1.522-1.847L4.814 8.747l4.173-.001h4.173l.136-.063A.727.727 0 0 0 13.741 8a.736.736 0 0 0-.415-.673l-.113-.06-4.199-.007-4.199-.007L6.22 5.846C7.772 4.292 7.741 4.329 7.741 4a.729.729 0 0 0-.415-.67.862.862 0 0 0-.561-.04"/>
    </symbol>
    <symbol fill="inherit" viewBox="0 0 16 16" id="snack-uikit-arrow-left-xs" xmlns="http://www.w3.org/2000/svg">
        <path fill-rule="evenodd"
              d="M6.765 3.29a1.146 1.146 0 0 0-.2.107c-.054.037-1.019.99-2.144 2.116C2.166 7.769 2.259 7.663 2.259 8c0 .338-.097.226 2.202 2.525 1.793 1.793 2.106 2.095 2.232 2.153.285.132.611.07.84-.159A.691.691 0 0 0 7.741 12c0-.329.031-.292-1.522-1.847L4.814 8.747l4.173-.001h4.173l.136-.063A.727.727 0 0 0 13.741 8a.736.736 0 0 0-.415-.673l-.113-.06-4.199-.007-4.199-.007L6.22 5.846C7.772 4.292 7.741 4.329 7.741 4a.729.729 0 0 0-.415-.67.862.862 0 0 0-.561-.04"/>
    </symbol>
    <symbol fill="inherit" viewBox="0 0 16 16" id="snack-uikit-arrow-links-s" xmlns="http://www.w3.org/2000/svg">
        <path fill-rule="evenodd"
              d="M7.813 4.265 4.76 4.28l-.107.058a.751.751 0 0 0 .051 1.347l.136.062 2.173.007 2.172.008L6.78 8.167C4.145 10.804 4.257 10.678 4.258 11c0 .413.33.743.742.743.323 0 .196.112 2.833-2.523l2.405-2.405.008 2.172.007 2.173.062.136c.274.606 1.143.587 1.381-.031.049-.127.051-.247.051-3.278 0-2.534-.007-3.166-.035-3.246-.048-.136-.249-.352-.389-.42a.81.81 0 0 0-.286-.064c-.094-.004-1.544-.001-3.224.008"/>
    </symbol>
    <symbol fill="inherit" viewBox="0 0 16 16" id="snack-uikit-arrow-links-xs" xmlns="http://www.w3.org/2000/svg">
        <path fill-rule="evenodd"
              d="M7.813 4.265 4.76 4.28l-.107.058a.751.751 0 0 0 .051 1.347l.136.062 2.173.007 2.172.008L6.78 8.167C4.145 10.804 4.257 10.678 4.258 11c0 .413.33.743.742.743.323 0 .196.112 2.833-2.523l2.405-2.405.008 2.172.007 2.173.062.136c.274.606 1.143.587 1.381-.031.049-.127.051-.247.051-3.278 0-2.534-.007-3.166-.035-3.246-.048-.136-.249-.352-.389-.42a.81.81 0 0 0-.286-.064c-.094-.004-1.544-.001-3.224.008"/>
    </symbol>
    <symbol fill="inherit" viewBox="0 0 16 16" id="snack-uikit-arrow-right-s" xmlns="http://www.w3.org/2000/svg">
        <path fill-rule="evenodd"
              d="M8.765 3.29a.814.814 0 0 0-.473.457.92.92 0 0 0-.032.254c-.002.327-.033.29 1.52 1.845l1.405 1.407-4.199.007-4.199.007-.113.06A.736.736 0 0 0 2.259 8c0 .305.159.55.445.683l.136.063h4.173l4.173.001-1.405 1.406C8.228 11.708 8.259 11.671 8.259 12a.74.74 0 0 0 1.048.678c.126-.058.439-.36 2.232-2.153C13.838 8.226 13.741 8.338 13.741 8c0-.338.097-.226-2.202-2.524-1.493-1.492-2.12-2.101-2.206-2.144-.15-.075-.424-.095-.568-.042"/>
    </symbol>
    <symbol fill="inherit" viewBox="0 0 16 16" id="snack-uikit-arrow-right-xs" xmlns="http://www.w3.org/2000/svg">
        <path fill-rule="evenodd"
              d="M8.765 3.29a.814.814 0 0 0-.473.457.92.92 0 0 0-.032.254c-.002.327-.033.29 1.52 1.845l1.405 1.407-4.199.007-4.199.007-.113.06A.736.736 0 0 0 2.259 8c0 .305.159.55.445.683l.136.063h4.173l4.173.001-1.405 1.406C8.228 11.708 8.259 11.671 8.259 12a.74.74 0 0 0 1.048.678c.126-.058.439-.36 2.232-2.153C13.838 8.226 13.741 8.338 13.741 8c0-.338.097-.226-2.202-2.524-1.493-1.492-2.12-2.101-2.206-2.144-.15-.075-.424-.095-.568-.042"/>
    </symbol>
    <symbol fill="inherit" viewBox="0 0 16 16" id="snack-uikit-arrow-up-s" xmlns="http://www.w3.org/2000/svg">
        <path fill-rule="evenodd"
              d="M7.68 2.322c-.093.041-.594.528-2.205 2.139C3.681 6.254 3.38 6.567 3.322 6.693a.736.736 0 0 0 .159.84.691.691 0 0 0 .519.208c.329 0 .292.031 1.847-1.522l1.406-1.405.001 4.173v4.173l.063.136a.727.727 0 0 0 .683.445c.292 0 .53-.146.673-.415l.06-.113.007-4.199.007-4.199 1.407 1.405C11.708 7.772 11.671 7.741 12 7.741c.406 0 .711-.29.741-.705.025-.351.127-.232-2.215-2.575C8.914 2.85 8.413 2.363 8.32 2.322A.732.732 0 0 0 8 2.268a.732.732 0 0 0-.32.054"/>
    </symbol>
    <symbol fill="inherit" viewBox="0 0 16 16" id="snack-uikit-arrow-up-xs" xmlns="http://www.w3.org/2000/svg">
        <path fill-rule="evenodd"
              d="M7.68 2.322c-.093.041-.594.528-2.205 2.139C3.681 6.254 3.38 6.567 3.322 6.693a.736.736 0 0 0 .159.84.691.691 0 0 0 .519.208c.329 0 .292.031 1.847-1.522l1.406-1.405.001 4.173v4.173l.063.136a.727.727 0 0 0 .683.445c.292 0 .53-.146.673-.415l.06-.113.007-4.199.007-4.199 1.407 1.405C11.708 7.772 11.671 7.741 12 7.741c.406 0 .711-.29.741-.705.025-.351.127-.232-2.215-2.575C8.914 2.85 8.413 2.363 8.32 2.322A.732.732 0 0 0 8 2.268a.732.732 0 0 0-.32.054"/>
    </symbol>
    <symbol fill="inherit" viewBox="0 0 16 16" id="snack-uikit-calendar-s" xmlns="http://www.w3.org/2000/svg">
        <path fill-rule="evenodd"
              d="M4.68.33a.738.738 0 0 0-.365.377c-.059.126-.062.168-.07.846l-.009.714h-.761c-.865 0-.95.012-1.3.194a1.82 1.82 0 0 0-.849 1.019l-.059.187v8.666l.059.187c.153.484.56.924 1.026 1.109.331.132.194.129 5.648.129s5.317.003 5.648-.129a1.866 1.866 0 0 0 1.026-1.096l.059-.173.007-4.273c.008-4.683.015-4.471-.149-4.818a1.8 1.8 0 0 0-.807-.829c-.312-.159-.413-.173-1.259-.173h-.761l-.009-.714c-.008-.678-.011-.72-.07-.846A.71.71 0 0 0 11 .267a.71.71 0 0 0-.685.44c-.059.126-.062.168-.07.846l-.009.714H5.764l-.009-.714c-.008-.678-.011-.72-.07-.846A.71.71 0 0 0 5 .267a.666.666 0 0 0-.32.063m-.431 3.644c.019.254.081.407.218.545a.74.74 0 0 0 1.066 0c.137-.138.199-.291.218-.545l.017-.214h4.464l.017.214c.019.254.081.407.218.545a.74.74 0 0 0 1.066 0c.137-.138.199-.291.218-.545l.017-.214h.661c.661 0 .661 0 .736.064l.075.065.007 1.189.008 1.189-5.248-.007-5.247-.007V3.889l.075-.065c.075-.064.075-.064.736-.064h.661zm8.998 5.957c-.007 2.089-.009 2.172-.058 2.226a.368.368 0 0 1-.146.083c-.132.036-9.954.036-10.086 0a.368.368 0 0 1-.146-.083c-.049-.054-.051-.137-.058-2.226L2.746 7.76h10.508z"/>
    </symbol>
    <symbol fill="inherit" viewBox="0 0 16 16" id="snack-uikit-calendar-xs" xmlns="http://www.w3.org/2000/svg">
        <path fill-rule="evenodd"
              d="M4.68.33a.738.738 0 0 0-.365.377c-.059.126-.062.168-.07.846l-.009.714h-.761c-.865 0-.95.012-1.3.194a1.82 1.82 0 0 0-.849 1.019l-.059.187v8.666l.059.187c.153.484.56.924 1.026 1.109.331.132.194.129 5.648.129s5.317.003 5.648-.129a1.866 1.866 0 0 0 1.026-1.096l.059-.173.007-4.273c.008-4.683.015-4.471-.149-4.818a1.8 1.8 0 0 0-.807-.829c-.312-.159-.413-.173-1.259-.173h-.761l-.009-.714c-.008-.678-.011-.72-.07-.846A.71.71 0 0 0 11 .267a.71.71 0 0 0-.685.44c-.059.126-.062.168-.07.846l-.009.714H5.764l-.009-.714c-.008-.678-.011-.72-.07-.846A.71.71 0 0 0 5 .267a.666.666 0 0 0-.32.063m-.431 3.644c.019.254.081.407.218.545a.74.74 0 0 0 1.066 0c.137-.138.199-.291.218-.545l.017-.214h4.464l.017.214c.019.254.081.407.218.545a.74.74 0 0 0 1.066 0c.137-.138.199-.291.218-.545l.017-.214h.661c.661 0 .661 0 .736.064l.075.065.007 1.189.008 1.189-5.248-.007-5.247-.007V3.889l.075-.065c.075-.064.075-.064.736-.064h.661zm8.998 5.957c-.007 2.089-.009 2.172-.058 2.226a.368.368 0 0 1-.146.083c-.132.036-9.954.036-10.086 0a.368.368 0 0 1-.146-.083c-.049-.054-.051-.137-.058-2.226L2.746 7.76h10.508z"/>
    </symbol>
    <symbol fill="inherit" viewBox="0 0 16 16" id="snack-uikit-check-filled-s" xmlns="http://www.w3.org/2000/svg">
        <path fill-rule="evenodd"
              d="M7.48 1.269c-1.389.143-2.48.556-3.533 1.339-.373.277-1.058.956-1.324 1.312-1.585 2.124-1.815 4.895-.599 7.213.336.641.653 1.065 1.215 1.628.563.562.987.879 1.628 1.215a6.745 6.745 0 0 0 6.266 0c.641-.336 1.065-.653 1.628-1.215.698-.698 1.136-1.35 1.488-2.214a6.754 6.754 0 0 0-.273-5.68c-.333-.635-.651-1.063-1.202-1.616-1.068-1.072-2.307-1.699-3.814-1.931-.268-.041-1.247-.074-1.48-.051m4.09 3.937c.33.155.495.529.391.89l-.045.157-2.245 2.248c-1.515 1.517-2.279 2.264-2.351 2.298a.712.712 0 0 1-.523.04l-.17-.047-1.236-1.229c-.904-.9-1.254-1.265-1.305-1.363-.057-.109-.07-.17-.07-.333-.001-.172.01-.221.077-.343a.742.742 0 0 1 .883-.365c.154.045.175.063 1.091.976l.934.931L8.88 7.185c1.034-1.035 1.93-1.911 1.991-1.948a.754.754 0 0 1 .699-.031"/>
    </symbol>
    <symbol fill="inherit" viewBox="0 0 16 16" id="snack-uikit-check-filled-xs" xmlns="http://www.w3.org/2000/svg">
        <path fill-rule="evenodd"
              d="M7.48 1.269c-1.389.143-2.48.556-3.533 1.339-.373.277-1.058.956-1.324 1.312-1.585 2.124-1.815 4.895-.599 7.213.336.641.653 1.065 1.215 1.628.563.562.987.879 1.628 1.215a6.745 6.745 0 0 0 6.266 0c.641-.336 1.065-.653 1.628-1.215.698-.698 1.136-1.35 1.488-2.214a6.754 6.754 0 0 0-.273-5.68c-.333-.635-.651-1.063-1.202-1.616-1.068-1.072-2.307-1.699-3.814-1.931-.268-.041-1.247-.074-1.48-.051m4.09 3.937c.33.155.495.529.391.89l-.045.157-2.245 2.248c-1.515 1.517-2.279 2.264-2.351 2.298a.712.712 0 0 1-.523.04l-.17-.047-1.236-1.229c-.904-.9-1.254-1.265-1.305-1.363-.057-.109-.07-.17-.07-.333-.001-.172.01-.221.077-.343a.742.742 0 0 1 .883-.365c.154.045.175.063 1.091.976l.934.931L8.88 7.185c1.034-1.035 1.93-1.911 1.991-1.948a.754.754 0 0 1 .699-.031"/>
    </symbol>
</svg>