<svg width="16" height="16" viewBox="0 0 16 16" fill="none" xmlns="http://www.w3.org/2000/svg">
<g id="Interface/Xs/Kebab ">
<g id="ToneAlpha1">
<path d="M8.66667 2.99998C8.66667 3.36817 8.36819 3.66665 8 3.66665C7.63181 3.66665 7.33334 3.36817 7.33334 2.99998C7.33334 2.63179 7.63181 2.33331 8 2.33331C8.36819 2.33331 8.66667 2.63179 8.66667 2.99998Z" fill="black"/>
<path d="M8.66667 7.99998C8.66667 8.36817 8.36819 8.66665 8 8.66665C7.63181 8.66665 7.33334 8.36817 7.33334 7.99998C7.33334 7.63179 7.63181 7.33331 8 7.33331C8.36819 7.33331 8.66667 7.63179 8.66667 7.99998Z" fill="black"/>
<path d="M8.66667 13C8.66667 13.3682 8.36819 13.6666 8 13.6666C7.63181 13.6666 7.33334 13.3682 7.33334 13C7.33334 12.6318 7.63181 12.3333 8 12.3333C8.36819 12.3333 8.66667 12.6318 8.66667 13Z" fill="black"/>
<path d="M8.66667 2.99998C8.66667 3.36817 8.36819 3.66665 8 3.66665C7.63181 3.66665 7.33334 3.36817 7.33334 2.99998C7.33334 2.63179 7.63181 2.33331 8 2.33331C8.36819 2.33331 8.66667 2.63179 8.66667 2.99998Z" stroke="black" stroke-width="1.5"/>
<path d="M8.66667 7.99998C8.66667 8.36817 8.36819 8.66665 8 8.66665C7.63181 8.66665 7.33334 8.36817 7.33334 7.99998C7.33334 7.63179 7.63181 7.33331 8 7.33331C8.36819 7.33331 8.66667 7.63179 8.66667 7.99998Z" stroke="black" stroke-width="1.5"/>
<path d="M8.66667 13C8.66667 13.3682 8.36819 13.6666 8 13.6666C7.63181 13.6666 7.33334 13.3682 7.33334 13C7.33334 12.6318 7.63181 12.3333 8 12.3333C8.36819 12.3333 8.66667 12.6318 8.66667 13Z" stroke="black" stroke-width="1.5"/>
</g>
</g>
</svg>
