<svg width="16" height="16" viewBox="0 0 16 16" fill="none" xmlns="http://www.w3.org/2000/svg">
<path fill-rule="evenodd" clip-rule="evenodd" d="M8 14.75C11.7279 14.75 14.75 11.7279 14.75 8C14.75 4.27208 11.7279 1.25 8 1.25C4.27208 1.25 1.25 4.27208 1.25 8C1.25 11.7279 4.27208 14.75 8 14.75ZM7.2011 3.9889C7.34298 3.83653 7.54181 3.74998 7.75 3.74998H8.25C8.4582 3.74998 8.65702 3.83653 8.7989 3.9889C8.94077 4.14127 9.01293 4.34575 8.9981 4.55342L8.7481 8.05342C8.72006 8.4459 8.39348 8.74998 8 8.74998C7.60652 8.74998 7.27994 8.4459 7.25191 8.05342L7.00191 4.55342C6.98707 4.34575 7.05923 4.14127 7.2011 3.9889ZM7.99999 9.99999C8.55227 9.99999 8.99999 10.4477 8.99999 11V11.0267C8.99999 11.579 8.55227 12.0267 7.99999 12.0267C7.44771 12.0267 6.99999 11.579 6.99999 11.0267V11C6.99999 10.4477 7.44771 9.99999 7.99999 9.99999Z" fill="black"/>
</svg>
