<svg width="24" height="24" viewBox="0 0 24 24" fill="none" xmlns="http://www.w3.org/2000/svg">
<path fill-rule="evenodd" clip-rule="evenodd" d="M20.75 7C20.75 4.92893 19.0711 3.25 17 3.25H10C8.16365 3.25 6.63559 4.56994 6.31282 6.31282C4.56994 6.6356 3.25 8.16365 3.25 10L3.25 17C3.25 19.0711 4.92893 20.75 7 20.75H14C15.8363 20.75 17.3644 19.4301 17.6872 17.6872C19.4301 17.3644 20.75 15.8363 20.75 14V7ZM17.75 16.122C18.6239 15.8131 19.25 14.9797 19.25 14V7C19.25 5.75736 18.2426 4.75 17 4.75L10 4.75C9.02033 4.75 8.1869 5.37611 7.87803 6.25L14 6.25C16.0711 6.25 17.75 7.92893 17.75 10V16.122ZM14 7.75C15.2426 7.75 16.25 8.75736 16.25 10L16.25 17C16.25 18.2426 15.2426 19.25 14 19.25H7C5.75736 19.25 4.75 18.2426 4.75 17L4.75 10C4.75 8.75736 5.75736 7.75 7 7.75L14 7.75Z" fill="black"/>
</svg>
