<svg width="16" height="16" viewBox="0 0 16 16" fill="none" xmlns="http://www.w3.org/2000/svg">
<path fill-rule="evenodd" clip-rule="evenodd" d="M14.75 4C14.75 2.48122 13.5188 1.25 12 1.25H7C5.48122 1.25 4.25 2.48122 4.25 4V4.25H4C2.48122 4.25 1.25 5.48122 1.25 7V12C1.25 13.5188 2.48122 14.75 4 14.75H9C10.5188 14.75 11.75 13.5188 11.75 12V11.75H12C13.5188 11.75 14.75 10.5188 14.75 9V4ZM11.75 10.25H12C12.6904 10.25 13.25 9.69035 13.25 9V4C13.25 3.30964 12.6904 2.75 12 2.75L7 2.75C6.30965 2.75 5.75 3.30964 5.75 4V4.25L9 4.25C10.5188 4.25 11.75 5.48122 11.75 7V10.25ZM4 13.25C3.30965 13.25 2.75 12.6904 2.75 12L2.75 7C2.75 6.30964 3.30965 5.75 4 5.75L9 5.75C9.69036 5.75 10.25 6.30964 10.25 7V12C10.25 12.6904 9.69036 13.25 9 13.25H4Z" fill="black"/>
</svg>
