<svg width="16" height="16" viewBox="0 0 16 16" fill="none" xmlns="http://www.w3.org/2000/svg">
<path d="M15 8C15 8 12.841 13 8.00001 13C3.15899 13 1 8 1 8" stroke="black" stroke-width="1.5" stroke-linecap="round" stroke-linejoin="round"/>
<path d="M10.3292 14.8354C10.5144 15.2059 10.9649 15.3561 11.3354 15.1708C11.7059 14.9856 11.856 14.5351 11.6708 14.1646L10.3292 14.8354ZM11.6708 14.1646L10.6708 12.1646L9.32918 12.8354L10.3292 14.8354L11.6708 14.1646Z" fill="black"/>
<path d="M5.67084 14.8354C5.4856 15.2059 5.03509 15.3561 4.66461 15.1708C4.29412 14.9856 4.14395 14.5351 4.32919 14.1646L5.67084 14.8354ZM4.32919 14.1646L5.32918 12.1646L6.67082 12.8354L5.67084 14.8354L4.32919 14.1646Z" fill="black"/>
<path d="M14.4697 12.5303C14.7626 12.8232 15.2374 12.8232 15.5303 12.5303C15.8232 12.2374 15.8232 11.7626 15.5303 11.4697L14.4697 12.5303ZM15.5303 11.4697L14.0303 9.96967L12.9697 11.0303L14.4697 12.5303L15.5303 11.4697Z" fill="black"/>
<path d="M1.53033 12.5303C1.23744 12.8232 0.762563 12.8232 0.46967 12.5303C0.176777 12.2374 0.176777 11.7626 0.46967 11.4697L1.53033 12.5303ZM0.46967 11.4697L1.96967 9.96967L3.03033 11.0303L1.53033 12.5303L0.46967 11.4697Z" fill="black"/>
</svg>
