<svg width="16" height="16" viewBox="0 0 16 16" fill="none" xmlns="http://www.w3.org/2000/svg">
<path fill-rule="evenodd" clip-rule="evenodd" d="M14.5606 7.83162C14.2854 8.1412 13.8113 8.16909 13.5017 7.89391L8.16603 3.15112C8.07131 3.06692 7.92857 3.06692 7.83385 3.15112L2.49827 7.8939C2.18868 8.16909 1.71463 8.14121 1.43944 7.83162C1.16425 7.52204 1.19213 7.04798 1.50172 6.77279L6.8373 2.03001C7.50035 1.44063 8.49952 1.44063 9.16257 2.03L14.4983 6.77279C14.8079 7.04797 14.8357 7.52203 14.5606 7.83162ZM4.00001 7.25002C4.41422 7.25002 4.75001 7.5858 4.75001 8.00002V12C4.75001 12.1381 4.86194 12.25 5.00001 12.25L5.75001 12.25L5.75001 9.00002C5.75001 8.03352 6.53351 7.25002 7.50001 7.25002L8.50001 7.25002C9.46651 7.25002 10.25 8.03352 10.25 9.00002V12.25H11C11.1381 12.25 11.25 12.1381 11.25 12V8.00002C11.25 7.5858 11.5858 7.25002 12 7.25002C12.4142 7.25002 12.75 7.5858 12.75 8.00002V12C12.75 12.9665 11.9665 13.75 11 13.75L5.00001 13.75C4.03351 13.75 3.25001 12.9665 3.25001 12V8.00002C3.25001 7.5858 3.5858 7.25002 4.00001 7.25002ZM8.75001 12.25L8.75001 9.00002C8.75001 8.86195 8.63808 8.75002 8.50001 8.75002L7.50001 8.75002C7.36194 8.75002 7.25001 8.86195 7.25001 9.00002L7.25001 12.25L8.75001 12.25Z" fill="black"/>
</svg>
