<svg xmlns="http://www.w3.org/2000/svg" width="24" height="24" viewBox="0 0 24 24" fill="none">
  <path fill-rule="evenodd" clip-rule="evenodd" d="M3.25 12C3.25 7.16751 7.16751 3.25 12 3.25C16.8325 3.25 20.75 7.16751 20.75 12C20.75 16.8325 16.8325 20.75 12 20.75C7.16751 20.75 3.25 16.8325 3.25 12ZM13.0012 8.625C13.0012 8.07272 12.5534 7.625 12.0012 7.625C11.4489 7.625 11.0012 8.07272 11.0012 8.625V8.65173C11.0012 9.20401 11.4489 9.65173 12.0012 9.65173C12.5534 9.65173 13.0012 9.20401 13.0012 8.65173V8.625ZM11.7512 16.375C11.5522 16.375 11.3615 16.296 11.2208 16.1553C11.0802 16.0147 11.0012 15.8239 11.0012 15.625L11.0012 12.5264L10.5851 12.249C10.3101 12.0657 10.1876 11.724 10.2833 11.4077C10.3791 11.0913 10.6707 10.875 11.0012 10.875H12.2512C12.4501 10.875 12.6408 10.954 12.7815 11.0947C12.9221 11.2353 13.0012 11.4261 13.0012 11.625L13.0012 15.625C13.0012 16.0392 12.6654 16.375 12.2512 16.375H11.7512Z" fill="black"/>
</svg>