<svg width="16" height="16" viewBox="0 0 16 16" fill="none" xmlns="http://www.w3.org/2000/svg">
<path fill-rule="evenodd" clip-rule="evenodd" d="M8 14.75C11.7279 14.75 14.75 11.7279 14.75 8C14.75 4.27208 11.7279 1.25 8 1.25C4.27208 1.25 1.25 4.27208 1.25 8C1.25 11.7279 4.27208 14.75 8 14.75ZM7.21966 12.0303C7.36032 12.171 7.55108 12.25 7.74999 12.25H8.24999C8.66421 12.25 8.99999 11.9142 8.99999 11.5L9 7.50001C9 7.30109 8.92098 7.11033 8.78033 6.96968C8.63967 6.82902 8.44891 6.75001 8.25 6.75001H7C6.6695 6.75001 6.37795 6.96635 6.28218 7.28267C6.1864 7.59899 6.30898 7.94072 6.58397 8.12404L7 8.40139L6.99999 11.5C6.99999 11.6989 7.07901 11.8897 7.21966 12.0303ZM8 5.52674C7.44771 5.52674 7 5.07902 7 4.52674V4.50001C7 3.94772 7.44771 3.50001 8 3.50001C8.55228 3.50001 9 3.94772 9 4.50001V4.52674C9 5.07902 8.55228 5.52674 8 5.52674Z" fill="black"/>
</svg>
