<svg width="16" height="16" viewBox="0 0 16 16" fill="none" xmlns="http://www.w3.org/2000/svg">
<path fill-rule="evenodd" clip-rule="evenodd" d="M5.34848 2.59075C6.81294 1.12628 9.18731 1.12629 10.6518 2.59075L13.4092 5.3482C14.8737 6.81267 14.8737 9.18704 13.4092 10.6515L10.6518 13.409C9.18731 14.8734 6.81294 14.8734 5.34848 13.409L2.59103 10.6515C1.12656 9.18704 1.12656 6.81267 2.59103 5.3482L5.34848 2.59075ZM9.59112 3.65141C8.71244 2.77273 7.28782 2.77273 6.40914 3.65141L3.65169 6.40886C2.77301 7.28754 2.77301 8.71216 3.65169 9.59084L6.40914 12.3483C7.28782 13.227 8.71244 13.227 9.59112 12.3483L12.3486 9.59084C13.2272 8.71216 13.2272 7.28754 12.3486 6.40886L9.59112 3.65141Z" fill="black"/>
</svg>
