<svg width="24" height="24" viewBox="0 0 24 24" fill="none" xmlns="http://www.w3.org/2000/svg">
    <path d="M12 14.7C13.4937 14.7 14.7047 13.4912 14.7047 12C14.7047 10.5088 13.4937 9.3 12 9.3C10.5063 9.3 9.29534 10.5088 9.29534 12C9.29534 13.4912 10.5063 14.7 12 14.7Z" stroke="black" stroke-width="1.5"/>
    <path d="M13.5912 3.1368C13.2604 3 12.8402 3 12 3C11.1598 3 10.7396 3 10.4088 3.1368C10.1898 3.22726 9.99094 3.35991 9.8234 3.52715C9.65587 3.6944 9.523 3.89296 9.43238 4.1115C9.34944 4.3122 9.31608 4.5471 9.30346 4.8882C9.29784 5.13479 9.22953 5.37591 9.10495 5.58891C8.98036 5.80192 8.80359 5.97981 8.59123 6.1059C8.37567 6.22654 8.13292 6.29049 7.8858 6.29175C7.63867 6.29301 7.39529 6.23153 7.1785 6.1131C6.87558 5.9529 6.6565 5.8647 6.43923 5.8359C5.9653 5.77368 5.48602 5.90188 5.10673 6.1923C4.82365 6.411 4.61268 6.7737 4.19256 7.5C3.77244 8.2263 3.56147 8.589 3.51549 8.9445C3.48451 9.17891 3.50009 9.41711 3.56135 9.64551C3.62261 9.8739 3.72834 10.088 3.87251 10.2756C4.00594 10.4484 4.19256 10.5933 4.48196 10.7751C4.90839 11.0424 5.18246 11.4978 5.18246 12C5.18246 12.5022 4.90839 12.9576 4.48196 13.224C4.19256 13.4067 4.00504 13.5516 3.87251 13.7244C3.72834 13.912 3.62261 14.1261 3.56135 14.3545C3.50009 14.5829 3.48451 14.8211 3.51549 15.0555C3.56237 15.4101 3.77244 15.7737 4.19166 16.5C4.61268 17.2263 4.82274 17.589 5.10673 17.8077C5.29465 17.9516 5.50913 18.0572 5.73791 18.1183C5.9667 18.1795 6.20532 18.195 6.44013 18.1641C6.6565 18.1353 6.87558 18.0471 7.1785 17.8869C7.39529 17.7685 7.63867 17.707 7.8858 17.7082C8.13292 17.7095 8.37567 17.7735 8.59123 17.8941C9.02668 18.1461 9.28543 18.6096 9.30346 19.1118C9.31608 19.4538 9.34854 19.6878 9.43238 19.8885C9.523 20.107 9.65587 20.3056 9.8234 20.4728C9.99094 20.6401 10.1898 20.7727 10.4088 20.8632C10.7396 21 11.1598 21 12 21C12.8402 21 13.2604 21 13.5912 20.8632C13.8102 20.7727 14.0091 20.6401 14.1766 20.4728C14.3441 20.3056 14.477 20.107 14.5676 19.8885C14.6506 19.6878 14.6839 19.4538 14.6965 19.1118C14.7146 18.6096 14.9733 18.1452 15.4088 17.8941C15.6243 17.7735 15.8671 17.7095 16.1142 17.7082C16.3613 17.707 16.6047 17.7685 16.8215 17.8869C17.1244 18.0471 17.3435 18.1353 17.5599 18.1641C17.7947 18.195 18.0333 18.1795 18.2621 18.1183C18.4909 18.0572 18.7054 17.9516 18.8933 17.8077C19.1773 17.5899 19.3873 17.2263 19.8074 16.5C20.2276 15.7737 20.4385 15.411 20.4845 15.0555C20.5155 14.8211 20.4999 14.5829 20.4386 14.3545C20.3774 14.1261 20.2717 13.912 20.1275 13.7244C19.9941 13.5516 19.8074 13.4067 19.518 13.2249C19.3068 13.0967 19.1317 12.9171 19.0092 12.7028C18.8867 12.4886 18.8207 12.2467 18.8175 12C18.8175 11.4978 19.0916 11.0424 19.518 10.776C19.8074 10.5933 19.995 10.4484 20.1275 10.2756C20.2717 10.088 20.3774 9.8739 20.4386 9.64551C20.4999 9.41711 20.5155 9.17891 20.4845 8.9445C20.4376 8.5899 20.2276 8.2263 19.8083 7.5C19.3873 6.7737 19.1773 6.411 18.8933 6.1923C18.7054 6.04838 18.4909 5.94283 18.2621 5.88168C18.0333 5.82053 17.7947 5.80497 17.5599 5.8359C17.3435 5.8647 17.1244 5.9529 16.8206 6.1131C16.6039 6.23137 16.3607 6.29276 16.1138 6.2915C15.8668 6.29024 15.6242 6.22638 15.4088 6.1059C15.1964 5.97981 15.0196 5.80192 14.8951 5.58891C14.7705 5.37591 14.7022 5.13479 14.6965 4.8882C14.6839 4.5462 14.6515 4.3122 14.5676 4.1115C14.477 3.89296 14.3441 3.6944 14.1766 3.52715C14.0091 3.35991 13.8102 3.22726 13.5912 3.1368Z" stroke="black" stroke-width="1.5"/>
</svg>
