<svg width="16" height="16" viewBox="0 0 16 16" fill="none" xmlns="http://www.w3.org/2000/svg">
    <path d="M8 9.8C9.05441 9.8 9.90917 8.99411 9.90917 8C9.90917 7.00589 9.05441 6.2 8 6.2C6.9456 6.2 6.09083 7.00589 6.09083 8C6.09083 8.99411 6.9456 9.8 8 9.8Z" stroke="black" stroke-width="1.5"/>
    <path d="M9.12323 2.0912C8.88967 2 8.59312 2 8 2C7.40688 2 7.11033 2 6.87677 2.0912C6.72224 2.15151 6.58184 2.23994 6.46358 2.35143C6.34532 2.46293 6.25153 2.59531 6.18756 2.741C6.12901 2.8748 6.10547 3.0314 6.09656 3.2588C6.09259 3.42319 6.04438 3.58394 5.95643 3.72594C5.86849 3.86794 5.74371 3.98654 5.59381 4.0706C5.44165 4.15103 5.2703 4.19366 5.09586 4.1945C4.92142 4.19534 4.74961 4.15436 4.59659 4.0754C4.38276 3.9686 4.22812 3.9098 4.07475 3.8906C3.74021 3.84912 3.40189 3.93458 3.13416 4.1282C2.93434 4.274 2.78542 4.5158 2.48887 5C2.19231 5.4842 2.04339 5.726 2.01094 5.963C1.98907 6.11927 2.00007 6.27807 2.04331 6.43034C2.08655 6.5826 2.16118 6.72534 2.26295 6.8504C2.35713 6.9656 2.48887 7.0622 2.69315 7.1834C2.99416 7.3616 3.18762 7.6652 3.18762 8C3.18762 8.3348 2.99416 8.6384 2.69315 8.816C2.48887 8.9378 2.3565 9.0344 2.26295 9.1496C2.16118 9.27466 2.08655 9.4174 2.04331 9.56966C2.00007 9.72193 1.98907 9.88073 2.01094 10.037C2.04403 10.2734 2.19231 10.5158 2.48823 11C2.78542 11.4842 2.9337 11.726 3.13416 11.8718C3.26681 11.9677 3.41821 12.0381 3.5797 12.0789C3.7412 12.1196 3.90964 12.13 4.07538 12.1094C4.22812 12.0902 4.38276 12.0314 4.59659 11.9246C4.74961 11.8456 4.92142 11.8047 5.09586 11.8055C5.2703 11.8063 5.44165 11.849 5.59381 11.9294C5.90119 12.0974 6.08383 12.4064 6.09656 12.7412C6.10547 12.9692 6.12838 13.1252 6.18756 13.259C6.25153 13.4047 6.34532 13.5371 6.46358 13.6486C6.58184 13.7601 6.72224 13.8485 6.87677 13.9088C7.11033 14 7.40688 14 8 14C8.59312 14 8.88967 14 9.12323 13.9088C9.27776 13.8485 9.41816 13.7601 9.53642 13.6486C9.65468 13.5371 9.74847 13.4047 9.81244 13.259C9.87099 13.1252 9.89453 12.9692 9.90344 12.7412C9.91617 12.4064 10.0988 12.0968 10.4062 11.9294C10.5584 11.849 10.7297 11.8063 10.9041 11.8055C11.0786 11.8047 11.2504 11.8456 11.4034 11.9246C11.6172 12.0314 11.7719 12.0902 11.9246 12.1094C12.0904 12.13 12.2588 12.1196 12.4203 12.0789C12.5818 12.0381 12.7332 11.9677 12.8658 11.8718C13.0663 11.7266 13.2146 11.4842 13.5111 11C13.8077 10.5158 13.9566 10.274 13.9891 10.037C14.0109 9.88073 13.9999 9.72193 13.9567 9.56966C13.9135 9.4174 13.8388 9.27466 13.7371 9.1496C13.6429 9.0344 13.5111 8.9378 13.3069 8.8166C13.1578 8.73117 13.0342 8.6114 12.9477 8.46855C12.8612 8.32571 12.8146 8.16447 12.8124 8C12.8124 7.6652 13.0058 7.3616 13.3069 7.184C13.5111 7.0622 13.6435 6.9656 13.7371 6.8504C13.8388 6.72534 13.9135 6.5826 13.9567 6.43034C13.9999 6.27807 14.0109 6.11927 13.9891 5.963C13.956 5.7266 13.8077 5.4842 13.5118 5C13.2146 4.5158 13.0663 4.274 12.8658 4.1282C12.7332 4.03225 12.5818 3.96189 12.4203 3.92112C12.2588 3.88035 12.0904 3.86998 11.9246 3.8906C11.7719 3.9098 11.6172 3.9686 11.4028 4.0754C11.2498 4.15425 11.0781 4.19517 10.9038 4.19433C10.7295 4.19349 10.5583 4.15092 10.4062 4.0706C10.2563 3.98654 10.1315 3.86794 10.0436 3.72594C9.95563 3.58394 9.90741 3.42319 9.90344 3.2588C9.89453 3.0308 9.87162 2.8748 9.81244 2.741C9.74847 2.59531 9.65468 2.46293 9.53642 2.35143C9.41816 2.23994 9.27776 2.15151 9.12323 2.0912Z" stroke="black" stroke-width="1.5"/>
</svg>
