<svg width="16" height="16" viewBox="0 0 16 16" fill="none" xmlns="http://www.w3.org/2000/svg">
<path fill-rule="evenodd" clip-rule="evenodd" d="M13.5303 3.46967C13.8232 3.76256 13.8232 4.23744 13.5303 4.53033L4.53033 13.5303C4.23743 13.8232 3.76256 13.8232 3.46967 13.5303C3.17677 13.2374 3.17677 12.7626 3.46967 12.4697L12.4697 3.46967C12.7626 3.17678 13.2374 3.17678 13.5303 3.46967ZM13.5303 7.46967C13.8232 7.76256 13.8232 8.23744 13.5303 8.53033L8.53033 13.5303C8.23743 13.8232 7.76256 13.8232 7.46967 13.5303C7.17677 13.2374 7.17677 12.7626 7.46967 12.4697L12.4697 7.46967C12.7626 7.17678 13.2374 7.17678 13.5303 7.46967ZM13.5303 12.5303C13.8232 12.2374 13.8232 11.7626 13.5303 11.4697C13.2374 11.1768 12.7626 11.1768 12.4697 11.4697L11.4697 12.4697C11.1768 12.7626 11.1768 13.2374 11.4697 13.5303C11.7626 13.8232 12.2374 13.8232 12.5303 13.5303L13.5303 12.5303Z" fill="black"/>
</svg>
