<svg width="24" height="24" viewBox="0 0 24 24" fill="none" xmlns="http://www.w3.org/2000/svg">
<g id="Interface/S/Resize">
<path id="Tone_Alpha_1" fill-rule="evenodd" clip-rule="evenodd" d="M21.5303 11.4697C21.8232 11.7626 21.8232 12.2374 21.5303 12.5303L12.5303 21.5303C12.2374 21.8232 11.7626 21.8232 11.4697 21.5303C11.1768 21.2374 11.1768 20.7626 11.4697 20.4697L20.4697 11.4697C20.7626 11.1768 21.2374 11.1768 21.5303 11.4697ZM21.5303 15.4697C21.8232 15.7626 21.8232 16.2374 21.5303 16.5303L16.5303 21.5303C16.2374 21.8232 15.7626 21.8232 15.4697 21.5303C15.1768 21.2374 15.1768 20.7626 15.4697 20.4697L20.4697 15.4697C20.7626 15.1768 21.2374 15.1768 21.5303 15.4697ZM21.5303 19.4697C21.8232 19.7626 21.8232 20.2374 21.5303 20.5303L20.5303 21.5303C20.2374 21.8232 19.7626 21.8232 19.4697 21.5303C19.1768 21.2374 19.1768 20.7626 19.4697 20.4697L20.4697 19.4697C20.7626 19.1768 21.2374 19.1768 21.5303 19.4697Z" fill="black"/>
</g>
</svg>
