<svg width="16" height="16" viewBox="0 0 16 16" fill="none" xmlns="http://www.w3.org/2000/svg">
<g id="Interface/Xs/InfoFilled">
<g id="ToneAlpha1">
<path fill-rule="evenodd" clip-rule="evenodd" d="M14 8C14 11.3137 11.3137 14 8 14C4.68629 14 2 11.3137 2 8C2 4.68629 4.68629 2 8 2C11.3137 2 14 4.68629 14 8ZM6.00001 4.00003C6.00001 2.89546 6.89543 2 8 2C9.10457 2 10 2.89546 10 4.00003C10 5.10459 9.10457 6.00003 8 6.00003C6.89543 6.00003 6.00001 5.10459 6.00001 4.00003ZM9.74344 11.25L9.74344 8.06616C9.74344 6.96159 8.84801 6.06617 7.74344 6.06617H7.10943C6.22392 6.06617 5.50607 6.78402 5.50607 7.66953V7.87381C5.50607 8.30403 5.72942 8.70341 6.09596 8.92864C6.1876 8.98495 6.24344 9.0848 6.24344 9.19235L6.24345 11.25C6.24345 12.2165 7.02695 13 7.99345 13C8.95994 13 9.74345 12.2165 9.74344 11.25Z" fill="black"/>
<path d="M8 2C4.68629 2 2 4.68629 2 8C2 11.3137 4.68629 14 8 14C11.3137 14 14 11.3137 14 8C14 4.68629 11.3137 2 8 2ZM8 2C6.89543 2 6.00001 2.89546 6.00001 4.00003C6.00001 5.10459 6.89543 6.00003 8 6.00003C9.10457 6.00003 10 5.10459 10 4.00003C10 2.89546 9.10457 2 8 2ZM9.74344 8.06616L9.74344 11.25C9.74345 12.2165 8.95994 13 7.99345 13C7.02695 13 6.24345 12.2165 6.24345 11.25L6.24344 9.19235C6.24344 9.0848 6.1876 8.98495 6.09596 8.92864C5.72942 8.70341 5.50607 8.30403 5.50607 7.87381V7.66953C5.50607 6.78402 6.22392 6.06617 7.10943 6.06617H7.74344C8.84801 6.06617 9.74344 6.96159 9.74344 8.06616Z" stroke="black" stroke-width="1.5"/>
</g>
</g>
</svg>
