<svg width="24" height="24" viewBox="0 0 24 24" fill="none" xmlns="http://www.w3.org/2000/svg">
<path fill-rule="evenodd" clip-rule="evenodd" d="M20 12C20 16.4183 16.4183 20 12 20C7.58172 20 4 16.4183 4 12C4 7.58172 7.58172 4 12 4C16.4183 4 20 7.58172 20 12ZM10 7.5C10 6.39543 10.8954 5.5 12 5.5C13.1046 5.5 14 6.39543 14 7.5C14 8.60457 13.1046 9.5 12 9.5C10.8954 9.5 10 8.60457 10 7.5ZM14 16V12C14 10.8954 13.1046 10 12 10H10.4142C9.63316 10 9 10.6332 9 11.4142C9 11.7893 9.149 12.149 9.41421 12.4142L9.85355 12.8536C9.94732 12.9473 10 13.0745 10 13.2071V16C10 17.1046 10.8954 18 12 18C13.1046 18 14 17.1046 14 16Z" fill="black" stroke="black" stroke-width="1.5"/>
</svg>
