<svg width="24" height="24" viewBox="0 0 24 24" fill="none" xmlns="http://www.w3.org/2000/svg">
<g id="Interface/S/CheckFilled">
<path id="ToneAlpha1" fill-rule="evenodd" clip-rule="evenodd" d="M20 12C20 16.4183 16.4183 20 12 20C7.58172 20 4 16.4183 4 12C4 7.58172 7.58172 4 12 4C16.4183 4 20 7.58172 20 12ZM17.1213 10C17.7071 9.41421 17.7071 8.46447 17.1213 7.87868C16.5355 7.29289 15.5858 7.29289 15 7.87868L10.5 12.3787L9.56066 11.4393C8.97487 10.8536 8.02513 10.8536 7.43934 11.4393C6.85355 12.0251 6.85355 12.9749 7.43934 13.5607L10.5 16.6213L17.1213 10Z" fill="black" stroke="black" stroke-width="1.5"/>
</g>
</svg>
