<svg xmlns="http://www.w3.org/2000/svg" width="24" height="24" viewBox="0 0 24 24" fill="none">
  <path fill-rule="evenodd" clip-rule="evenodd" d="M3.25 12C3.25 7.16751 7.16751 3.25 12 3.25C16.8325 3.25 20.75 7.16751 20.75 12C20.75 16.8325 16.8325 20.75 12 20.75C7.16751 20.75 3.25 16.8325 3.25 12ZM16.5354 10.0353C16.8282 9.7424 16.8282 9.26753 16.5353 8.97464C16.2424 8.68176 15.7675 8.68177 15.4747 8.97468C14.5922 9.85715 13.1392 11.2929 11.9052 12.5094C11.2886 13.1174 10.7272 13.6701 10.3199 14.0708L10.1982 14.1905L8.5436 12.4831C8.25535 12.1856 7.78053 12.1781 7.48307 12.4664C7.18561 12.7546 7.17815 13.2295 7.46641 13.5269L9.64684 15.777C9.7859 15.9205 9.97648 16.0026 10.1763 16.005C10.3761 16.0074 10.5686 15.93 10.7111 15.79L11.372 15.14C11.7795 14.739 12.3412 14.186 12.9583 13.5776C14.1919 12.3614 15.6486 10.9221 16.5354 10.0353Z" fill="black"/>
</svg>