<svg width="16" height="16" viewBox="0 0 16 16" fill="none" xmlns="http://www.w3.org/2000/svg">
<path fill-rule="evenodd" clip-rule="evenodd" d="M8 14.75C11.7279 14.75 14.75 11.7279 14.75 8C14.75 4.27208 11.7279 1.25 8 1.25C4.27208 1.25 1.25 4.27208 1.25 8C1.25 11.7279 4.27208 14.75 8 14.75ZM11.7779 6.40818C12.0708 6.11529 12.0708 5.64042 11.7779 5.34752C11.485 5.05463 11.0101 5.05463 10.7172 5.34752L7.93165 8.13313L7.00335 9.06144L5.28276 7.34087C4.98986 7.04798 4.51499 7.04798 4.2221 7.34088C3.92921 7.63377 3.92921 8.10865 4.2221 8.40154L6.47302 10.6524C6.76592 10.9453 7.24079 10.9453 7.53368 10.6524L7.00335 10.1221C7.53368 10.6524 7.53369 10.6524 7.53371 10.6524L7.5338 10.6523L7.53413 10.652L7.53548 10.6506L7.54084 10.6453L7.56191 10.6242L7.64348 10.5426L7.94804 10.2381L8.99231 9.19378L11.7779 6.40818Z" fill="black"/>
</svg>
