<svg width="16" height="16" viewBox="0 0 16 16" fill="none" xmlns="http://www.w3.org/2000/svg">
<g id="Interface/Xs/CheckFilled">
<path id="ToneAlpha1" fill-rule="evenodd" clip-rule="evenodd" d="M14 8C14 11.3137 11.3137 14 8 14C4.68629 14 2 11.3137 2 8C2 4.68629 4.68629 2 8 2C11.3137 2 14 4.68629 14 8ZM12.4984 6.62286C13.0842 6.03707 13.0842 5.08732 12.4984 4.50153C11.9126 3.91575 10.9629 3.91575 10.3771 4.50153L6.5 8.37866L5.56066 7.43932C4.97487 6.85353 4.02513 6.85353 3.43934 7.43932C2.85355 8.0251 2.85355 8.97485 3.43934 9.56064L6.5 12.6213L12.4984 6.62286Z" fill="black" stroke="black" stroke-width="1.5"/>
</g>
</svg>
