<svg width="40" height="40" viewBox="0 0 40 40" fill="none" xmlns="http://www.w3.org/2000/svg">
<g clip-path="url(#clip0_55650_344196)">
<path d="M20.0002 20.0001L28.6607 25L20.0002 39.9999C31.0459 39.9999 40.0002 31.0457 40.0002 20.0001C40.0002 16.3561 39.0208 12.9428 37.318 10H20L20.0002 20.0001Z" fill="url(#paint0_linear_55650_344196)"/>
<path d="M19.9998 0C12.5972 0 6.13894 4.0246 2.68066 10.0024L11.3394 25L19.9998 20.0002V10.0001H37.3177C33.8589 4.02371 27.4014 0 19.9998 0Z" fill="url(#paint1_linear_55650_344196)"/>
<path d="M0.000118111 20.0002C0.000118111 31.0459 8.95408 40 20.0001 40L28.6605 25.0001L20.0001 20.0002L11.3396 25.0001L2.68093 10.0024C0.97905 12.9444 0 16.3565 0 19.9999" fill="url(#paint2_linear_55650_344196)"/>
<path d="M30.0002 20.0001C30.0002 25.5229 25.523 30.0002 20.0002 30.0002C14.4773 30.0002 10 25.5229 10 20.0001C10 14.4772 14.4773 10 20.0002 10C25.523 10 30.0002 14.4772 30.0002 20.0001Z" fill="white"/>
<path d="M28.1252 20.0001C28.1252 24.4873 24.4875 28.1252 20.0002 28.1252C15.5128 28.1252 11.875 24.4873 11.875 20.0001C11.875 15.5127 15.5128 11.875 20.0002 11.875C24.4875 11.875 28.1252 15.5127 28.1252 20.0001Z" fill="url(#paint3_linear_55650_344196)"/>
</g>
<defs>
<linearGradient id="paint0_linear_55650_344196" x1="30.0428" y1="9.95875" x2="30.0001" y2="39.9999" gradientUnits="userSpaceOnUse">
<stop stop-color="#AFCCFB"/>
<stop offset="1" stop-color="#8BB5F8"/>
</linearGradient>
<linearGradient id="paint1_linear_55650_344196" x1="17.0993" y1="0.304714" x2="18.7524" y2="27.1813" gradientUnits="userSpaceOnUse">
<stop stop-color="#1972E7"/>
<stop offset="1" stop-color="#1969D5"/>
</linearGradient>
<linearGradient id="paint2_linear_55650_344196" x1="14.3302" y1="10.0024" x2="14.3302" y2="40" gradientUnits="userSpaceOnUse">
<stop stop-color="#659CF6"/>
<stop offset="1" stop-color="#4285F4"/>
</linearGradient>
<linearGradient id="paint3_linear_55650_344196" x1="19.9172" y1="11.9059" x2="20.0002" y2="28.1252" gradientUnits="userSpaceOnUse">
<stop stop-color="#3680F0"/>
<stop offset="1" stop-color="#2678EC"/>
</linearGradient>
<clipPath id="clip0_55650_344196">
<rect width="40" height="40" fill="white"/>
</clipPath>
</defs>
</svg>
