<svg width="120" height="29" viewBox="0 0 66 16" fill="none" xmlns="http://www.w3.org/2000/svg">
    <g class="cloud-logo-icon" fill="#07E897">
        <path fill-rule="evenodd" clip-rule="evenodd" d="M7.90088 0.85876L1.07413 3.34731L1.02148 3.20217L7.84818 0.713623L7.90088 0.85876Z" />
        <path fill-rule="evenodd" clip-rule="evenodd" d="M7.13574 11.0488V4.65869H8.69813V11.0488H7.13574Z" />
        <path fill-rule="evenodd" clip-rule="evenodd" d="M9.51562 9.47159V6.23608H11.078V9.47159H9.51562Z" />
        <path fill-rule="evenodd" clip-rule="evenodd" d="M4.7959 9.47159V6.23608H6.35827V9.47159H4.7959Z" />
        <path fill-rule="evenodd" clip-rule="evenodd" d="M7.94265 0L15.8038 2.94453V12.9219L7.93869 15.9546L0 12.8407V2.94237L7.94265 0ZM1.60243 4.0613V11.7444L7.94365 14.2316L14.2014 11.8187V4.05914L7.93963 1.71369L1.60243 4.0613Z" />
    </g>
    <g class="cloud-logo-text" fill="#343F48">
        <path d="M28.64 11.5003C28.5257 11.6378 28.3662 11.7736 28.1594 11.9076C27.9527 12.0415 27.7097 12.1631 27.4305 12.2702C27.1494 12.3774 26.8376 12.4668 26.4912 12.5364C26.1449 12.6061 25.775 12.64 25.3797 12.64C24.6253 12.64 23.9417 12.5329 23.3288 12.3166C22.7159 12.1005 22.1918 11.7915 21.7584 11.3913C21.3251 10.9912 20.9878 10.4998 20.7466 9.92104C20.5054 9.3423 20.3857 8.68666 20.3857 7.95239C20.3857 7.27001 20.5037 6.64476 20.7412 6.07488C20.9787 5.50501 21.3142 5.01374 21.753 4.59929C22.1918 4.18484 22.7195 3.86328 23.336 3.63462C23.9543 3.40595 24.6435 3.29163 25.4068 3.29163C26.134 3.29163 26.756 3.38094 27.2728 3.5578C27.7895 3.73466 28.1848 3.91866 28.455 4.10802V6.36071C28.3154 6.16242 28.1413 5.9677 27.9364 5.77834C27.7297 5.58897 27.4976 5.42105 27.2401 5.27278C26.9808 5.12629 26.6961 5.0066 26.3861 4.91728C26.0742 4.82617 25.7478 4.78151 25.4068 4.78151C24.9082 4.78151 24.4567 4.86011 24.0523 5.01374C23.6497 5.16916 23.307 5.38532 23.0278 5.66043C22.7467 5.93733 22.5328 6.2714 22.384 6.6644C22.2353 7.05742 22.161 7.49149 22.161 7.96673C22.161 8.40616 22.2281 8.81884 22.3641 9.20291C22.5001 9.58699 22.7014 9.92104 22.9679 10.2069C23.2345 10.4909 23.5699 10.7178 23.9743 10.8875C24.3769 11.0555 24.8411 11.1447 25.3669 11.1537C25.7695 11.1537 26.1394 11.1108 26.4767 11.0233C26.814 10.9375 27.1204 10.8214 27.3961 10.6732C27.6717 10.5267 27.9146 10.3534 28.125 10.1551C28.3354 9.95679 28.5058 9.74064 28.6382 9.50843V11.5003H28.64Z" />
        <path d="M31.9954 11.009H36.9911V12.4989H30.3525V3.43274H31.9954V11.009Z" />
        <path d="M37.3975 7.95239C37.3975 7.27001 37.5135 6.64476 37.7456 6.07488C37.9777 5.50501 38.3077 5.01374 38.7375 4.59929C39.1672 4.18484 39.684 3.86328 40.2879 3.63462C40.8917 3.40595 41.5717 3.29163 42.326 3.29163C43.0622 3.29163 43.735 3.39881 44.3443 3.61497C44.9535 3.83113 45.4722 4.14018 45.9019 4.54034C46.3317 4.94229 46.6635 5.43177 46.901 6.01057C47.1368 6.58938 47.2565 7.245 47.2565 7.9792C47.2565 8.66165 47.1404 9.28688 46.9083 9.85675C46.6762 10.4266 46.3443 10.9179 45.9164 11.3324C45.4867 11.7468 44.968 12.0684 44.3588 12.297C43.7495 12.5257 43.0732 12.64 42.3278 12.64C41.5916 12.64 40.9189 12.5346 40.3097 12.322C39.7003 12.1112 39.1818 11.804 38.752 11.402C38.3222 11.0001 37.9904 10.5088 37.7528 9.92644C37.5153 9.34403 37.3975 8.68666 37.3975 7.95239ZM39.1328 7.96493C39.1328 8.40443 39.1999 8.81884 39.3359 9.20832C39.4719 9.59592 39.675 9.93358 39.9469 10.2176C40.219 10.5017 40.5545 10.7285 40.9533 10.8983C41.3523 11.0662 41.8147 11.1502 42.3406 11.1502C42.832 11.1502 43.2708 11.0715 43.6606 10.9161C44.0505 10.7607 44.3842 10.5445 44.6598 10.2694C44.9354 9.99253 45.1476 9.65848 45.298 9.26547C45.4468 8.87246 45.5211 8.4383 45.5211 7.96313C45.5211 7.52371 45.4522 7.10923 45.318 6.71978C45.182 6.33213 44.9789 5.99449 44.7069 5.71045C44.4349 5.42641 44.0995 5.19953 43.7005 5.02982C43.3016 4.8619 42.8392 4.77793 42.3134 4.77793C41.822 4.77793 41.3795 4.85654 40.986 5.01017C40.5925 5.16559 40.257 5.38353 39.9796 5.66401C39.704 5.94448 39.4936 6.27854 39.3486 6.66798C39.2053 7.05921 39.1328 7.48976 39.1328 7.96493Z" />
        <path d="M50.0218 8.79383C50.0218 9.20824 50.0816 9.56377 50.1995 9.86208C50.3174 10.1605 50.4823 10.4052 50.6927 10.5999C50.9031 10.7946 51.1533 10.9357 51.4417 11.0268C51.73 11.1179 52.0454 11.1626 52.3882 11.1626C53.0809 11.1626 53.6176 10.9894 53.9984 10.6446C54.3792 10.2998 54.5696 9.7335 54.5696 8.94749V3.43274H56.2125V8.78129C56.2125 9.44586 56.1218 10.0229 55.9423 10.5106C55.7628 10.9983 55.5035 11.402 55.1662 11.7218C54.8289 12.0415 54.4209 12.2774 53.944 12.4274C53.4671 12.5793 52.9249 12.6543 52.3211 12.6543C51.6466 12.6543 51.0626 12.565 50.5731 12.3881C50.0816 12.2113 49.6718 11.9594 49.3436 11.6307C49.0154 11.3019 48.7724 10.9072 48.6147 10.4463C48.4569 9.98539 48.3789 9.46374 48.3789 8.88673V3.43274H50.0218V8.79383Z" />
        <path d="M60.8837 3.43274C62.5918 3.43274 63.863 3.80789 64.6953 4.55998C65.5276 5.31027 65.9447 6.38571 65.9447 7.78446C65.9447 8.61336 65.8195 9.32615 65.5693 9.92103C65.319 10.5159 64.9691 11.0054 64.5176 11.3842C64.0661 11.7646 63.5275 12.0451 62.9001 12.2255C62.2727 12.4077 61.5872 12.4971 60.8438 12.4971H57.7158V3.43274H60.8837ZM60.8438 11.009C61.9916 11.009 62.842 10.7464 63.3933 10.2194C63.9446 9.69242 64.222 8.93314 64.222 7.93992C64.222 6.93057 63.9518 6.17491 63.4132 5.67292C62.8747 5.17272 62.0224 4.92262 60.8565 4.92262H59.3587V11.009H60.8438Z" />
    </g>
</svg>
