<svg width="24" height="24" viewBox="0 0 40 40" fill="none" xmlns="http://www.w3.org/2000/svg">
<path d="M37.3992 12.9984C36.5836 11.0352 34.9305 8.91562 33.6328 8.24609C34.6891 10.3172 35.3 12.3945 35.5336 13.9445C35.5336 13.9445 35.5336 13.9555 35.5375 13.9758C33.4148 8.68359 29.8148 6.54922 26.875 1.90312C26.7258 1.66875 26.5773 1.43437 26.432 1.18359C26.35 1.04218 26.2836 0.914059 26.2258 0.792965C26.104 0.558045 26.0098 0.309766 25.9453 0.0531215C25.9458 0.0409341 25.9418 0.0289912 25.934 0.0196086C25.9262 0.010226 25.9152 0.0040721 25.9031 0.00234022C25.8916 -0.000780073 25.8795 -0.000780073 25.868 0.00234022C25.8649 0.00375502 25.862 0.00559564 25.8594 0.00780897C25.8547 0.00780897 25.85 0.0132777 25.8453 0.0148402L25.8531 0.00468397C21.1367 2.76718 19.5367 7.87734 19.3898 10.4344C17.5051 10.5633 15.7031 11.2572 14.2187 12.4258C14.0636 12.2946 13.9014 12.172 13.7328 12.0586C13.3051 10.5611 13.287 8.97634 13.6805 7.46953C11.7516 8.34843 10.2516 9.73515 9.16094 10.9625H9.15234C8.40781 10.0195 8.46016 6.90937 8.50234 6.26015C8.49375 6.21953 7.94766 6.54375 7.87734 6.59297C7.22037 7.06165 6.60624 7.58767 6.04219 8.16484C5.40032 8.81561 4.8139 9.51883 4.28906 10.2672C3.08156 11.9784 2.22522 13.912 1.76953 15.9562C1.76094 15.9969 1.75312 16.0391 1.74453 16.0805C1.70937 16.2453 1.58203 17.0727 1.55937 17.2523V17.2937C1.39336 18.1486 1.28997 19.0145 1.25 19.8844V19.9805C1.25 30.3492 9.65625 38.7555 20.025 38.7555C29.3117 38.7555 37.0219 32.0133 38.532 23.157C38.5633 22.9172 38.5891 22.675 38.6172 22.4328C38.9906 19.2125 38.5758 15.8281 37.3992 12.9984ZM15.7586 27.6953C15.8461 27.7367 15.9289 27.7828 16.0187 27.8234L16.0312 27.8312C15.9414 27.7875 15.85 27.7422 15.7594 27.6953H15.7586ZM35.5391 13.9844V13.9664V13.9867V13.9844Z" fill="url(#paint0_linear_55650_344197)"/>
<path d="M37.3988 12.9985C36.5832 11.0352 34.9301 8.91569 33.6324 8.24615C34.6887 10.3172 35.2996 12.3946 35.5332 13.9446V13.9829C37.3051 18.786 36.3395 23.6704 34.9488 26.6547C32.7973 31.2719 27.5887 36.0047 19.4348 35.7743C10.6324 35.5243 2.87227 28.9844 1.42305 20.4258C1.15898 19.0751 1.42305 18.3899 1.55586 17.2938C1.39414 18.1383 1.33242 18.3829 1.25195 19.8844V19.9805C1.25195 30.3493 9.6582 38.7555 20.027 38.7555C29.3137 38.7555 37.0238 32.0133 38.534 23.1571C38.5652 22.9172 38.591 22.6751 38.6191 22.4329C38.9902 19.2126 38.5754 15.8282 37.3988 12.9985Z" fill="url(#paint1_radial_55650_344197)"/>
<path d="M37.3988 12.9985C36.5832 11.0352 34.9301 8.91569 33.6324 8.24615C34.6887 10.3172 35.2996 12.3946 35.5332 13.9446V13.9829C37.3051 18.786 36.3395 23.6704 34.9488 26.6547C32.7973 31.2719 27.5887 36.0047 19.4348 35.7743C10.6324 35.5243 2.87227 28.9844 1.42305 20.4258C1.15898 19.0751 1.42305 18.3899 1.55586 17.2938C1.39414 18.1383 1.33242 18.3829 1.25195 19.8844V19.9805C1.25195 30.3493 9.6582 38.7555 20.027 38.7555C29.3137 38.7555 37.0238 32.0133 38.534 23.1571C38.5652 22.9172 38.591 22.6751 38.6191 22.4329C38.9902 19.2126 38.5754 15.8282 37.3988 12.9985Z" fill="url(#paint2_radial_55650_344197)"/>
<path d="M28.2756 15.2047C28.317 15.2336 28.3537 15.2625 28.3928 15.2914C27.9216 14.4547 27.3345 13.6888 26.649 13.0164C20.8131 7.18045 25.1193 0.3617 25.8451 0.0148254L25.8529 0.00466919C21.1365 2.76717 19.5365 7.87733 19.3896 10.4344C19.6084 10.4195 19.8264 10.4008 20.049 10.4008C23.5686 10.4008 26.6342 12.3367 28.2756 15.2047Z" fill="url(#paint3_radial_55650_344197)"/>
<path d="M20.06 16.3703C20.0295 16.8391 18.3795 18.4484 17.8021 18.4484C12.4631 18.4484 11.5967 21.6781 11.5967 21.6781C11.8311 24.3984 13.7264 26.6383 16.0193 27.8234C16.124 27.8773 16.2295 27.9258 16.3318 27.9742C16.5154 28.0523 16.6998 28.1305 16.8834 28.2C17.6697 28.4774 18.4932 28.6354 19.3264 28.6688C28.6842 29.1078 30.4982 17.4797 23.7443 14.1031C25.4732 13.8023 27.2686 14.4984 28.2709 15.2023C26.6303 12.3344 23.5639 10.3984 20.0443 10.3984C19.8217 10.3984 19.6037 10.4172 19.385 10.432C17.5016 10.5625 15.7013 11.2573 14.2186 12.4258C14.5053 12.6688 14.8287 12.9922 15.5092 13.6625C16.7857 14.9219 20.0529 16.218 20.06 16.3703Z" fill="url(#paint4_radial_55650_344197)"/>
<path d="M20.06 16.3703C20.0295 16.8391 18.3795 18.4484 17.8021 18.4484C12.4631 18.4484 11.5967 21.6781 11.5967 21.6781C11.8311 24.3984 13.7264 26.6383 16.0193 27.8234C16.124 27.8773 16.2295 27.9258 16.3318 27.9742C16.5154 28.0523 16.6998 28.1305 16.8834 28.2C17.6697 28.4774 18.4932 28.6354 19.3264 28.6688C28.6842 29.1078 30.4982 17.4797 23.7443 14.1031C25.4732 13.8023 27.2686 14.4984 28.2709 15.2023C26.6303 12.3344 23.5639 10.3984 20.0443 10.3984C19.8217 10.3984 19.6037 10.4172 19.385 10.432C17.5016 10.5625 15.7013 11.2573 14.2186 12.4258C14.5053 12.6688 14.8287 12.9922 15.5092 13.6625C16.7857 14.9219 20.0529 16.218 20.06 16.3703Z" fill="url(#paint5_radial_55650_344197)"/>
<path d="M13.3463 11.8015C13.4986 11.9 13.6236 11.9828 13.7369 12.0585C13.3092 10.5611 13.2911 8.9763 13.6846 7.46948C11.7557 8.34839 10.2557 9.73511 9.16504 10.9625C9.25332 10.9601 11.9768 10.9109 13.3463 11.8015Z" fill="url(#paint6_radial_55650_344197)"/>
<path d="M1.42237 20.4257C2.87159 28.9843 10.6317 35.5242 19.4403 35.7742C27.5942 36.0046 32.7997 31.2718 34.9544 26.6546C36.345 23.6695 37.3106 18.7859 35.5388 13.9828V13.9468C35.5388 13.9515 35.5388 13.9578 35.5427 13.9781C36.2083 18.3273 33.9966 22.5406 30.5388 25.3898C30.5352 25.3978 30.5318 25.4059 30.5286 25.414C23.7903 30.9007 17.3427 28.7242 16.0372 27.8359C15.9466 27.7921 15.8552 27.7468 15.7646 27.7C11.8356 25.825 10.213 22.2429 10.5606 19.1734C7.24424 19.1734 6.11299 16.375 6.11299 16.375C6.11299 16.375 9.09112 14.2515 13.0161 16.0984C16.6513 17.8093 20.0653 16.3757 20.0653 16.375C20.0583 16.2226 16.7911 14.9226 15.5169 13.6671C14.8364 12.9968 14.513 12.6734 14.2263 12.4304C14.0711 12.2992 13.9089 12.1767 13.7403 12.0632C13.6286 11.9851 13.506 11.907 13.3497 11.8062C11.9802 10.9156 9.25674 10.9648 9.1669 10.9671H9.1583C8.41377 10.0242 8.46612 6.91402 8.5083 6.2648C8.49971 6.22418 7.95362 6.5484 7.8833 6.59762C7.22633 7.0663 6.6122 7.59232 6.04815 8.16949C5.40628 8.82026 4.81987 9.52348 4.29502 10.2718C3.08752 11.9831 2.23118 13.9167 1.77549 15.9609C1.76065 15.9968 1.09268 18.9132 1.42237 20.4257Z" fill="url(#paint7_radial_55650_344197)"/>
<path d="M26.6489 13.0164C27.3344 13.6888 27.9215 14.4547 28.3927 15.2914C28.4903 15.3647 28.5842 15.443 28.6739 15.5258C32.9302 19.4445 30.7036 24.9922 30.5341 25.3906C33.9919 22.5414 36.2036 18.3281 35.538 13.9789C33.4153 8.68359 29.8153 6.54922 26.8755 1.90312C26.7263 1.66875 26.5778 1.43437 26.4325 1.18359C26.3505 1.04218 26.2841 0.914059 26.2263 0.792965C26.1044 0.558045 26.0103 0.309766 25.9458 0.0531215C25.9463 0.0409341 25.9423 0.0289912 25.9345 0.0196086C25.9267 0.010226 25.9157 0.0040721 25.9036 0.00234022C25.8921 -0.000780073 25.88 -0.000780073 25.8685 0.00234022C25.8653 0.00375502 25.8625 0.00559564 25.8599 0.00780897C25.8552 0.00780897 25.8505 0.0132777 25.8458 0.0148402C25.1192 0.361715 20.813 7.18047 26.6489 13.0164Z" fill="url(#paint8_radial_55650_344197)"/>
<path d="M28.6725 15.5218C28.5827 15.439 28.4889 15.3608 28.3912 15.2875C28.3529 15.2586 28.3131 15.2296 28.274 15.2007C27.2717 14.4976 25.4764 13.8007 23.7475 14.1015C30.5006 17.4781 28.6873 29.1062 19.3295 28.6671C18.4963 28.6337 17.6729 28.4757 16.8865 28.1984C16.7029 28.1296 16.5186 28.0539 16.335 27.9726C16.2287 27.9242 16.1232 27.8757 16.0225 27.8218L16.035 27.8296C17.3404 28.7203 23.7881 30.8968 30.5264 25.4078C30.5264 25.4078 30.5303 25.3976 30.5365 25.3836C30.7037 24.9921 32.9303 19.4445 28.6725 15.5218Z" fill="url(#paint9_radial_55650_344197)"/>
<path d="M11.5975 21.6781C11.5975 21.6781 12.4639 18.4484 17.8029 18.4484C18.3803 18.4484 20.0303 16.8375 20.0607 16.3703C20.0912 15.9031 16.6467 17.8047 13.0115 16.0937C9.08652 14.2468 6.1084 16.3703 6.1084 16.3703C6.1084 16.3703 7.23965 19.1687 10.5561 19.1687C10.2084 22.2383 11.8311 25.8172 15.76 27.6953C15.8475 27.7367 15.9303 27.7828 16.0201 27.8234C13.7271 26.6406 11.8342 24.3984 11.5975 21.6781Z" fill="url(#paint10_radial_55650_344197)"/>
<path d="M37.3992 12.9984C36.5836 11.0352 34.9305 8.91562 33.6328 8.24609C34.6891 10.3172 35.3 12.3945 35.5336 13.9445C35.5336 13.9445 35.5336 13.9555 35.5375 13.9758C33.4148 8.68359 29.8148 6.54922 26.875 1.90312C26.7258 1.66875 26.5773 1.43437 26.432 1.18359C26.35 1.04218 26.2836 0.914059 26.2258 0.792965C26.104 0.558045 26.0098 0.309766 25.9453 0.0531215C25.9458 0.0409341 25.9418 0.0289912 25.934 0.0196086C25.9262 0.010226 25.9152 0.0040721 25.9031 0.00234022C25.8916 -0.000780073 25.8795 -0.000780073 25.868 0.00234022C25.8649 0.00375502 25.862 0.00559564 25.8594 0.00780897C25.8547 0.00780897 25.85 0.0132777 25.8453 0.0148402L25.8531 0.00468397C21.1367 2.76718 19.5367 7.87734 19.3898 10.4344C19.6086 10.4195 19.8266 10.4008 20.0492 10.4008C23.5687 10.4008 26.6344 12.3367 28.2758 15.2047C27.2734 14.5016 25.4781 13.8047 23.7492 14.1055C30.5023 17.482 28.6891 29.1102 19.3312 28.6711C18.4981 28.6377 17.6746 28.4797 16.8883 28.2023C16.7047 28.1336 16.5203 28.0578 16.3367 27.9766C16.2305 27.9281 16.125 27.8797 16.0242 27.8258L16.0367 27.8336C15.9461 27.7898 15.8547 27.7445 15.7641 27.6977C15.8516 27.7391 15.9344 27.7852 16.0242 27.8258C13.7266 26.6406 11.8336 24.3984 11.5969 21.6781C11.5969 21.6781 12.4633 18.4484 17.8023 18.4484C18.3797 18.4484 20.0297 16.8375 20.0602 16.3703C20.0531 16.218 16.7859 14.918 15.5117 13.6625C14.8312 12.9922 14.5078 12.6687 14.2211 12.4258C14.0659 12.2946 13.9037 12.172 13.7352 12.0586C13.3074 10.5611 13.2893 8.97634 13.6828 7.46953C11.7539 8.34843 10.2539 9.73515 9.16328 10.9625H9.15469C8.41016 10.0195 8.4625 6.90937 8.50469 6.26015C8.49609 6.21953 7.95 6.54375 7.87969 6.59297C7.22271 7.06165 6.60859 7.58767 6.04453 8.16484C5.40266 8.81561 4.81625 9.51883 4.29141 10.2672C3.08391 11.9784 2.22756 13.912 1.77187 15.9562C1.76328 15.9969 1.75547 16.0391 1.74687 16.0805C1.71172 16.2453 1.55234 17.0844 1.53047 17.2641C1.53047 17.2781 1.53047 17.2508 1.53047 17.2641C1.38419 18.131 1.29053 19.0061 1.25 19.8844V19.9805C1.25 30.3492 9.65625 38.7555 20.025 38.7555C29.3117 38.7555 37.0219 32.0133 38.532 23.157C38.5633 22.9172 38.5891 22.675 38.6172 22.4328C38.9906 19.2125 38.5758 15.8281 37.3992 12.9984ZM35.5367 13.9625V13.9828V13.9625Z" fill="url(#paint11_linear_55650_344197)"/>
<defs>
<linearGradient id="paint0_linear_55650_344197" x1="34.9141" y1="6.0039" x2="3.74531" y2="36.0758" gradientUnits="userSpaceOnUse">
<stop offset="0.05" stop-color="#FFF44F"/>
<stop offset="0.11" stop-color="#FFE847"/>
<stop offset="0.22" stop-color="#FFC830"/>
<stop offset="0.37" stop-color="#FF980E"/>
<stop offset="0.4" stop-color="#FF8B16"/>
<stop offset="0.46" stop-color="#FF672A"/>
<stop offset="0.53" stop-color="#FF3647"/>
<stop offset="0.7" stop-color="#E31587"/>
</linearGradient>
<radialGradient id="paint1_radial_55650_344197" cx="0" cy="0" r="1" gradientUnits="userSpaceOnUse" gradientTransform="translate(33.473 4.30162) scale(39.1414 39.1414)">
<stop offset="0.13" stop-color="#FFBD4F"/>
<stop offset="0.19" stop-color="#FFAC31"/>
<stop offset="0.25" stop-color="#FF9D17"/>
<stop offset="0.28" stop-color="#FF980E"/>
<stop offset="0.4" stop-color="#FF563B"/>
<stop offset="0.47" stop-color="#FF3750"/>
<stop offset="0.71" stop-color="#F5156C"/>
<stop offset="0.78" stop-color="#EB0878"/>
<stop offset="0.86" stop-color="#E50080"/>
</radialGradient>
<radialGradient id="paint2_radial_55650_344197" cx="0" cy="0" r="1" gradientUnits="userSpaceOnUse" gradientTransform="translate(19.1707 20.3032) scale(39.1414 39.1414)">
<stop offset="0.3" stop-color="#960E18"/>
<stop offset="0.35" stop-color="#B11927" stop-opacity="0.74"/>
<stop offset="0.43" stop-color="#DB293D" stop-opacity="0.34"/>
<stop offset="0.5" stop-color="#F5334B" stop-opacity="0.09"/>
<stop offset="0.53" stop-color="#FF3750" stop-opacity="0"/>
</radialGradient>
<radialGradient id="paint3_radial_55650_344197" cx="0" cy="0" r="1" gradientUnits="userSpaceOnUse" gradientTransform="translate(23.8912 -4.58127) scale(28.3563 28.3563)">
<stop offset="0.13" stop-color="#FFF44F"/>
<stop offset="0.25" stop-color="#FFDC3E"/>
<stop offset="0.51" stop-color="#FF9D12"/>
<stop offset="0.53" stop-color="#FF980E"/>
</radialGradient>
<radialGradient id="paint4_radial_55650_344197" cx="0" cy="0" r="1" gradientUnits="userSpaceOnUse" gradientTransform="translate(14.842 30.5273) scale(18.6367 18.6367)">
<stop offset="0.35" stop-color="#3A8EE6"/>
<stop offset="0.47" stop-color="#5C79F0"/>
<stop offset="0.67" stop-color="#9059FF"/>
<stop offset="1" stop-color="#C139E6"/>
</radialGradient>
<radialGradient id="paint5_radial_55650_344197" cx="0" cy="0" r="1" gradientUnits="userSpaceOnUse" gradientTransform="translate(19.733 15.6513) rotate(-13.8972) scale(9.87384 11.5994)">
<stop offset="0.21" stop-color="#9059FF" stop-opacity="0"/>
<stop offset="0.28" stop-color="#8C4FF3" stop-opacity="0.06"/>
<stop offset="0.75" stop-color="#7716A8" stop-opacity="0.45"/>
<stop offset="0.97" stop-color="#6E008B" stop-opacity="0.6"/>
</radialGradient>
<radialGradient id="paint6_radial_55650_344197" cx="0" cy="0" r="1" gradientUnits="userSpaceOnUse" gradientTransform="translate(18.6768 2.69995) scale(13.4078 13.4078)">
<stop stop-color="#FFE226"/>
<stop offset="0.12" stop-color="#FFDB27"/>
<stop offset="0.3" stop-color="#FFC82A"/>
<stop offset="0.5" stop-color="#FFA930"/>
<stop offset="0.73" stop-color="#FF7E37"/>
<stop offset="0.79" stop-color="#FF7139"/>
</radialGradient>
<radialGradient id="paint7_radial_55650_344197" cx="0" cy="0" r="1" gradientUnits="userSpaceOnUse" gradientTransform="translate(29.2146 -5.80394) scale(57.2039 57.2039)">
<stop offset="0.11" stop-color="#FFF44F"/>
<stop offset="0.46" stop-color="#FF980E"/>
<stop offset="0.62" stop-color="#FF5634"/>
<stop offset="0.72" stop-color="#FF3647"/>
<stop offset="0.9" stop-color="#E31587"/>
</radialGradient>
<radialGradient id="paint8_radial_55650_344197" cx="0" cy="0" r="1" gradientUnits="userSpaceOnUse" gradientTransform="translate(23.6867 0.446013) rotate(84.2321) scale(41.696 27.3944)">
<stop stop-color="#FFF44F"/>
<stop offset="0.06" stop-color="#FFE847"/>
<stop offset="0.17" stop-color="#FFC830"/>
<stop offset="0.3" stop-color="#FF980E"/>
<stop offset="0.36" stop-color="#FF8B16"/>
<stop offset="0.45" stop-color="#FF672A"/>
<stop offset="0.57" stop-color="#FF3647"/>
<stop offset="0.74" stop-color="#E31587"/>
</radialGradient>
<radialGradient id="paint9_radial_55650_344197" cx="0" cy="0" r="1" gradientUnits="userSpaceOnUse" gradientTransform="translate(18.3615 7.66559) scale(35.7125)">
<stop offset="0.14" stop-color="#FFF44F"/>
<stop offset="0.48" stop-color="#FF980E"/>
<stop offset="0.59" stop-color="#FF5634"/>
<stop offset="0.66" stop-color="#FF3647"/>
<stop offset="0.9" stop-color="#E31587"/>
</radialGradient>
<radialGradient id="paint10_radial_55650_344197" cx="0" cy="0" r="1" gradientUnits="userSpaceOnUse" gradientTransform="translate(27.7889 9.75622) scale(39.0875 39.0875)">
<stop offset="0.09" stop-color="#FFF44F"/>
<stop offset="0.23" stop-color="#FFE141"/>
<stop offset="0.51" stop-color="#FFAF1E"/>
<stop offset="0.63" stop-color="#FF980E"/>
</radialGradient>
<linearGradient id="paint11_linear_55650_344197" x1="34.5391" y1="5.84297" x2="8.01874" y2="32.3641" gradientUnits="userSpaceOnUse">
<stop offset="0.17" stop-color="#FFF44F" stop-opacity="0.8"/>
<stop offset="0.27" stop-color="#FFF44F" stop-opacity="0.63"/>
<stop offset="0.49" stop-color="#FFF44F" stop-opacity="0.22"/>
<stop offset="0.6" stop-color="#FFF44F" stop-opacity="0"/>
</linearGradient>
</defs>
</svg>
