<svg width="24" height="24" viewBox="0 0 40 40" fill="none" xmlns="http://www.w3.org/2000/svg">
<path d="M37.6714 10.6671C39.1439 13.4515 39.9774 16.6257 39.9774 19.9944C39.9774 31.031 31.0307 39.9778 19.9941 39.9778C19.7392 39.9778 19.4856 39.9729 19.2334 39.9636L27.9989 24.7807C28.8378 23.3814 29.3197 21.7441 29.3197 19.9944C29.3197 14.8441 25.1445 10.6689 19.9941 10.6689H37.6683L37.6714 10.6671Z" fill="#FBCB4F"/>
<path d="M37.6716 10.6671L37.6685 10.6689H19.9943C14.844 10.6689 10.6688 14.8441 10.6688 19.9944C10.6688 21.6344 11.0919 23.1749 11.8354 24.5138L3.08088 9.35087L3.0791 9.34998C6.61749 3.73866 12.8705 0.011097 19.9943 0.011097C27.6622 0.011097 34.3211 4.32972 37.6716 10.6671Z" fill="#DB524A"/>
<path d="M19.9941 28.4318C16.929 28.4318 14.1003 26.7654 12.6117 24.0828C11.9214 22.8396 11.5566 21.426 11.5566 19.9944C11.5566 15.342 15.3416 11.557 19.9941 11.557C24.6465 11.557 28.4315 15.342 28.4315 19.9944C28.4315 21.5236 28.0185 23.0207 27.2372 24.324C26.5005 25.5537 25.4558 26.5832 24.2158 27.3014C22.939 28.0409 21.4791 28.4318 19.9941 28.4318Z" fill="#548EF2"/>
<path d="M19.9945 10.6689C14.8441 10.6689 10.6689 14.8441 10.6689 19.9944C10.6689 21.6344 11.0921 23.1749 11.8355 24.5138C13.4262 27.3803 16.4841 29.32 19.9945 29.32C23.3952 29.32 26.3705 27.4997 27.9994 24.7807C28.8382 23.3814 29.3201 21.7441 29.3201 19.9944C29.3201 14.8441 25.1449 10.6689 19.9945 10.6689ZM19.9945 12.4452C22.011 12.4452 23.9068 13.2304 25.3326 14.6563C26.7585 16.0821 27.5438 17.9779 27.5438 19.9944C27.5438 21.3628 27.1745 22.702 26.4756 23.8678C25.8163 24.9685 24.8811 25.8901 23.7711 26.5329C22.6294 27.1942 21.3235 27.5437 19.9945 27.5437C18.622 27.5437 17.279 27.1723 16.1106 26.4696C14.9733 25.7856 14.0321 24.8113 13.3885 23.6516C12.7714 22.5401 12.4452 21.2755 12.4452 19.9944C12.4452 17.9779 13.2305 16.0821 14.6564 14.6563C16.0822 13.2304 17.978 12.4452 19.9945 12.4452Z" fill="white"/>
<path d="M27.999 24.7807L19.2334 39.9636C8.54941 39.5635 0.0107422 30.7761 0.0107422 19.9945C0.0107422 16.0817 1.13514 12.4319 3.07886 9.34998L3.08063 9.35087L11.8351 24.5138C13.4258 27.3803 16.4837 29.32 19.9941 29.32C23.3948 29.32 26.3701 27.4997 27.999 24.7807Z" fill="#25A061"/>
<g opacity="0.100006">
<g opacity="0.100006">
<g opacity="0.100006">
<g opacity="0.100006">
<g opacity="0.100006">
<g opacity="0.100006">
<path opacity="0.100006" d="M19.9941 10.6689H37.6683L19.9941 15.1096V10.6689Z" fill="url(#paint0_linear_9621_124587)"/>
</g>
</g>
</g>
</g>
</g>
</g>
<g opacity="0.100006">
<g opacity="0.100006">
<g opacity="0.100006">
<g opacity="0.100006">
<g opacity="0.100006">
<g opacity="0.100006">
<path opacity="0.100006" d="M28.0705 24.6572L19.2334 39.9635L24.2247 22.4368L28.0705 24.6572Z" fill="url(#paint1_linear_9621_124587)"/>
</g>
</g>
</g>
</g>
</g>
</g>
<g opacity="0.100006">
<g opacity="0.100006">
<g opacity="0.100006">
<g opacity="0.100006">
<g opacity="0.100006">
<g opacity="0.100006">
<path opacity="0.100006" d="M11.9181 24.6572L3.08105 9.35096L15.7639 22.4369L11.9181 24.6572Z" fill="url(#paint2_linear_9621_124587)"/>
</g>
</g>
</g>
</g>
</g>
</g>
<path d="M19.9941 28.4318C15.3416 28.4318 11.5566 24.6468 11.5566 19.9944C11.5566 15.342 15.3416 11.557 19.9941 11.557C24.6465 11.557 28.4315 15.342 28.4315 19.9944C28.4315 24.6468 24.6465 28.4318 19.9941 28.4318Z" fill="#548EF2"/>
<path d="M19.9945 10.6689C14.8441 10.6689 10.6689 14.8441 10.6689 19.9944C10.6689 25.1448 14.8441 29.32 19.9945 29.32C25.1448 29.32 29.3201 25.1448 29.3201 19.9944C29.3201 14.8441 25.1448 10.6689 19.9945 10.6689ZM19.9945 12.4452C22.011 12.4452 23.9068 13.2304 25.3326 14.6563C26.7585 16.0821 27.5438 17.9779 27.5438 19.9944C27.5438 22.0109 26.7585 23.9067 25.3326 25.3326C23.9068 26.7584 22.011 27.5437 19.9945 27.5437C17.978 27.5437 16.0822 26.7584 14.6564 25.3326C13.2305 23.9067 12.4452 22.0109 12.4452 19.9944C12.4452 17.9779 13.2305 16.0821 14.6564 14.6563C16.0822 13.2304 17.978 12.4452 19.9945 12.4452Z" fill="white"/>
<defs>
<linearGradient id="paint0_linear_9621_124587" x1="19.9941" y1="12.8892" x2="37.6683" y2="12.8892" gradientUnits="userSpaceOnUse">
<stop stop-color="white"/>
<stop offset="0.405149" stop-color="#231F20"/>
<stop offset="1" stop-color="#231F20"/>
</linearGradient>
<linearGradient id="paint1_linear_9621_124587" x1="26.1476" y1="23.547" x2="17.3105" y2="38.8533" gradientUnits="userSpaceOnUse">
<stop stop-color="white"/>
<stop offset="0.405149" stop-color="#231F20"/>
<stop offset="1" stop-color="#231F20"/>
</linearGradient>
<linearGradient id="paint2_linear_9621_124587" x1="13.841" y1="23.547" x2="5.00393" y2="8.24077" gradientUnits="userSpaceOnUse">
<stop stop-color="white"/>
<stop offset="0.405149" stop-color="#231F20"/>
<stop offset="1" stop-color="#231F20"/>
</linearGradient>
</defs>
</svg>
