<svg width="24" height="24" viewBox="0 0 40 40" fill="none" xmlns="http://www.w3.org/2000/svg">
<path d="M20 40C31.0457 40 40 31.0457 40 20C40 8.9543 31.0457 0 20 0C8.9543 0 0 8.9543 0 20C0 31.0457 8.9543 40 20 40Z" fill="#EFEFF0"/>
<path d="M20 38.5C30.2173 38.5 38.5 30.2173 38.5 20C38.5 9.78273 30.2173 1.5 20 1.5C9.78273 1.5 1.5 9.78273 1.5 20C1.5 30.2173 9.78273 38.5 20 38.5Z" fill="#398DE9"/>
<path d="M20.0312 6C19.9062 6 19.7968 5.90625 19.7968 5.78125V2.51563C19.7968 2.39063 19.9062 2.29688 20.0312 2.29688C20.1562 2.29688 20.2656 2.39063 20.2656 2.51563V5.78125C20.25 5.90625 20.1562 6 20.0312 6Z" fill="#F3F3F3"/>
<path d="M20.0307 6.01562C19.8901 6.01562 19.7807 5.90625 19.7807 5.78125V2.51562C19.7807 2.39062 19.8901 2.28125 20.0307 2.28125C20.1713 2.28125 20.2807 2.39062 20.2807 2.51562V5.78125C20.2807 5.90625 20.1557 6.01562 20.0307 6.01562ZM20.0307 2.3125C19.9213 2.3125 19.812 2.40625 19.812 2.51562V5.78125C19.812 5.89062 19.9057 5.98437 20.0307 5.98437C20.1401 5.98437 20.2495 5.89062 20.2495 5.78125V2.51562C20.2338 2.40625 20.1401 2.3125 20.0307 2.3125Z" fill="white"/>
<path d="M21.5942 4.24999C21.4692 4.23437 21.3755 4.14062 21.3755 4.01562L21.4849 2.56249C21.5005 2.43749 21.6099 2.34374 21.7349 2.35937C21.8599 2.37499 21.9536 2.46874 21.9536 2.59374L21.8442 4.04687C21.8286 4.17187 21.7192 4.26562 21.5942 4.24999Z" fill="#F3F3F3"/>
<path d="M21.5937 4.26565C21.4531 4.25003 21.3593 4.14065 21.3593 4.01565L21.4687 2.56253C21.4843 2.43753 21.5937 2.32815 21.7343 2.34378C21.875 2.3594 21.9687 2.46878 21.9687 2.59378L21.8593 4.0469C21.8437 4.18753 21.7343 4.28128 21.5937 4.26565ZM21.7343 2.37503C21.625 2.37503 21.5156 2.45315 21.5156 2.56253L21.4062 4.01565C21.4062 4.12503 21.4843 4.21878 21.6093 4.2344C21.7187 4.2344 21.8281 4.15628 21.8281 4.0469L21.9375 2.59378C21.9375 2.4844 21.8437 2.39065 21.7343 2.37503Z" fill="white"/>
<path d="M22.7656 6.28124C22.6406 6.24999 22.5624 6.14062 22.5781 6.01562L23.2187 2.81249C23.2499 2.68749 23.3593 2.60937 23.4843 2.64062C23.6093 2.67187 23.6874 2.78124 23.6718 2.90624L23.0312 6.10937C23.0156 6.21874 22.8906 6.29687 22.7656 6.28124Z" fill="#F3F3F3"/>
<path d="M22.766 6.29689C22.6254 6.26564 22.5473 6.14064 22.5629 6.01564L23.2035 2.81251C23.2348 2.68751 23.3598 2.59376 23.5004 2.62501C23.641 2.65626 23.7192 2.78126 23.7035 2.90626L23.0629 6.10939C23.0317 6.23439 22.9067 6.31252 22.766 6.29689ZM23.5004 2.65626C23.391 2.64064 23.2817 2.70314 23.2504 2.81251L22.6098 6.01564C22.5942 6.12502 22.6567 6.23439 22.7817 6.26564C22.891 6.28127 23.0004 6.21877 23.0317 6.10939L23.6723 2.90626C23.6879 2.78126 23.6098 2.68751 23.5004 2.65626Z" fill="white"/>
<path d="M24.6409 4.87497C24.5159 4.84372 24.4378 4.71872 24.469 4.59372L24.8597 3.18747C24.8909 3.06247 25.0159 2.99997 25.1409 3.03122C25.2659 3.06247 25.3441 3.18747 25.3128 3.31247L24.9222 4.71872C24.8909 4.84372 24.7659 4.90622 24.6409 4.87497Z" fill="#F3F3F3"/>
<path d="M24.6403 4.89062C24.5153 4.85937 24.4215 4.71874 24.4684 4.59374L24.859 3.18749C24.8903 3.06249 25.0309 2.98437 25.1559 3.01562C25.2809 3.04687 25.3746 3.18749 25.3278 3.31249L24.9371 4.71874C24.9059 4.84374 24.7809 4.92187 24.6403 4.89062ZM25.1559 3.06249C25.0465 3.03124 24.9215 3.09374 24.8903 3.20312L24.4996 4.60937C24.4684 4.71874 24.5309 4.82812 24.6559 4.85937C24.7653 4.89062 24.8903 4.82812 24.9215 4.71874L25.3121 3.31249C25.3278 3.20312 25.2653 3.09374 25.1559 3.06249Z" fill="white"/>
<path d="M25.4064 7.07811C25.2814 7.03124 25.2345 6.89061 25.2814 6.78124L26.5314 3.76561C26.5783 3.65624 26.7189 3.59374 26.8283 3.65624C26.9533 3.70311 27.0002 3.84374 26.9533 3.95311L25.7033 6.96874C25.6564 7.07811 25.5158 7.14061 25.4064 7.07811Z" fill="#F3F3F3"/>
<path d="M25.4067 7.09376C25.2817 7.04688 25.2192 6.90626 25.2661 6.78126L26.516 3.76563C26.5629 3.64063 26.7035 3.59376 26.8442 3.64063C26.9692 3.68751 27.0317 3.82813 26.9848 3.95313L25.7348 6.96876C25.6723 7.09376 25.5317 7.15626 25.4067 7.09376ZM26.8285 3.67188C26.7192 3.62501 26.5942 3.67188 26.5473 3.78126L25.2973 6.79688C25.2504 6.90626 25.3129 7.01563 25.4223 7.06251C25.5317 7.10938 25.6567 7.06251 25.7035 6.95313L26.9535 3.93751C26.9848 3.84376 26.9379 3.71876 26.8285 3.67188Z" fill="white"/>
<path d="M27.5161 6.07817C27.4067 6.01567 27.3598 5.89066 27.4067 5.78129L28.0629 4.48441C28.1254 4.37504 28.2504 4.32816 28.3754 4.39066C28.4848 4.45316 28.5317 4.57816 28.4848 4.68754L27.8286 5.98441C27.7661 6.09379 27.6411 6.14067 27.5161 6.07817Z" fill="#F3F3F3"/>
<path d="M27.5154 6.09379C27.3904 6.03129 27.3436 5.89066 27.4061 5.76566L28.0623 4.46879C28.1248 4.34379 28.2654 4.29691 28.3904 4.35941C28.5154 4.42191 28.5623 4.56254 28.4998 4.68754L27.8436 5.98441C27.7811 6.10941 27.6404 6.15629 27.5154 6.09379ZM28.3748 4.39066C28.2654 4.34379 28.1404 4.37504 28.0936 4.48441L27.4373 5.78129C27.3904 5.87504 27.4373 6.00004 27.5311 6.06254C27.6404 6.10941 27.7654 6.07816 27.8123 5.96879L28.4686 4.67191C28.5154 4.57816 28.4686 4.45316 28.3748 4.39066Z" fill="white"/>
<path d="M27.8282 8.39062C27.7188 8.3125 27.6875 8.17187 27.7657 8.07812L29.5781 5.375C29.6406 5.26562 29.7813 5.25 29.8906 5.3125C30 5.39062 30.0313 5.53125 29.9532 5.625L28.1407 8.32812C28.0782 8.4375 27.9375 8.46875 27.8282 8.39062Z" fill="#F3F3F3"/>
<path d="M27.8282 8.40625C27.7188 8.32813 27.6876 8.17188 27.7501 8.0625L29.5626 5.35938C29.6407 5.25 29.7813 5.21875 29.9063 5.29688C30.0157 5.375 30.0469 5.53125 29.9844 5.64063L28.1719 8.34375C28.0938 8.45313 27.9376 8.48438 27.8282 8.40625ZM29.8907 5.32813C29.7969 5.26563 29.6563 5.28125 29.5938 5.375L27.7813 8.07813C27.7188 8.17188 27.7501 8.29688 27.8438 8.35938C27.9376 8.42188 28.0782 8.40625 28.1407 8.3125L29.9532 5.625C30.0157 5.53125 29.9844 5.39063 29.8907 5.32813Z" fill="white"/>
<path d="M30.1098 7.81247C30.016 7.73435 29.9848 7.59372 30.0629 7.49997L30.9691 6.35935C31.0473 6.2656 31.1879 6.24997 31.2816 6.3281C31.3754 6.40622 31.4066 6.54685 31.3285 6.6406L30.4223 7.78122C30.3441 7.87497 30.2035 7.8906 30.1098 7.81247Z" fill="#F3F3F3"/>
<path d="M30.0941 7.8281C29.9848 7.74997 29.9691 7.59372 30.0473 7.48435L30.9535 6.34372C31.0316 6.23435 31.1879 6.21872 31.2973 6.31247C31.4066 6.3906 31.4223 6.54685 31.3441 6.65622L30.4379 7.79685C30.3598 7.90622 30.2035 7.92185 30.0941 7.8281ZM31.266 6.34372C31.1723 6.2656 31.0473 6.28122 30.9691 6.37497L30.0629 7.5156C30.0004 7.60935 30.016 7.73435 30.1098 7.81247C30.2035 7.8906 30.3285 7.87497 30.4066 7.78122L31.3129 6.6406C31.3754 6.54685 31.3598 6.40622 31.266 6.34372Z" fill="white"/>
<path d="M29.9529 10.1563C29.8591 10.0625 29.8591 9.92189 29.9529 9.84376L32.2653 7.54689C32.3591 7.45314 32.4997 7.46876 32.5778 7.54689C32.656 7.62501 32.6716 7.78126 32.5778 7.85939L30.281 10.1563C30.1872 10.25 30.0466 10.25 29.9529 10.1563Z" fill="#F3F3F3"/>
<path d="M29.9377 10.1719C29.844 10.0781 29.844 9.92188 29.9377 9.82813L32.2502 7.53125C32.344 7.4375 32.5002 7.4375 32.594 7.53125C32.6877 7.625 32.6877 7.78125 32.594 7.875L30.2815 10.1719C30.1877 10.2656 30.0315 10.2656 29.9377 10.1719ZM32.5783 7.54688C32.5002 7.46875 32.3596 7.46875 32.2815 7.54688L29.969 9.84375C29.8908 9.92188 29.8908 10.0625 29.969 10.1406C30.0471 10.2188 30.1877 10.2188 30.2658 10.1406L32.5783 7.84375C32.6565 7.76562 32.6565 7.64063 32.5783 7.54688Z" fill="white"/>
<path d="M32.2972 10.0312C32.219 9.93747 32.219 9.79685 32.3128 9.71872L33.4222 8.78122C33.5159 8.7031 33.6565 8.71872 33.7347 8.81247C33.8128 8.90622 33.8128 9.04685 33.719 9.12497L32.6097 10.0625C32.5159 10.1406 32.3753 10.125 32.2972 10.0312Z" fill="#F3F3F3"/>
<path d="M32.2812 10.0468C32.1874 9.93747 32.2031 9.78122 32.2968 9.7031L33.4062 8.7656C33.4999 8.67185 33.6562 8.68747 33.7499 8.79685C33.8437 8.90622 33.8281 9.06247 33.7343 9.1406L32.6249 10.0781C32.5312 10.1718 32.3749 10.1562 32.2812 10.0468ZM33.7187 8.81247C33.6406 8.71872 33.5156 8.71872 33.4218 8.78122L32.3124 9.71872C32.2343 9.79685 32.2187 9.92185 32.2968 10.0156C32.3749 10.1093 32.4999 10.1093 32.5937 10.0468L33.7031 9.10935C33.7968 9.03122 33.7968 8.90622 33.7187 8.81247Z" fill="white"/>
<path d="M31.6719 12.2812C31.5938 12.1719 31.625 12.0312 31.7344 11.9687L34.4532 10.1562C34.5625 10.0937 34.7031 10.125 34.7656 10.2187C34.8438 10.3281 34.8125 10.4687 34.7032 10.5312L31.9844 12.3437C31.8907 12.4062 31.75 12.375 31.6719 12.2812Z" fill="#F3F3F3"/>
<path d="M31.6558 12.2812C31.5776 12.1719 31.6089 12.0156 31.7183 11.9375L34.437 10.125C34.5464 10.0469 34.7026 10.0781 34.7808 10.2031C34.8589 10.3125 34.8276 10.4687 34.7183 10.5469L31.9995 12.3594C31.8901 12.4375 31.7339 12.4062 31.6558 12.2812ZM34.7495 10.2344C34.687 10.1406 34.562 10.1094 34.4683 10.1719L31.7495 11.9844C31.6558 12.0469 31.6245 12.1719 31.7026 12.2812C31.7651 12.375 31.8901 12.4062 31.9839 12.3437L34.7026 10.5312C34.7964 10.4531 34.812 10.3281 34.7495 10.2344Z" fill="white"/>
<path d="M34.0001 12.6094C33.9376 12.5 33.9688 12.3594 34.0782 12.2969L35.3438 11.5782C35.4532 11.5157 35.5938 11.5625 35.6563 11.6719C35.7188 11.7813 35.6875 11.9219 35.5782 11.9844L34.3126 12.7032C34.2032 12.7657 34.0626 12.7188 34.0001 12.6094Z" fill="#F3F3F3"/>
<path d="M33.9839 12.625C33.9214 12.5 33.9527 12.3594 34.0621 12.2969L35.3277 11.5782C35.4371 11.5157 35.5933 11.5625 35.6558 11.6719C35.7183 11.7969 35.6871 11.9375 35.5777 12L34.3121 12.7188C34.2027 12.7813 34.0464 12.7344 33.9839 12.625ZM35.6402 11.6875C35.5777 11.5782 35.4527 11.5469 35.3589 11.6094L34.0933 12.3282C33.9996 12.3907 33.9683 12.5157 34.0152 12.6094C34.0777 12.7188 34.2027 12.75 34.2964 12.6875L35.5621 11.9688C35.6558 11.9219 35.6871 11.7969 35.6402 11.6875Z" fill="white"/>
<path d="M32.9528 14.6875C32.9059 14.5625 32.9528 14.4375 33.0778 14.3906L36.0934 13.1406C36.2028 13.0937 36.3434 13.1562 36.3903 13.2656C36.4371 13.3906 36.3903 13.5156 36.2653 13.5625L33.2496 14.8125C33.1403 14.8594 32.9996 14.8125 32.9528 14.6875Z" fill="#F3F3F3"/>
<path d="M32.9377 14.7031C32.8908 14.5781 32.9377 14.4375 33.0627 14.375L36.0783 13.125C36.2033 13.0781 36.3439 13.1406 36.3908 13.2656C36.4376 13.3906 36.3908 13.5312 36.2658 13.5937L33.2502 14.8437C33.1252 14.8906 32.9845 14.8281 32.9377 14.7031ZM36.3595 13.2812C36.3126 13.1719 36.1876 13.125 36.0939 13.1562L33.0783 14.4062C32.9689 14.4531 32.922 14.5781 32.9689 14.6875C33.0158 14.7969 33.1408 14.8438 33.2345 14.8125L36.2501 13.5625C36.3595 13.5156 36.4064 13.3906 36.3595 13.2812Z" fill="white"/>
<path d="M35.1562 15.4688C35.1093 15.3438 35.1718 15.2188 35.2968 15.1719L36.6718 14.7188C36.7812 14.6719 36.9218 14.75 36.953 14.8594C36.9999 14.9844 36.9374 15.1094 36.8124 15.1563L35.4374 15.6094C35.328 15.6563 35.203 15.5938 35.1562 15.4688Z" fill="#F3F3F3"/>
<path d="M35.1409 15.4844C35.094 15.3594 35.1565 15.2188 35.2971 15.1719L36.6721 14.7188C36.7971 14.6719 36.9377 14.75 36.9846 14.875C37.0315 15 36.969 15.1406 36.8284 15.1875L35.4534 15.6406C35.3284 15.6719 35.1878 15.6094 35.1409 15.4844ZM36.9534 14.8906C36.9221 14.7813 36.7971 14.7188 36.6877 14.75L35.3128 15.2031C35.2034 15.2344 35.1565 15.3594 35.1878 15.4688C35.219 15.5781 35.344 15.6406 35.4534 15.6094L36.8284 15.1563C36.9377 15.1094 36.9846 15 36.9534 14.8906Z" fill="white"/>
<path d="M33.7503 17.3281C33.719 17.2031 33.7972 17.0781 33.9222 17.0625L37.1253 16.4375C37.2503 16.4063 37.3597 16.5 37.3909 16.625C37.4222 16.75 37.344 16.875 37.219 16.8906L34.0159 17.5156C33.8909 17.5313 33.7659 17.4531 33.7503 17.3281Z" fill="#F3F3F3"/>
<path d="M33.7182 17.3281C33.687 17.1875 33.7807 17.0625 33.9057 17.0312L37.1088 16.4062C37.2338 16.375 37.3588 16.4687 37.3901 16.6094C37.4213 16.75 37.3276 16.875 37.2026 16.9062L33.9995 17.5312C33.8745 17.5625 33.7495 17.4687 33.7182 17.3281ZM37.3588 16.625C37.3432 16.5156 37.2338 16.4375 37.1245 16.4531L33.9213 17.0781C33.812 17.0937 33.7338 17.2187 33.7651 17.3281C33.7807 17.4375 33.8901 17.5156 33.9995 17.5L37.2026 16.875C37.312 16.8437 37.3901 16.7344 37.3588 16.625Z" fill="white"/>
<path d="M35.7504 18.5312C35.7348 18.4062 35.8129 18.2969 35.9379 18.2812L37.3754 18.1094C37.5004 18.0937 37.6098 18.1875 37.6254 18.3125C37.641 18.4375 37.5629 18.5469 37.4379 18.5625L36.0004 18.7344C35.8911 18.75 35.766 18.6562 35.7504 18.5312Z" fill="#F3F3F3"/>
<path d="M35.734 18.5312C35.7184 18.3906 35.8122 18.2656 35.9372 18.25L37.3747 18.0781C37.4997 18.0625 37.6247 18.1562 37.6403 18.2969C37.6559 18.4375 37.5622 18.5625 37.4372 18.5781L35.9997 18.75C35.8747 18.7656 35.7497 18.6719 35.734 18.5312ZM37.6247 18.3125C37.609 18.2031 37.4997 18.1094 37.3903 18.125L35.9528 18.2969C35.8434 18.3125 35.7653 18.4219 35.7809 18.5312C35.7965 18.6406 35.9059 18.7344 36.0153 18.7187L37.4528 18.5469C37.5622 18.5312 37.6403 18.4219 37.6247 18.3125Z" fill="white"/>
<path d="M34.0005 20.0469C34.0005 19.9219 34.0942 19.8125 34.2192 19.8125H37.4849C37.6099 19.8125 37.7036 19.9219 37.7036 20.0469C37.7036 20.1719 37.6099 20.2812 37.4849 20.2812H34.2192C34.0942 20.2812 34.0005 20.1719 34.0005 20.0469Z" fill="#F3F3F3"/>
<path d="M33.9843 20.0469C33.9843 19.9063 34.0937 19.7969 34.2187 19.7969H37.4843C37.6093 19.7969 37.7187 19.9063 37.7187 20.0469C37.7187 20.1875 37.6093 20.2969 37.4843 20.2969H34.2187C34.0937 20.2969 33.9843 20.1875 33.9843 20.0469ZM37.6875 20.0625C37.6875 19.9531 37.5937 19.8438 37.4843 19.8438H34.2187C34.1093 19.8438 34.0156 19.9375 34.0156 20.0625C34.0156 20.1719 34.1093 20.2812 34.2187 20.2812H37.4843C37.5937 20.2656 37.6875 20.1719 37.6875 20.0625Z" fill="white"/>
<path d="M35.7343 21.625C35.75 21.5 35.8437 21.4062 35.9687 21.4062L37.4218 21.5156C37.5468 21.5312 37.6406 21.6406 37.625 21.7656C37.6093 21.8906 37.5156 21.9844 37.3906 21.9844L35.9375 21.875C35.8281 21.8594 35.7343 21.75 35.7343 21.625Z" fill="#F3F3F3"/>
<path d="M35.7192 21.625C35.7349 21.4844 35.8442 21.3906 35.9692 21.3906L37.4224 21.5C37.5474 21.5156 37.6567 21.625 37.6411 21.7656C37.6255 21.9063 37.5161 22 37.3911 22L35.938 21.8906C35.813 21.875 35.7192 21.75 35.7192 21.625ZM37.6255 21.7656C37.6411 21.6563 37.5474 21.5469 37.438 21.5469L35.9849 21.4375C35.8755 21.4375 35.7817 21.5156 35.7661 21.6406C35.7505 21.75 35.8442 21.8594 35.9536 21.8594L37.4067 21.9688C37.5161 21.9688 37.6099 21.875 37.6255 21.7656Z" fill="white"/>
<path d="M33.7192 22.7657C33.7504 22.6407 33.8598 22.5625 33.9848 22.5782L37.1879 23.2188C37.3129 23.25 37.3911 23.3594 37.3598 23.4844C37.3286 23.6094 37.2192 23.6875 37.0942 23.6719L33.8911 23.0313C33.7817 23.0157 33.7036 22.8907 33.7192 22.7657Z" fill="#F3F3F3"/>
<path d="M33.7031 22.7656C33.7343 22.625 33.8593 22.5469 33.9843 22.5625L37.1874 23.2031C37.3124 23.2344 37.4062 23.3594 37.3749 23.5C37.3437 23.6406 37.2187 23.7188 37.0937 23.7031L33.8906 23.0625C33.7656 23.0313 33.6874 22.9063 33.7031 22.7656ZM37.3437 23.5C37.3593 23.3906 37.2968 23.2813 37.1874 23.25L33.9843 22.6094C33.8749 22.5938 33.7656 22.6563 33.7343 22.7813C33.7187 22.8906 33.7812 23 33.8906 23.0313L37.0937 23.6719C37.2187 23.6875 37.3124 23.6094 37.3437 23.5Z" fill="white"/>
<path d="M35.1254 24.6406C35.1566 24.5156 35.2816 24.4375 35.4066 24.4687L36.8129 24.8594C36.9379 24.8906 37.0004 25.0156 36.9691 25.1406C36.9379 25.2656 36.8129 25.3437 36.6879 25.3125L35.2816 24.9219C35.1566 24.8906 35.0941 24.7656 35.1254 24.6406Z" fill="#F3F3F3"/>
<path d="M35.1092 24.6406C35.1404 24.5156 35.2811 24.4219 35.4061 24.4688L36.8123 24.8594C36.9373 24.8906 37.0154 25.0313 36.9842 25.1563C36.9529 25.2813 36.8123 25.375 36.6873 25.3281L35.2811 24.9375C35.1561 24.9063 35.0779 24.7813 35.1092 24.6406ZM36.9373 25.1563C36.9685 25.0469 36.906 24.9219 36.7967 24.8906L35.3904 24.5C35.2811 24.4688 35.1717 24.5313 35.1404 24.6563C35.1092 24.7656 35.1717 24.8906 35.2811 24.9219L36.6873 25.3125C36.7967 25.3281 36.906 25.2656 36.9373 25.1563Z" fill="white"/>
<path d="M32.9215 25.3906C32.9684 25.2656 33.109 25.2188 33.2184 25.2656L36.234 26.5156C36.3434 26.5625 36.4059 26.7031 36.359 26.8125C36.3121 26.9375 36.1715 26.9844 36.0621 26.9375L33.0465 25.6875C32.9215 25.6406 32.8746 25.5 32.9215 25.3906Z" fill="#F3F3F3"/>
<path d="M32.9064 25.375C32.9533 25.25 33.0939 25.1875 33.2189 25.2344L36.2345 26.4844C36.3595 26.5313 36.4064 26.6719 36.3595 26.8125C36.3127 26.9375 36.172 27 36.047 26.9531L33.0314 25.7031C32.9064 25.6406 32.8595 25.5 32.9064 25.375ZM36.3283 26.7969C36.3752 26.6875 36.3283 26.5625 36.2189 26.5156L33.2033 25.2656C33.0939 25.2188 32.9845 25.2812 32.9377 25.3906C32.8908 25.5 32.9377 25.625 33.047 25.6719L36.0627 26.9219C36.172 26.9531 36.297 26.9063 36.3283 26.7969Z" fill="white"/>
<path d="M33.9378 27.5C34.0003 27.3907 34.1253 27.3438 34.2346 27.3907L35.5315 28.0469C35.6409 28.0938 35.6878 28.2344 35.6253 28.3594C35.5628 28.4688 35.4378 28.5157 35.3284 28.4688L34.0315 27.8125C33.9221 27.75 33.8753 27.6094 33.9378 27.5Z" fill="#F3F3F3"/>
<path d="M33.9222 27.4844C33.9847 27.3594 34.1253 27.3125 34.2503 27.375L35.5472 28.0313C35.6722 28.0938 35.7191 28.2344 35.6566 28.3594C35.5941 28.4844 35.4534 28.5313 35.3284 28.4688L34.0316 27.8125C33.9066 27.7657 33.8597 27.6094 33.9222 27.4844ZM35.6097 28.3438C35.6566 28.2344 35.6253 28.1094 35.5159 28.0625L34.2191 27.4063C34.1253 27.3594 34.0003 27.4063 33.9378 27.5C33.8909 27.6094 33.9222 27.7344 34.0316 27.7813L35.3284 28.4375C35.4378 28.4844 35.5628 28.4532 35.6097 28.3438Z" fill="white"/>
<path d="M31.6407 27.7969C31.7188 27.6875 31.8438 27.6563 31.9532 27.7344L34.6719 29.5469C34.7813 29.6094 34.7969 29.75 34.7344 29.8594C34.6563 29.9688 34.5313 30 34.4219 29.9219L31.7032 28.1094C31.5938 28.0313 31.5625 27.8906 31.6407 27.7969Z" fill="#F3F3F3"/>
<path d="M31.6248 27.7812C31.703 27.6719 31.8592 27.6406 31.9686 27.7031L34.6873 29.5156C34.7967 29.5937 34.828 29.7344 34.7498 29.8594C34.6717 29.9687 34.5155 30 34.4061 29.9375L31.6873 28.125C31.5623 28.0469 31.5467 27.8906 31.6248 27.7812ZM34.703 29.8437C34.7655 29.75 34.7498 29.6094 34.6561 29.5469L31.9373 27.7344C31.8436 27.6719 31.7186 27.7031 31.6561 27.7969C31.5936 27.8906 31.6092 28.0312 31.703 28.0937L34.4217 29.9062C34.5155 29.9687 34.6405 29.9375 34.703 29.8437Z" fill="white"/>
<path d="M32.2188 30.0625C32.297 29.9687 32.4376 29.9375 32.5313 30.0156L33.672 30.9062C33.7657 30.9843 33.7813 31.125 33.7032 31.2187C33.6251 31.3125 33.4845 31.3437 33.3907 31.2656L32.2501 30.375C32.1563 30.2968 32.1407 30.1562 32.2188 30.0625Z" fill="#F3F3F3"/>
<path d="M32.2035 30.0469C32.2816 29.9375 32.4379 29.9219 32.5473 30L33.6879 30.8906C33.7973 30.9688 33.8129 31.125 33.7348 31.2344C33.6566 31.3438 33.5004 31.3594 33.391 31.2813L32.2504 30.3906C32.141 30.3125 32.1254 30.1562 32.2035 30.0469ZM33.7035 31.2188C33.7816 31.125 33.766 31 33.6723 30.9219L32.5316 30.0313C32.4379 29.9688 32.3129 29.9844 32.2348 30.0781C32.1566 30.1719 32.1723 30.2969 32.266 30.375L33.4066 31.2656C33.5004 31.3281 33.6254 31.3125 33.7035 31.2188Z" fill="white"/>
<path d="M29.8907 29.9062C29.9845 29.8125 30.1251 29.8125 30.2032 29.9062L32.5157 32.2031C32.6095 32.2969 32.5938 32.4375 32.5157 32.5156C32.422 32.6094 32.2813 32.6094 32.2032 32.5156L29.8907 30.2187C29.8126 30.1406 29.8126 29.9844 29.8907 29.9062Z" fill="#F3F3F3"/>
<path d="M29.891 29.8906C29.9847 29.7969 30.141 29.7969 30.2347 29.8906L32.5472 32.1875C32.641 32.2813 32.641 32.4375 32.5472 32.5313C32.4535 32.625 32.2972 32.625 32.2035 32.5313L29.891 30.2344C29.7816 30.1406 29.7816 29.9844 29.891 29.8906ZM32.516 32.5C32.5941 32.4219 32.5941 32.2813 32.516 32.2031L30.2035 29.9063C30.1253 29.8281 29.9847 29.8281 29.9066 29.9063C29.8285 29.9844 29.8285 30.125 29.9066 30.2031L32.2191 32.5C32.2972 32.5938 32.4222 32.5938 32.516 32.5Z" fill="white"/>
<path d="M30.0313 32.2344C30.1251 32.1563 30.2657 32.1563 30.3438 32.25L31.297 33.3438C31.3751 33.4375 31.3595 33.5781 31.2657 33.6563C31.172 33.7344 31.0313 33.7344 30.9532 33.6406L30.0001 32.5469C29.922 32.4688 29.9376 32.3281 30.0313 32.2344Z" fill="#F3F3F3"/>
<path d="M30.0153 32.2344C30.1247 32.1406 30.2653 32.1562 30.3591 32.25L31.3122 33.3437C31.4059 33.4375 31.3903 33.5937 31.2809 33.6875C31.1716 33.7812 31.0309 33.7656 30.9372 33.6719L29.9841 32.5781C29.9059 32.4687 29.9059 32.3125 30.0153 32.2344ZM31.2653 33.6562C31.3591 33.5781 31.3591 33.4531 31.2966 33.3594L30.3434 32.2656C30.2653 32.1875 30.1403 32.1719 30.0466 32.25C29.9528 32.3281 29.9528 32.4531 30.0153 32.5469L30.9684 33.6406C31.0466 33.7344 31.1716 33.7344 31.2653 33.6562Z" fill="white"/>
<path d="M27.781 31.6406C27.8903 31.5625 28.031 31.5938 28.0935 31.7031L29.906 34.4063C29.9685 34.5156 29.9372 34.6563 29.8435 34.7188C29.7341 34.7969 29.5935 34.7656 29.531 34.6563L27.7185 31.9531C27.656 31.8438 27.6872 31.7031 27.781 31.6406Z" fill="#F3F3F3"/>
<path d="M27.7815 31.625C27.8909 31.5469 28.0471 31.5781 28.1252 31.6875L29.9377 34.3906C30.0159 34.5 29.9846 34.6563 29.8596 34.7344C29.7502 34.8125 29.594 34.7813 29.5159 34.6719L27.7034 31.9688C27.6252 31.8438 27.6565 31.7031 27.7815 31.625ZM29.844 34.7031C29.9377 34.6406 29.969 34.5156 29.9065 34.4219L28.094 31.7188C28.0315 31.625 27.9065 31.6094 27.7971 31.6719C27.7034 31.7344 27.6721 31.8594 27.7346 31.9531L29.5471 34.6563C29.6096 34.7344 29.7502 34.7656 29.844 34.7031Z" fill="white"/>
<path d="M27.453 33.9531C27.5624 33.8906 27.703 33.9219 27.7655 34.0312L28.4843 35.2969C28.5468 35.4063 28.4999 35.5469 28.3905 35.6094C28.2811 35.6719 28.1405 35.6406 28.078 35.5313L27.3593 34.2656C27.3124 34.1562 27.3436 34.0156 27.453 33.9531Z" fill="#F3F3F3"/>
<path d="M27.4531 33.9375C27.5781 33.875 27.7187 33.9062 27.7812 34.0156L28.5 35.2812C28.5625 35.3906 28.5312 35.5469 28.4062 35.6094C28.2812 35.6719 28.1406 35.6406 28.0781 35.5312L27.3593 34.2656C27.2968 34.1562 27.3281 34.0156 27.4531 33.9375ZM28.3906 35.5937C28.4843 35.5312 28.5312 35.4062 28.4687 35.3125L27.75 34.0469C27.6875 33.9531 27.5625 33.9219 27.4687 33.9687C27.375 34.0312 27.3281 34.1562 27.3906 34.25L28.1093 35.5156C28.1562 35.6094 28.2968 35.6562 28.3906 35.5937Z" fill="white"/>
<path d="M25.3751 32.9219C25.5001 32.875 25.6251 32.9219 25.672 33.0313L26.9376 36.0469C26.9845 36.1563 26.922 36.2969 26.8126 36.3438C26.7032 36.3907 26.5626 36.3438 26.5157 36.2344L25.2501 33.2188C25.2032 33.1094 25.2657 32.9688 25.3751 32.9219Z" fill="#F3F3F3"/>
<path d="M25.3754 32.9063C25.5004 32.8594 25.6411 32.9063 25.7036 33.0313L26.9692 36.0469C27.0161 36.1719 26.9536 36.3125 26.8286 36.3594C26.7036 36.4062 26.5629 36.3594 26.5004 36.2344L25.2348 33.2188C25.1879 33.1094 25.2504 32.9688 25.3754 32.9063ZM26.7973 36.3281C26.9067 36.2812 26.9536 36.1562 26.9067 36.0625L25.6411 33.0469C25.5942 32.9375 25.4692 32.8906 25.3598 32.9375C25.2504 32.9844 25.2036 33.1094 25.2504 33.2031L26.5161 36.2187C26.5786 36.3281 26.6879 36.375 26.7973 36.3281Z" fill="white"/>
<path d="M24.6093 35.1406C24.7343 35.0937 24.8593 35.1562 24.9062 35.2812L25.3593 36.6563C25.4062 36.7656 25.328 36.9063 25.2187 36.9375C25.0937 36.9844 24.9687 36.9219 24.9218 36.7969L24.4687 35.4219C24.4218 35.3125 24.4843 35.1875 24.6093 35.1406Z" fill="#F3F3F3"/>
<path d="M24.5941 35.125C24.7191 35.0781 24.8597 35.1406 24.9066 35.2656L25.3597 36.6406C25.4066 36.7656 25.3285 36.9063 25.2035 36.9531C25.0785 37 24.9379 36.9375 24.891 36.8125L24.4379 35.4375C24.4066 35.3125 24.4691 35.1719 24.5941 35.125ZM25.2035 36.9219C25.3129 36.8906 25.3754 36.7656 25.3441 36.6563L24.891 35.2812C24.8597 35.1719 24.7347 35.125 24.6254 35.1563C24.516 35.1875 24.4535 35.3125 24.4847 35.4219L24.9379 36.7969C24.9691 36.9063 25.0941 36.9687 25.2035 36.9219Z" fill="white"/>
<path d="M22.7656 33.7188C22.8906 33.6876 23.0156 33.7657 23.0312 33.8907L23.6874 37.0938C23.7187 37.2188 23.6249 37.3282 23.4999 37.3594C23.3749 37.3907 23.2499 37.3126 23.2343 37.1876L22.5781 33.9844C22.5624 33.8751 22.6406 33.7501 22.7656 33.7188Z" fill="#F3F3F3"/>
<path d="M22.7654 33.7031C22.906 33.6719 23.031 33.7656 23.0623 33.8906L23.7185 37.0938C23.7498 37.2188 23.656 37.3594 23.531 37.375C23.3904 37.4063 23.2654 37.3125 23.2341 37.1875L22.5779 33.9844C22.5466 33.8594 22.6248 33.7344 22.7654 33.7031ZM23.4998 37.3438C23.6091 37.3281 23.6873 37.2188 23.6716 37.0938L23.0154 33.8906C22.9998 33.7813 22.8748 33.7031 22.7654 33.7344C22.656 33.75 22.5779 33.8594 22.5935 33.9844L23.2498 37.1875C23.281 37.2969 23.3904 37.3594 23.4998 37.3438Z" fill="white"/>
<path d="M21.5783 35.75C21.7033 35.7344 21.8126 35.8125 21.8439 35.9375L22.0314 37.375C22.047 37.5 21.9533 37.6094 21.8283 37.625C21.7033 37.6407 21.5939 37.5625 21.5626 37.4375L21.3751 36C21.3595 35.875 21.4533 35.7657 21.5783 35.75Z" fill="#F3F3F3"/>
<path d="M21.5778 35.7344C21.7184 35.7187 21.8434 35.8125 21.859 35.9375L22.0465 37.375C22.0622 37.5 21.9684 37.625 21.8278 37.6406C21.6872 37.6562 21.5622 37.5625 21.5465 37.4375L21.359 36C21.3434 35.875 21.4372 35.75 21.5778 35.7344ZM21.8122 37.6094C21.9215 37.5937 22.0153 37.4844 21.9997 37.375L21.8122 35.9375C21.7965 35.8281 21.6872 35.75 21.5778 35.7656C21.4684 35.7812 21.3747 35.8906 21.3903 36L21.5778 37.4375C21.5934 37.5469 21.7028 37.625 21.8122 37.6094Z" fill="white"/>
<path d="M19.9687 34C20.0937 34 20.2031 34.0937 20.2031 34.2187V37.4844C20.2031 37.6094 20.0937 37.7031 19.9687 37.7031C19.8437 37.7031 19.7343 37.6094 19.7343 37.4844V34.2187C19.75 34.0937 19.8437 34 19.9687 34Z" fill="#F3F3F3"/>
<path d="M19.9682 33.9844C20.1088 33.9844 20.2182 34.0938 20.2182 34.2188V37.4844C20.2182 37.6094 20.1088 37.7188 19.9682 37.7188C19.8276 37.7188 19.7182 37.6094 19.7182 37.4844V34.2188C19.7182 34.0938 19.8432 33.9844 19.9682 33.9844ZM19.9682 37.6875C20.0776 37.6875 20.1869 37.5938 20.1869 37.4844V34.2188C20.1869 34.1094 20.0932 34.0156 19.9682 34.0156C19.8588 34.0156 19.7495 34.1094 19.7495 34.2188V37.4844C19.7651 37.5938 19.8588 37.6875 19.9682 37.6875Z" fill="white"/>
<path d="M18.4062 35.75C18.5312 35.7656 18.625 35.8594 18.625 35.9844L18.5156 37.4375C18.5 37.5625 18.3906 37.6562 18.2656 37.6406C18.1406 37.625 18.0468 37.5312 18.0468 37.4062L18.1562 35.9531C18.1718 35.8281 18.2812 35.7344 18.4062 35.75Z" fill="#F3F3F3"/>
<path d="M18.4057 35.7344C18.5463 35.75 18.6401 35.8594 18.6401 35.9844L18.5307 37.4375C18.5151 37.5625 18.4057 37.6719 18.2651 37.6562C18.1245 37.6406 18.0307 37.5312 18.0307 37.4062L18.1401 35.9531C18.1557 35.8125 18.2651 35.7187 18.4057 35.7344ZM18.2651 37.625C18.3744 37.625 18.4838 37.5469 18.4838 37.4375L18.5932 35.9844C18.5932 35.875 18.5151 35.7812 18.3901 35.7656C18.2807 35.7656 18.1713 35.8437 18.1713 35.9531L18.062 37.4062C18.062 37.5156 18.1557 37.6094 18.2651 37.625Z" fill="white"/>
<path d="M17.2343 33.7187C17.3593 33.75 17.4374 33.8594 17.4218 33.9844L16.7812 37.1875C16.7499 37.3125 16.6406 37.3906 16.5156 37.3594C16.3906 37.3281 16.3124 37.2187 16.3281 37.0937L16.9687 33.8906C16.9843 33.7812 17.1093 33.7031 17.2343 33.7187Z" fill="#F3F3F3"/>
<path d="M17.2343 33.7031C17.3749 33.7343 17.4531 33.8593 17.4374 33.9843L16.7968 37.1875C16.7656 37.3125 16.6406 37.4062 16.4999 37.375C16.3593 37.3437 16.2812 37.2187 16.2968 37.0937L16.9374 33.8906C16.9687 33.7656 17.0937 33.6875 17.2343 33.7031ZM16.4999 37.3437C16.6093 37.3593 16.7187 37.2968 16.7499 37.1875L17.3906 33.9843C17.4062 33.875 17.3437 33.7656 17.2187 33.7343C17.1093 33.7187 16.9999 33.7812 16.9687 33.8906L16.3281 37.0937C16.3124 37.2187 16.3906 37.3125 16.4999 37.3437Z" fill="white"/>
<path d="M15.3597 35.125C15.4847 35.1563 15.5628 35.2813 15.5316 35.4063L15.1409 36.8125C15.1097 36.9375 14.9847 37 14.8597 36.9688C14.7347 36.9375 14.6565 36.8125 14.6878 36.6875L15.0784 35.2813C15.1097 35.1563 15.2347 35.0938 15.3597 35.125Z" fill="#F3F3F3"/>
<path d="M15.3595 35.1094C15.4845 35.1407 15.5783 35.2813 15.5314 35.4063L15.1408 36.8126C15.1095 36.9376 14.9689 37.0157 14.8439 36.9844C14.7189 36.9532 14.6252 36.8126 14.672 36.6876L15.0627 35.2813C15.0939 35.1563 15.2189 35.0782 15.3595 35.1094ZM14.8439 36.9376C14.9533 36.9688 15.0783 36.9063 15.1095 36.7969L15.5002 35.3907C15.5314 35.2813 15.4689 35.1719 15.3439 35.1407C15.2345 35.1094 15.1095 35.1719 15.0783 35.2813L14.6877 36.6876C14.672 36.7969 14.7345 36.9063 14.8439 36.9376Z" fill="white"/>
<path d="M14.5933 32.9219C14.7183 32.9687 14.7652 33.1094 14.7183 33.2187L13.4683 36.2344C13.4214 36.3437 13.2808 36.4062 13.1714 36.3437C13.0621 36.2812 12.9996 36.1562 13.0464 36.0469L14.2964 33.0312C14.3433 32.9219 14.4839 32.8594 14.5933 32.9219Z" fill="#F3F3F3"/>
<path d="M14.5942 32.9062C14.7192 32.9531 14.7817 33.0937 14.7348 33.2187L13.4848 36.2344C13.4379 36.3594 13.2973 36.4062 13.1567 36.3594C13.0317 36.3125 12.9692 36.1719 13.0161 36.0469L14.2661 33.0312C14.3286 32.9062 14.4692 32.8437 14.5942 32.9062ZM13.1723 36.3281C13.2817 36.375 13.4067 36.3281 13.4536 36.2187L14.7036 33.2031C14.7504 33.0937 14.6879 32.9844 14.5786 32.9375C14.4692 32.8906 14.3442 32.9375 14.2973 33.0469L13.0473 36.0625C13.0161 36.1562 13.0629 36.2812 13.1723 36.3281Z" fill="white"/>
<path d="M12.4843 33.9219C12.5937 33.9844 12.6405 34.1094 12.5937 34.2188L11.9374 35.5157C11.8749 35.625 11.7499 35.6719 11.6249 35.6094C11.5155 35.5469 11.4687 35.4219 11.5155 35.3125L12.1718 34.0157C12.2343 33.9063 12.3593 33.8594 12.4843 33.9219Z" fill="#F3F3F3"/>
<path d="M12.4842 33.9063C12.6092 33.9688 12.6561 34.1094 12.5936 34.2344L11.9373 35.5313C11.8748 35.6563 11.7342 35.7032 11.6092 35.6407C11.4842 35.5782 11.4373 35.4375 11.4998 35.3125L12.1561 34.0157C12.2186 33.8907 12.3592 33.8438 12.4842 33.9063ZM11.6248 35.6094C11.7342 35.6563 11.8592 35.625 11.9061 35.5157L12.5623 34.2188C12.6092 34.125 12.5623 34 12.4686 33.9375C12.3592 33.8907 12.2342 33.9219 12.1873 34.0313L11.5311 35.3282C11.4842 35.4219 11.5311 35.5469 11.6248 35.6094Z" fill="white"/>
<path d="M12.1719 31.6094C12.2813 31.6875 12.3125 31.8281 12.2344 31.9219L10.4219 34.625C10.3594 34.7344 10.2188 34.75 10.1094 34.6875C10 34.6094 9.96878 34.4687 10.0469 34.375L11.8594 31.6719C11.9219 31.5625 12.0625 31.5313 12.1719 31.6094Z" fill="#F3F3F3"/>
<path d="M12.1714 31.5938C12.2808 31.6719 12.3121 31.8281 12.2496 31.9375L10.4371 34.6406C10.3589 34.75 10.2183 34.7813 10.0933 34.7031C9.98394 34.625 9.95269 34.4688 10.0152 34.3594L11.8277 31.6563C11.9058 31.5469 12.0621 31.5156 12.1714 31.5938ZM10.1089 34.6719C10.2027 34.7344 10.3433 34.7188 10.4058 34.625L12.2183 31.9219C12.2808 31.8281 12.2496 31.7031 12.1558 31.6406C12.0621 31.5781 11.9214 31.5938 11.8589 31.6875L10.0464 34.375C9.98394 34.4688 10.0152 34.6094 10.1089 34.6719Z" fill="white"/>
<path d="M9.89053 32.1875C9.98428 32.2656 10.0155 32.4062 9.93741 32.5L9.03116 33.6406C8.95303 33.7343 8.81241 33.75 8.71866 33.6718C8.62491 33.5937 8.59366 33.4531 8.67178 33.3593L9.57803 32.2187C9.65616 32.125 9.79678 32.1093 9.89053 32.1875Z" fill="#F3F3F3"/>
<path d="M9.90616 32.1718C10.0155 32.25 10.0312 32.4062 9.95303 32.5156L9.04678 33.6562C8.96866 33.7656 8.81241 33.7812 8.70303 33.6875C8.59366 33.6093 8.57803 33.4531 8.65616 33.3437L9.56241 32.2031C9.64053 32.0937 9.79678 32.0781 9.90616 32.1718ZM8.73428 33.6562C8.82803 33.7343 8.95303 33.7187 9.03116 33.625L9.93741 32.4843C9.99991 32.3906 9.98428 32.2656 9.89053 32.1875C9.79678 32.1093 9.67178 32.125 9.59366 32.2187L8.68741 33.3593C8.62491 33.4531 8.64053 33.5937 8.73428 33.6562Z" fill="white"/>
<path d="M10.0469 29.8438C10.1407 29.9375 10.1407 30.0781 10.0469 30.1563L7.73442 32.4531C7.64067 32.5469 7.50004 32.5313 7.42192 32.4531C7.34379 32.375 7.32817 32.2188 7.42192 32.1406L9.71879 29.8438C9.81254 29.75 9.95317 29.75 10.0469 29.8438Z" fill="#F3F3F3"/>
<path d="M10.0627 29.8281C10.1565 29.9219 10.1565 30.0781 10.0627 30.1719L7.75021 32.4687C7.65646 32.5625 7.50021 32.5625 7.40646 32.4687C7.31271 32.375 7.31271 32.2187 7.40646 32.125L9.71896 29.8281C9.81271 29.7344 9.96896 29.7344 10.0627 29.8281ZM7.42209 32.4531C7.50021 32.5312 7.64084 32.5312 7.71896 32.4531L10.0315 30.1562C10.1096 30.0781 10.1096 29.9375 10.0315 29.8594C9.95333 29.7813 9.81271 29.7813 9.73459 29.8594L7.42209 32.1562C7.34396 32.2344 7.34396 32.3594 7.42209 32.4531Z" fill="white"/>
<path d="M7.70341 29.9687C7.78154 30.0625 7.78154 30.2031 7.68779 30.2812L6.57841 31.2187C6.48466 31.2968 6.34404 31.2812 6.26591 31.1875C6.18779 31.0937 6.18779 30.9531 6.28154 30.875L7.39091 29.9375C7.48466 29.8593 7.62529 29.875 7.70341 29.9687Z" fill="#F3F3F3"/>
<path d="M7.71869 29.9531C7.81244 30.0625 7.79681 30.2187 7.70306 30.2968L6.59369 31.2343C6.49994 31.3281 6.34369 31.3125 6.24994 31.2031C6.15619 31.0937 6.17181 30.9375 6.26556 30.8593L7.37494 29.9218C7.46869 29.8281 7.62494 29.8437 7.71869 29.9531ZM6.28119 31.1875C6.35931 31.2812 6.48431 31.2812 6.57806 31.2187L7.68744 30.2812C7.76556 30.2031 7.78119 30.0781 7.70306 29.9843C7.62494 29.8906 7.49994 29.8906 7.40619 29.9531L6.29681 30.8906C6.20306 30.9687 6.20306 31.0937 6.28119 31.1875Z" fill="white"/>
<path d="M8.32816 27.7187C8.40628 27.8281 8.37503 27.9687 8.26566 28.0312L5.54691 29.8437C5.43753 29.9062 5.29691 29.875 5.23441 29.7812C5.15628 29.6719 5.18753 29.5312 5.29691 29.4687L8.01566 27.6562C8.10941 27.5937 8.25003 27.625 8.32816 27.7187Z" fill="#F3F3F3"/>
<path d="M8.34326 27.7187C8.42139 27.8281 8.39014 27.9844 8.28076 28.0625L5.56201 29.875C5.45264 29.9531 5.29639 29.9219 5.21826 29.7969C5.14014 29.6875 5.17139 29.5312 5.28076 29.4531L7.99951 27.6406C8.10889 27.5625 8.26514 27.5937 8.34326 27.7187ZM5.24951 29.7656C5.31201 29.8594 5.43701 29.8906 5.53076 29.8281L8.24951 28.0156C8.34326 27.9531 8.37451 27.8281 8.29639 27.7187C8.23389 27.625 8.10889 27.5937 8.01514 27.6562L5.29639 29.4687C5.20264 29.5469 5.18701 29.6719 5.24951 29.7656Z" fill="white"/>
<path d="M6.00005 27.3907C6.06255 27.5 6.0313 27.6407 5.92193 27.7032L4.6563 28.4219C4.54693 28.4844 4.4063 28.4375 4.3438 28.3282C4.2813 28.2188 4.31255 28.0782 4.42193 28.0157L5.68755 27.2969C5.79693 27.2344 5.93755 27.2813 6.00005 27.3907Z" fill="#F3F3F3"/>
<path d="M6.01568 27.375C6.07818 27.5 6.04693 27.6407 5.93755 27.7032L4.67193 28.4219C4.56256 28.4844 4.4063 28.4375 4.3438 28.3282C4.2813 28.2032 4.31255 28.0625 4.42193 28L5.68755 27.2813C5.79693 27.2188 5.95318 27.2657 6.01568 27.375ZM4.35943 28.3125C4.42193 28.4219 4.54693 28.4532 4.64068 28.3907L5.9063 27.6719C6.00005 27.6094 6.0313 27.4844 5.98443 27.3907C5.92193 27.2813 5.79693 27.25 5.70318 27.3125L4.43756 28.0313C4.34381 28.0782 4.31256 28.2032 4.35943 28.3125Z" fill="white"/>
<path d="M7.04652 25.3125C7.09339 25.4375 7.04652 25.5625 6.92152 25.6094L3.90589 26.8594C3.79652 26.9063 3.65589 26.8438 3.60902 26.7344C3.56214 26.6094 3.60902 26.4844 3.73402 26.4375L6.74964 25.1875C6.85902 25.1406 6.99964 25.1875 7.04652 25.3125Z" fill="#F3F3F3"/>
<path d="M7.06214 25.2969C7.10901 25.4219 7.06214 25.5625 6.93714 25.625L3.92152 26.875C3.79652 26.9219 3.65589 26.8594 3.60902 26.7344C3.56214 26.6094 3.60902 26.4688 3.73402 26.4063L6.74964 25.1562C6.87464 25.1094 7.01526 25.1719 7.06214 25.2969ZM3.64027 26.7188C3.68714 26.8281 3.81214 26.875 3.90589 26.8437L6.92152 25.5937C7.03089 25.5469 7.07777 25.4219 7.03089 25.3125C6.98402 25.2031 6.85902 25.1563 6.76527 25.1875L3.74964 26.4375C3.64027 26.4844 3.59339 26.6094 3.64027 26.7188Z" fill="white"/>
<path d="M4.84418 24.5312C4.89105 24.6562 4.82855 24.7812 4.70355 24.8281L3.32855 25.2812C3.21918 25.3281 3.07855 25.25 3.0473 25.1406C3.00043 25.0156 3.06293 24.8906 3.18793 24.8437L4.56293 24.3906C4.6723 24.3437 4.7973 24.4062 4.84418 24.5312Z" fill="#F3F3F3"/>
<path d="M4.85963 24.5157C4.9065 24.6407 4.844 24.7813 4.70338 24.8282L3.32838 25.2813C3.20338 25.3281 3.06275 25.25 3.01588 25.125C2.969 25 3.0315 24.8594 3.17213 24.8125L4.54713 24.3594C4.67213 24.3282 4.81275 24.3907 4.85963 24.5157ZM3.04713 25.1094C3.07838 25.2188 3.20338 25.2813 3.31275 25.25L4.68775 24.7969C4.79713 24.7657 4.844 24.6407 4.81275 24.5313C4.7815 24.4219 4.6565 24.3594 4.54713 24.3907L3.17213 24.8438C3.06275 24.8907 3.01588 25 3.04713 25.1094Z" fill="white"/>
<path d="M6.24981 22.6719C6.28106 22.7969 6.20294 22.9219 6.07794 22.9375L2.87481 23.5625C2.74981 23.5938 2.64044 23.5 2.60919 23.375C2.57794 23.25 2.65606 23.125 2.78106 23.1094L5.98419 22.4844C6.10919 22.4688 6.23419 22.5469 6.24981 22.6719Z" fill="#F3F3F3"/>
<path d="M6.28123 22.6719C6.31248 22.8125 6.21873 22.9375 6.09373 22.9687L2.89061 23.5937C2.76561 23.625 2.64061 23.5312 2.60936 23.3906C2.57811 23.25 2.67186 23.125 2.79686 23.0937L5.99998 22.4687C6.12498 22.4375 6.24998 22.5312 6.28123 22.6719ZM2.64061 23.375C2.65623 23.4844 2.76561 23.5625 2.87498 23.5469L6.07811 22.9219C6.18748 22.9062 6.26561 22.7812 6.23436 22.6719C6.21873 22.5625 6.10936 22.4844 5.99998 22.5L2.79686 23.125C2.68748 23.1562 2.60936 23.2656 2.64061 23.375Z" fill="white"/>
<path d="M4.25042 21.4687C4.26605 21.5937 4.18792 21.7031 4.06292 21.7187L2.62542 21.8906C2.50042 21.9062 2.39105 21.8125 2.37542 21.6875C2.3598 21.5625 2.43792 21.4531 2.56292 21.4375L4.00042 21.2656C4.1098 21.25 4.2348 21.3437 4.25042 21.4687Z" fill="#F3F3F3"/>
<path d="M4.26528 21.4687C4.28091 21.6094 4.18716 21.7344 4.06216 21.75L2.62466 21.9219C2.49966 21.9375 2.37466 21.8437 2.35903 21.7031C2.34341 21.5625 2.43716 21.4375 2.56216 21.4219L3.99966 21.25C4.12466 21.2344 4.24966 21.3281 4.26528 21.4687ZM2.37466 21.6875C2.39028 21.7969 2.49966 21.8906 2.60903 21.875L4.04653 21.7031C4.15591 21.6875 4.23403 21.5781 4.21841 21.4687C4.20278 21.3594 4.09341 21.2656 3.98403 21.2812L2.54653 21.4531C2.43716 21.4687 2.35903 21.5781 2.37466 21.6875Z" fill="white"/>
<path d="M5.99997 19.9531C5.99997 20.0781 5.90622 20.1875 5.78122 20.1875H2.51559C2.39059 20.1875 2.29684 20.0781 2.29684 19.9531C2.29684 19.8281 2.39059 19.7188 2.51559 19.7188H5.78122C5.90622 19.7188 5.99997 19.8281 5.99997 19.9531Z" fill="#F3F3F3"/>
<path d="M6.01611 19.9531C6.01611 20.0937 5.90674 20.2031 5.78174 20.2031H2.51611C2.39111 20.2031 2.28174 20.0937 2.28174 19.9531C2.28174 19.8125 2.39111 19.7031 2.51611 19.7031H5.78174C5.90674 19.7031 6.01611 19.8125 6.01611 19.9531ZM2.31299 19.9375C2.31299 20.0469 2.40674 20.1562 2.51611 20.1562H5.78174C5.89111 20.1562 5.98486 20.0625 5.98486 19.9375C5.98486 19.8281 5.89111 19.7187 5.78174 19.7187H2.51611C2.40674 19.7344 2.31299 19.8281 2.31299 19.9375Z" fill="white"/>
<path d="M4.26577 18.375C4.25015 18.5 4.1564 18.5938 4.0314 18.5938L2.57827 18.4844C2.45327 18.4688 2.35952 18.3594 2.37515 18.2344C2.39077 18.1094 2.48452 18.0156 2.60952 18.0156L4.06265 18.125C4.17202 18.1406 4.26577 18.25 4.26577 18.375Z" fill="#E2E2E2"/>
<path d="M4.2817 18.375C4.26608 18.5156 4.1567 18.6094 4.0317 18.6094L2.57858 18.5C2.45358 18.4844 2.34421 18.375 2.35983 18.2344C2.37546 18.0938 2.48483 18 2.60983 18L4.06295 18.1094C4.18795 18.125 4.2817 18.25 4.2817 18.375ZM2.37546 18.2344C2.35983 18.3438 2.45358 18.4531 2.56295 18.4531L4.01608 18.5625C4.12545 18.5625 4.2192 18.4844 4.23483 18.3594C4.25045 18.25 4.1567 18.1406 4.04733 18.1406L2.59421 18.0312C2.48483 18.0312 2.39108 18.125 2.37546 18.2344Z" fill="white"/>
<path d="M6.28106 17.2344C6.24981 17.3594 6.14044 17.4375 6.01544 17.4219L2.81231 16.7657C2.68731 16.7344 2.60919 16.625 2.64044 16.5C2.67169 16.375 2.78106 16.2969 2.90606 16.3125L6.10919 16.9532C6.21856 16.9844 6.29669 17.1094 6.28106 17.2344Z" fill="#F3F3F3"/>
<path d="M6.29634 17.2344C6.26509 17.375 6.14009 17.4531 6.01509 17.4375L2.81196 16.7969C2.68696 16.7656 2.59321 16.6406 2.62446 16.5C2.65571 16.3594 2.78071 16.2813 2.90571 16.2969L6.10884 16.9375C6.23384 16.9688 6.31196 17.0938 6.29634 17.2344ZM2.65571 16.5C2.64009 16.6094 2.70259 16.7188 2.81196 16.75L6.01509 17.3906C6.12446 17.4063 6.23384 17.3438 6.26509 17.2188C6.28071 17.1094 6.21821 17 6.10884 16.9688L2.90571 16.3281C2.78071 16.3125 2.68696 16.3906 2.65571 16.5Z" fill="white"/>
<path d="M4.87536 15.3594C4.84411 15.4844 4.71911 15.5625 4.59411 15.5312L3.18786 15.1406C3.06286 15.1094 3.00036 14.9844 3.03161 14.8594C3.06286 14.7344 3.18786 14.6562 3.31286 14.6875L4.71911 15.0781C4.84411 15.1094 4.90661 15.2344 4.87536 15.3594Z" fill="#F3F3F3"/>
<path d="M4.89044 15.3594C4.85919 15.4844 4.71856 15.5781 4.59356 15.5313L3.18731 15.1406C3.06231 15.1094 2.98419 14.9688 3.01544 14.8438C3.04669 14.7188 3.18731 14.625 3.31231 14.6719L4.71856 15.0625C4.84356 15.0938 4.92169 15.2188 4.89044 15.3594ZM3.06231 14.8438C3.03106 14.9531 3.09356 15.0781 3.20294 15.1094L4.60919 15.5C4.71856 15.5313 4.82794 15.4688 4.85919 15.3438C4.89044 15.2344 4.82794 15.1094 4.71856 15.0781L3.31231 14.6875C3.20294 14.6719 3.09356 14.7344 3.06231 14.8438Z" fill="white"/>
<path d="M7.0777 14.6094C7.03082 14.7344 6.8902 14.7813 6.78082 14.7344L3.7652 13.4844C3.65582 13.4375 3.59332 13.2969 3.6402 13.1875C3.68707 13.0625 3.8277 13.0156 3.93707 13.0625L6.9527 14.3125C7.0777 14.3594 7.12457 14.5 7.0777 14.6094Z" fill="#F3F3F3"/>
<path d="M7.09339 14.625C7.04652 14.75 6.90589 14.8125 6.78089 14.7656L3.76527 13.5156C3.64027 13.4687 3.59339 13.3281 3.64027 13.1875C3.68714 13.0625 3.82777 13 3.95277 13.0469L6.96839 14.2969C7.09339 14.3594 7.14027 14.5 7.09339 14.625ZM3.67152 13.2031C3.62464 13.3125 3.67152 13.4375 3.78089 13.4844L6.79652 14.7344C6.90589 14.7813 7.01527 14.7187 7.06214 14.6094C7.10902 14.5 7.06214 14.375 6.95277 14.3281L3.93714 13.0781C3.82777 13.0469 3.70277 13.0937 3.67152 13.2031Z" fill="white"/>
<path d="M6.06275 12.5C6.00025 12.6094 5.87525 12.6563 5.76588 12.6094L4.469 11.9532C4.35963 11.9063 4.31275 11.7657 4.37525 11.6407C4.43775 11.5313 4.56275 11.4844 4.67213 11.5313L5.969 12.1875C6.07838 12.25 6.12525 12.3907 6.06275 12.5Z" fill="#F3F3F3"/>
<path d="M6.07795 12.5157C6.01545 12.6407 5.87482 12.6875 5.74982 12.625L4.45295 11.9688C4.32795 11.9063 4.28107 11.7657 4.34357 11.6407C4.40607 11.5157 4.5467 11.4688 4.6717 11.5313L5.96857 12.1875C6.09357 12.2344 6.14045 12.3907 6.07795 12.5157ZM4.39045 11.6563C4.34357 11.7657 4.37482 11.8907 4.4842 11.9375L5.78107 12.5938C5.87482 12.6407 5.99982 12.5938 6.06232 12.5C6.1092 12.3907 6.07795 12.2657 5.96857 12.2188L4.65607 11.5625C4.56232 11.5157 4.43732 11.5469 4.39045 11.6563Z" fill="white"/>
<path d="M8.3591 12.2031C8.28097 12.3125 8.15597 12.3438 8.0466 12.2656L5.34347 10.4688C5.2341 10.4063 5.21847 10.2656 5.28097 10.1563C5.34347 10.0469 5.4841 10.0156 5.59347 10.0938L8.31222 11.9063C8.40597 11.9688 8.43722 12.1094 8.3591 12.2031Z" fill="#F3F3F3"/>
<path d="M8.37503 12.2187C8.29691 12.3281 8.14066 12.3594 8.03128 12.2969L5.32816 10.4844C5.21878 10.4062 5.18753 10.2656 5.26566 10.1406C5.34378 10.0312 5.50003 9.99999 5.60941 10.0625L8.31253 11.875C8.43753 11.9531 8.45316 12.1094 8.37503 12.2187ZM5.29691 10.1562C5.23441 10.25 5.25003 10.3906 5.34378 10.4531L8.06253 12.2656C8.15628 12.3281 8.28128 12.2969 8.34378 12.2031C8.40628 12.1094 8.39066 11.9687 8.29691 11.9062L5.57816 10.0937C5.48441 10.0312 5.35941 10.0625 5.29691 10.1562Z" fill="white"/>
<path d="M7.78083 9.93747C7.7027 10.0312 7.56208 10.0625 7.46833 9.98434L6.3277 9.09372C6.23395 9.01559 6.21833 8.87497 6.29645 8.78122C6.37458 8.68747 6.5152 8.65622 6.60895 8.73434L7.74958 9.62497C7.84333 9.70309 7.85895 9.84372 7.78083 9.93747Z" fill="#F3F3F3"/>
<path d="M7.79727 9.95312C7.71915 10.0625 7.5629 10.0781 7.45352 10L6.3129 9.10937C6.20352 9.03125 6.1879 8.875 6.26602 8.76562C6.34415 8.65625 6.5004 8.64063 6.60977 8.71875L7.7504 9.60937C7.85977 9.6875 7.8754 9.84375 7.79727 9.95312ZM6.29727 8.78125C6.21915 8.875 6.23477 9 6.32852 9.07812L7.46915 9.96875C7.5629 10.0312 7.6879 10.0156 7.76602 9.92187C7.84415 9.82812 7.82852 9.70312 7.73477 9.625L6.59415 8.73437C6.5004 8.67188 6.3754 8.6875 6.29727 8.78125Z" fill="white"/>
<path d="M10.1089 10.0938C10.0151 10.1875 9.87452 10.1875 9.7964 10.0938L7.46827 7.79688C7.37452 7.70313 7.39015 7.5625 7.46827 7.48438C7.56202 7.39062 7.70265 7.39062 7.78077 7.48438L10.0933 9.78125C10.187 9.85938 10.187 10.0156 10.1089 10.0938Z" fill="#F3F3F3"/>
<path d="M10.1091 10.1094C10.0153 10.2031 9.8591 10.2031 9.76535 10.1094L7.45285 7.8125C7.3591 7.71875 7.3591 7.5625 7.45285 7.46875C7.5466 7.375 7.70285 7.375 7.7966 7.46875L10.1091 9.76563C10.2185 9.85938 10.2185 10.0156 10.1091 10.1094ZM7.4841 7.5C7.40598 7.57812 7.40598 7.71875 7.4841 7.79688L9.7966 10.0938C9.87472 10.1719 10.0153 10.1719 10.0935 10.0938C10.1716 10.0156 10.1716 9.875 10.0935 9.79688L7.78098 7.48437C7.70285 7.40625 7.57785 7.40625 7.4841 7.5Z" fill="white"/>
<path d="M9.96832 7.76564C9.87457 7.84376 9.73395 7.84376 9.65583 7.75001L8.7027 6.65626C8.62458 6.56251 8.6402 6.42189 8.73395 6.34376C8.8277 6.26564 8.96833 6.26564 9.04645 6.35939L9.99957 7.45314C10.0777 7.53126 10.0621 7.67189 9.96832 7.76564Z" fill="#F3F3F3"/>
<path d="M9.98392 7.76562C9.87455 7.85937 9.73392 7.84375 9.64017 7.75L8.68705 6.65625C8.5933 6.5625 8.60892 6.40625 8.7183 6.3125C8.82767 6.21875 8.9683 6.23437 9.06205 6.32812L10.0152 7.42187C10.0933 7.53125 10.0933 7.6875 9.98392 7.76562ZM8.73392 6.34375C8.64017 6.42187 8.64017 6.54687 8.70267 6.64062L9.6558 7.73437C9.73392 7.8125 9.85892 7.82812 9.95267 7.75C10.0464 7.67187 10.0464 7.54687 9.98392 7.45312L9.0308 6.35937C8.95267 6.26562 8.82767 6.26562 8.73392 6.34375Z" fill="white"/>
<path d="M12.219 8.35938C12.1096 8.4375 11.969 8.40625 11.9065 8.29688L10.0784 5.59375C10.0159 5.48438 10.0471 5.34375 10.1409 5.28125C10.2502 5.20313 10.3909 5.23438 10.4534 5.34375L12.2659 8.04688C12.344 8.15625 12.3127 8.29688 12.219 8.35938Z" fill="#F3F3F3"/>
<path d="M12.2185 8.375C12.1091 8.45313 11.9528 8.42188 11.8747 8.3125L10.0622 5.60938C9.98409 5.5 10.0153 5.34375 10.1403 5.26563C10.2497 5.1875 10.406 5.21875 10.4841 5.32813L12.2966 8.03125C12.3747 8.15625 12.3435 8.29688 12.2185 8.375ZM10.156 5.29688C10.0622 5.35938 10.031 5.48438 10.0935 5.57813L11.906 8.28125C11.9685 8.375 12.0935 8.39063 12.2028 8.32813C12.2966 8.26563 12.3278 8.14063 12.2653 8.04688L10.4528 5.35938C10.3903 5.26563 10.2497 5.23438 10.156 5.29688Z" fill="white"/>
<path d="M12.5466 6.04687C12.4372 6.10937 12.2966 6.07812 12.2341 5.96874L11.5154 4.70312C11.4529 4.59374 11.4997 4.45312 11.6091 4.39062C11.7185 4.32812 11.8591 4.35937 11.9216 4.46874L12.6404 5.73437C12.6872 5.84374 12.656 5.98437 12.5466 6.04687Z" fill="#F3F3F3"/>
<path d="M12.5463 6.06249C12.4213 6.12499 12.2807 6.09374 12.2182 5.98437L11.4995 4.71874C11.437 4.60937 11.4682 4.45312 11.5932 4.39062C11.7182 4.32812 11.8588 4.35937 11.9213 4.46874L12.6401 5.73437C12.7026 5.84374 12.6713 5.98437 12.5463 6.06249ZM11.6088 4.40624C11.5151 4.46874 11.4682 4.59374 11.5307 4.68749L12.2495 5.95312C12.312 6.04687 12.437 6.07812 12.5307 6.03124C12.6245 5.96874 12.6713 5.84374 12.6088 5.74999L11.8901 4.48437C11.8432 4.39062 11.7026 4.34374 11.6088 4.40624Z" fill="white"/>
<path d="M14.6251 7.0781C14.5001 7.12497 14.3751 7.0781 14.3282 6.96872L13.0626 3.9531C13.0157 3.84372 13.0782 3.7031 13.1876 3.65622C13.3126 3.60935 13.4376 3.65622 13.4845 3.7656L14.7501 6.78122C14.797 6.8906 14.7345 7.03122 14.6251 7.0781Z" fill="#F3F3F3"/>
<path d="M14.6249 7.09376C14.4999 7.14063 14.3593 7.09376 14.2968 6.96876L13.0312 3.95313C12.9843 3.82813 13.0468 3.68751 13.1718 3.64063C13.2968 3.59376 13.4374 3.64063 13.4999 3.76563L14.7655 6.78126C14.8124 6.89063 14.7499 7.03126 14.6249 7.09376ZM13.203 3.67188C13.0937 3.71876 13.0468 3.84376 13.0937 3.93751L14.3593 6.95313C14.4062 7.06251 14.5312 7.10938 14.6405 7.06251C14.7499 7.01563 14.7968 6.89063 14.7499 6.79688L13.4843 3.78126C13.4218 3.67188 13.3124 3.62501 13.203 3.67188Z" fill="white"/>
<path d="M15.3904 4.85935C15.2654 4.90622 15.1404 4.84373 15.0935 4.71873L14.6404 3.34373C14.5935 3.23435 14.6716 3.09373 14.781 3.06248C14.8904 3.03123 15.031 3.0781 15.0779 3.2031L15.531 4.5781C15.5779 4.68748 15.5154 4.81247 15.3904 4.85935Z" fill="#F3F3F3"/>
<path d="M15.4059 4.875C15.2809 4.92187 15.1402 4.85937 15.0934 4.73437L14.6402 3.35937C14.5934 3.23437 14.6715 3.09375 14.7965 3.04687C14.9215 3 15.0621 3.0625 15.109 3.1875L15.5621 4.5625C15.5934 4.6875 15.5309 4.82812 15.4059 4.875ZM14.7965 3.07812C14.6871 3.10937 14.6246 3.23437 14.6559 3.34375L15.109 4.71875C15.1402 4.82812 15.2652 4.875 15.3746 4.84375C15.484 4.8125 15.5465 4.6875 15.5152 4.57812L15.0621 3.20312C15.0309 3.09375 14.9059 3.03125 14.7965 3.07812Z" fill="white"/>
<path d="M17.2338 6.28124C17.1088 6.31249 16.9838 6.23437 16.9682 6.10937L16.312 2.90624C16.2807 2.78124 16.3745 2.67187 16.4995 2.64062C16.6245 2.60937 16.7495 2.68749 16.7651 2.81249L17.4213 6.01562C17.437 6.12499 17.3588 6.24999 17.2338 6.28124Z" fill="#F3F3F3"/>
<path d="M17.2338 6.29689C17.0932 6.32814 16.9682 6.23439 16.937 6.10939L16.2807 2.90626C16.2495 2.78126 16.3432 2.64064 16.4682 2.62501C16.6088 2.59376 16.7338 2.68751 16.7651 2.81251L17.4213 6.01564C17.4526 6.14064 17.3745 6.26564 17.2338 6.29689ZM16.4995 2.65626C16.3901 2.67189 16.312 2.78126 16.3276 2.90626L16.9838 6.10939C16.9995 6.21876 17.1245 6.29689 17.2338 6.26564C17.3432 6.25001 17.4213 6.14064 17.4057 6.01564L16.7495 2.81251C16.7182 2.70314 16.6088 2.64064 16.4995 2.65626Z" fill="white"/>
<path d="M18.422 4.24997C18.297 4.26559 18.1876 4.18747 18.1564 4.06247L17.9689 2.62497C17.9533 2.49997 18.047 2.39059 18.172 2.37497C18.297 2.35934 18.4064 2.43747 18.4376 2.56247L18.6251 3.99997C18.6408 4.12497 18.547 4.23434 18.422 4.24997Z" fill="#F3F3F3"/>
<path d="M18.4215 4.26562C18.2809 4.28124 18.1559 4.18749 18.1403 4.06249L17.9528 2.62499C17.9372 2.49999 18.0309 2.37499 18.1715 2.35937C18.3122 2.34374 18.4372 2.43749 18.4528 2.56249L18.6403 3.99999C18.6559 4.12499 18.5622 4.24999 18.4215 4.26562ZM18.1872 2.39062C18.0778 2.40624 17.984 2.51562 17.9997 2.62499L18.1872 4.06249C18.2028 4.17187 18.3122 4.24999 18.4215 4.23437C18.5309 4.21874 18.6247 4.10937 18.609 3.99999L18.4215 2.56249C18.4059 2.45312 18.2965 2.37499 18.1872 2.39062Z" fill="white"/>
<path d="M32.9219 8.25L18 17.8125H17.9844V17.8281L17.9687 17.8437L8.65625 33.2031L22.3437 22.1875L22.3594 22.1719V22.1562L32.9219 8.25Z" fill="black" fill-opacity="0.05"/>
<path d="M32.6411 7.35938L17.8911 17.8438L22.2661 22.1875L32.6411 7.35938Z" fill="#CD151E"/>
<path d="M17.9062 17.8125L20.1094 19.9844L32.6406 7.35938L17.9062 17.8125Z" fill="#FA5153"/>
<path d="M17.9062 17.8125L22.2812 22.1562L7.53125 32.6406L17.9062 17.8125Z" fill="#ACACAC"/>
<path d="M7.53125 32.6406L20.1094 19.9844L17.9062 17.8125L7.53125 32.6406Z" fill="#EEEEEE"/>
</svg>
