<svg width="118" height="24" viewBox="0 0 118 24" fill="none" xmlns="http://www.w3.org/2000/svg">
<g clip-path="url(#clip0_1280_62541)">
<rect width="24" height="24" rx="6" fill="#794ED3"/>
<g filter="url(#filter0_d_1280_62541)">
<path d="M12.2459 2.49979C13.2099 1.28754 15.1247 1.57346 15.6925 3.01443C15.6925 3.01443 17.9784 9.96717 18.5405 11.0682C19.1026 12.1693 21.9436 18.878 21.9436 18.878C22.5115 20.319 21.4549 21.8565 19.7746 21.6056C18.0943 21.3547 15.9887 20.8586 11.3427 20.3465C6.69656 19.8344 2.91071 19.0875 2.91071 19.0875C1.37887 18.8587 0.757928 17.2766 1.63311 15.8453C1.63311 15.8453 4.62684 11.3156 6.85989 8.52493C9.09294 5.73429 12.2459 2.49979 12.2459 2.49979Z" fill="#EAB74E"/>
</g>
<g clip-path="url(#clip1_1280_62541)">
<mask id="mask0_1280_62541" style="mask-type:alpha" maskUnits="userSpaceOnUse" x="6" y="10" width="6" height="4">
<ellipse cx="2.6025" cy="1.90427" rx="2.6025" ry="1.90427" transform="matrix(0.989035 0.147681 -0.147689 0.989034 6.80469 9.79395)" fill="white"/>
</mask>
<g mask="url(#mask0_1280_62541)">
<ellipse cx="2.6025" cy="1.90427" rx="2.6025" ry="1.90427" transform="matrix(0.989035 0.147681 -0.147689 0.989034 6.80469 9.79395)" fill="white"/>
<circle cx="1.65036" cy="1.65036" r="1.65036" transform="matrix(0.989035 0.147681 -0.147689 0.989034 7.77344 10.1943)" fill="#1C1C24"/>
<circle cx="0.57128" cy="0.57128" r="0.57128" transform="matrix(0.989035 0.147681 -0.147689 0.989034 7.61719 10.4277)" fill="white"/>
</g>
</g>
<g clip-path="url(#clip2_1280_62541)">
<mask id="mask1_1280_62541" style="mask-type:alpha" maskUnits="userSpaceOnUse" x="13" y="11" width="6" height="4">
<ellipse cx="2.6025" cy="1.90427" rx="2.6025" ry="1.90427" transform="matrix(0.989035 0.147681 -0.147689 0.989034 13.3359 10.7686)" fill="white"/>
</mask>
<g mask="url(#mask1_1280_62541)">
<ellipse cx="2.6025" cy="1.90427" rx="2.6025" ry="1.90427" transform="matrix(0.989035 0.147681 -0.147689 0.989034 13.3359 10.7686)" fill="white"/>
<circle cx="1.65036" cy="1.65036" r="1.65036" transform="matrix(0.989035 0.147681 -0.147689 0.989034 14.3047 11.1689)" fill="#1C1C24"/>
<circle cx="0.57128" cy="0.57128" r="0.57128" transform="matrix(0.989035 0.147681 -0.147689 0.989034 14.1406 11.4023)" fill="white"/>
</g>
</g>
<g filter="url(#filter1_d_1280_62541)">
<path d="M12.8679 15.8923C12.1747 16.4054 11.1069 16.246 10.5938 15.5527" stroke="#1C1C24" stroke-width="0.5" stroke-linecap="round"/>
</g>
</g>
<path d="M37.3488 21C35.1628 21 33.3488 20.5116 32.2326 19.8605V16C32.9767 16.6744 34.7209 17.6047 37.1163 17.6047C38.814 17.6047 39.3953 17.0233 39.3953 16.1395C39.3953 13.1163 32 14.6279 32 8.93023C32 5.81395 33.7442 4.06977 37.814 4.06977C39.7209 4.06977 41.4419 4.39535 42.4651 4.88372V8.74419C41.3721 7.93023 39.6744 7.46512 38.0465 7.46512C36.2326 7.46512 35.7674 7.93023 35.7674 8.69767C35.7674 11.4884 43.1628 9.97674 43.1628 15.907C43.1628 19.2093 41.3721 21 37.3488 21Z" fill="#FDFBFF"/>
<path d="M45.3988 20.6744V8.11628H48.7709L48.8872 9.86047C49.5616 8.37209 50.8407 7.7907 52.3523 7.7907C54.9105 7.7907 56.3291 9.09302 56.3291 12.3023V20.6744H52.8407V13.4651C52.8407 11.4884 52.2593 10.907 50.8639 10.907C49.5849 10.907 48.8872 11.6047 48.8872 13.4651V20.6744H45.3988Z" fill="#FDFBFF"/>
<path d="M61.6554 21C59.3531 21 58.0972 19.7442 58.0972 17.186C58.0972 14.5116 59.3763 13.2326 62.981 13.2326H65.074V12.6047C65.074 11.3721 64.5624 10.907 62.8647 10.907C61.3996 10.907 59.9112 11.3488 59.1438 11.814V8.46512C60.1438 8.09302 61.7019 7.7907 63.4926 7.7907C67.3298 7.7907 68.5624 8.97674 68.5624 12.4651V20.6744H65.4228L65.3066 18.814C64.9112 19.9767 63.6786 21 61.6554 21ZM63.0972 18.1163C64.3066 18.1163 65.074 17.3488 65.074 15.907V15.3256H63.4461C62.1205 15.3256 61.6786 15.7674 61.6786 16.8372C61.6786 17.6744 62.1205 18.1163 63.0972 18.1163Z" fill="#FDFBFF"/>
<path d="M76.3816 21C72.1491 21 70.3351 19.186 70.3351 14.2791C70.3351 9.7907 72.3351 7.7907 76.3816 7.7907C78.5909 7.7907 79.9863 8.46512 79.9863 8.46512V12.0465C79.2188 11.4419 78.2886 10.907 76.8467 10.907C74.8002 10.907 73.9165 11.7907 73.9165 14.2791C73.9165 16.9302 74.87 17.8837 77.0793 17.8837C78.2653 17.8837 79.5211 17.3953 80.1025 16.814V20.1628C80.1025 20.1628 78.5909 21 76.3816 21Z" fill="#FDFBFF"/>
<path d="M81.8626 20.6744V3H85.3509V12.6512H86.2579L88.816 8.11628H92.6765L88.9788 14.0698L93.0253 20.6744H89.0719L86.2812 15.6744H85.3509V20.6744H81.8626Z" fill="#FDFBFF"/>
<path d="M104.556 21C100.277 21 98.3935 19.1163 98.3935 14.1628V4.39535H102.021V13.814C102.021 16.8837 102.742 17.6047 104.556 17.6047C106.417 17.6047 107.091 16.9302 107.091 13.814V4.39535H110.719V14.1628C110.719 19.0698 108.789 21 104.556 21Z" fill="#FDFBFF"/>
<path d="M114.161 20.6744V4.39535H117.789V20.6744H114.161Z" fill="#FDFBFF"/>
<defs>
<filter id="filter0_d_1280_62541" x="-1.68443" y="-2" width="28.6501" height="28.6501" filterUnits="userSpaceOnUse" color-interpolation-filters="sRGB">
<feFlood flood-opacity="0" result="BackgroundImageFix"/>
<feColorMatrix in="SourceAlpha" type="matrix" values="0 0 0 0 0 0 0 0 0 0 0 0 0 0 0 0 0 0 127 0" result="hardAlpha"/>
<feOffset dy="0.684432"/>
<feGaussianBlur stdDeviation="0.342216"/>
<feComposite in2="hardAlpha" operator="out"/>
<feColorMatrix type="matrix" values="0 0 0 0 0 0 0 0 0 0 0 0 0 0 0 0 0 0 0.25 0"/>
<feBlend mode="normal" in2="BackgroundImageFix" result="effect1_dropShadow_1280_62541"/>
<feBlend mode="normal" in="SourceGraphic" in2="effect1_dropShadow_1280_62541" result="shape"/>
</filter>
<filter id="filter1_d_1280_62541" x="9.65932" y="13.3369" width="4.73605" height="4.63644" filterUnits="userSpaceOnUse" color-interpolation-filters="sRGB">
<feFlood flood-opacity="0" result="BackgroundImageFix"/>
<feColorMatrix in="SourceAlpha" type="matrix" values="0 0 0 0 0 0 0 0 0 0 0 0 0 0 0 0 0 0 127 0" result="hardAlpha"/>
<feOffset dy="0.684432"/>
<feGaussianBlur stdDeviation="0.342216"/>
<feComposite in2="hardAlpha" operator="out"/>
<feColorMatrix type="matrix" values="0 0 0 0 0 0 0 0 0 0 0 0 0 0 0 0 0 0 0.25 0"/>
<feBlend mode="normal" in2="BackgroundImageFix" result="effect1_dropShadow_1280_62541"/>
<feBlend mode="normal" in="SourceGraphic" in2="effect1_dropShadow_1280_62541" result="shape"/>
</filter>
<clipPath id="clip0_1280_62541">
<rect width="24" height="24" rx="6" fill="white"/>
</clipPath>
<clipPath id="clip1_1280_62541">
<rect width="5.205" height="3.80853" fill="white" transform="matrix(0.989035 0.147681 -0.147689 0.989034 6.80469 9.79395)"/>
</clipPath>
<clipPath id="clip2_1280_62541">
<rect width="5.205" height="3.80853" fill="white" transform="matrix(0.989035 0.147681 -0.147689 0.989034 13.3359 10.7686)"/>
</clipPath>
</defs>
</svg>
