<svg width="24" height="24" viewBox="0 0 24 24" fill="none" xmlns="http://www.w3.org/2000/svg">
    <path d="M18 13C17.4477 13 17 12.5523 17 12C17 11.4477 17.4477 11 18 11C18.5523 11 19 11.4477 19 12C19 12.5523 18.5523 13 18 13Z" fill="black"/>
    <path d="M12 13C11.4477 13 11 12.5523 11 12C11 11.4477 11.4477 11 12 11C12.5523 11 13 11.4477 13 12C13 12.5523 12.5523 13 12 13Z" fill="black"/>
    <path d="M6 13C5.44771 13 5 12.5523 5 12C5 11.4477 5.44771 11 6 11C6.55229 11 7 11.4477 7 12C7 12.5523 6.55229 13 6 13Z" fill="black"/>
    <path d="M18 13C17.4477 13 17 12.5523 17 12C17 11.4477 17.4477 11 18 11C18.5523 11 19 11.4477 19 12C19 12.5523 18.5523 13 18 13Z" stroke="black" stroke-width="1.5"/>
    <path d="M12 13C11.4477 13 11 12.5523 11 12C11 11.4477 11.4477 11 12 11C12.5523 11 13 11.4477 13 12C13 12.5523 12.5523 13 12 13Z" stroke="black" stroke-width="1.5"/>
    <path d="M6 13C5.44771 13 5 12.5523 5 12C5 11.4477 5.44771 11 6 11C6.55229 11 7 11.4477 7 12C7 12.5523 6.55229 13 6 13Z" stroke="black" stroke-width="1.5"/>
</svg>
