<svg width="16" height="16" viewBox="0 0 16 16" fill="none" xmlns="http://www.w3.org/2000/svg">
    <path d="M13 8.66671C12.6318 8.66671 12.3333 8.36823 12.3333 8.00004C12.3333 7.63185 12.6318 7.33337 13 7.33337C13.3682 7.33337 13.6667 7.63185 13.6667 8.00004C13.6667 8.36823 13.3682 8.66671 13 8.66671Z" fill="black"/>
    <path d="M8.00001 8.66671C7.63182 8.66671 7.33334 8.36823 7.33334 8.00004C7.33334 7.63185 7.63182 7.33337 8.00001 7.33337C8.3682 7.33337 8.66667 7.63185 8.66667 8.00004C8.66667 8.36823 8.36819 8.66671 8.00001 8.66671Z" fill="black"/>
    <path d="M3.00001 8.66671C2.63182 8.66671 2.33334 8.36823 2.33334 8.00004C2.33334 7.63185 2.63182 7.33337 3.00001 7.33337C3.3682 7.33337 3.66667 7.63185 3.66667 8.00004C3.66667 8.36823 3.3682 8.66671 3.00001 8.66671Z" fill="black"/>
    <path d="M13 8.66671C12.6318 8.66671 12.3333 8.36823 12.3333 8.00004C12.3333 7.63185 12.6318 7.33337 13 7.33337C13.3682 7.33337 13.6667 7.63185 13.6667 8.00004C13.6667 8.36823 13.3682 8.66671 13 8.66671Z" stroke="black" stroke-width="1.5"/>
    <path d="M8.00001 8.66671C7.63182 8.66671 7.33334 8.36823 7.33334 8.00004C7.33334 7.63185 7.63182 7.33337 8.00001 7.33337C8.3682 7.33337 8.66667 7.63185 8.66667 8.00004C8.66667 8.36823 8.36819 8.66671 8.00001 8.66671Z" stroke="black" stroke-width="1.5"/>
    <path d="M3.00001 8.66671C2.63182 8.66671 2.33334 8.36823 2.33334 8.00004C2.33334 7.63185 2.63182 7.33337 3.00001 7.33337C3.3682 7.33337 3.66667 7.63185 3.66667 8.00004C3.66667 8.36823 3.3682 8.66671 3.00001 8.66671Z" stroke="black" stroke-width="1.5"/>
</svg>
